<?xml version="1.0" encoding="utf-8"?>
<!-- Generator: Adobe Illustrator 22.1.0, SVG Export Plug-In . SVG Version: 6.00 Build 0)  -->
<svg version="1.1" id="Layer_1" xmlns="http://www.w3.org/2000/svg" xmlns:xlink="http://www.w3.org/1999/xlink" x="0px" y="0px"
	 viewBox="0 0 1134.1 227.8" style="enable-background:new 0 0 1134.1 227.8;" xml:space="preserve">
<title>15th Circuit </title>
<path d="M199.5,25.9v-2.3c0.7,0,1.3-0.1,1.9-0.1s1,0,1.4,0h927.3c0.9,0,1.8,0,2.6,0c0.6-0.1,1.2,0.4,1.2,1c0,0.1,0,0.1,0,0.2
	c0,0.8-0.5,1.1-1.3,1.1s-1.8,0-2.6,0L199.5,25.9L199.5,25.9z"/>
<path d="M836.3,213.1c0,0.8,0.1,1.4,0.1,2.2c-0.7,0.1-1.3,0.1-1.9,0.2s-1.1,0-1.7,0H3.9c-0.9,0.1-1.8,0-2.6-0.1
	c-0.5-0.1-0.9-0.7-1.3-1.1c0.4-0.4,0.8-1,1.3-1.1c0.8-0.1,1.6-0.1,2.4-0.1L836.3,213.1L836.3,213.1z"/>
<path d="M710.4,114.9c0.1-16.4,6.2-29.9,19.3-40c9.1-7,19.5-9.6,30.8-9.4c9.2,0.1,18.3,2.5,26.4,7c0.7,0.4,1.4,0.7,2.1,1.1
	c1,0.7,2.3,0.6,3.3-0.1c1.7-1.2,2.5-0.8,2.8,1.3c0.7,4.6,1.3,9.2,1.9,13.8c0.2,1.4,0.4,2.9,0.5,4.3c0,0.5-0.4,1.1-0.7,1.6
	c-0.5-0.3-1.2-0.4-1.6-0.8c-0.6-0.8-1.2-1.7-1.7-2.5c-2.7-4.7-6.2-9-10.2-12.6c-8.2-7.2-17.8-9.8-28.5-8.7c-3.3,0.3-6.5,0.9-9.6,1.9
	c-11.8,4-19,12.5-21.9,24.4c-3.2,12.6-2,25.9,3.2,37.8c2.6,6.1,6.7,11.5,11.9,15.8c6.6,5.5,15,8.3,23.6,8
	c10.7-0.2,19.9-4.2,27.9-11.1c2.4-2.1,4.4-4.7,5.8-7.6c0.4-0.9,0.9-1.7,1.4-2.5c0.5-0.4,1.1-0.8,1.7-1.1c0.2,0.6,0.7,1.3,0.6,1.9
	c-0.2,1.9-0.6,3.8-1,5.7c-0.2,1.3-0.6,2.6-0.8,4c-0.2,2.3-1.6,4.3-3.6,5.3c-6.1,3.9-12.8,6.7-19.8,8.3c-11.3,2.5-22.6,2.7-33.6-1.3
	c-17-6-26.8-18.2-29.5-36C710.7,120.5,710.7,117.7,710.4,114.9z"/>
<path d="M71.2,99.4c1.2-0.1,2.4-0.2,3.7-0.4c5.9-0.6,11.8-0.7,17.6,1.1c10.4,3.3,16.9,11.8,18,22.6c1.9,18.2-12.8,35.8-28.7,38.7
	c-8.2,1.4-16.5,0.5-24.2-2.6c-0.6-0.2-1.2-0.5-1.6-0.9c-0.5-0.5-0.7-1.1-0.8-1.8c0.1-0.9,1.1-0.9,1.8-0.7c0.7,0.2,1.3,0.4,2,0.7
	c6.2,2.5,13,3,19.6,1.5c11.4-2.8,18.1-10.3,20.7-21.5c0.8-3.6,0.9-7.3,0.4-11c-1.3-8.8-7.2-14.9-15.9-16.7c-4.7-1-9.6-1-14.3,0.1
	c-0.4,0.1-0.8,0.2-1.2,0.3c-2.4,0.3-3.9-1.3-3.4-3.6c0.9-4.5,1.9-8.9,2.9-13.4c1.5-7,3-13.9,4.5-20.8c0.7-3.1,1.5-3.9,4.7-3.9
	c7.7,0,15.4,0,23,0c3.6,0,6.9-0.6,9.3-3.5c0.3-0.4,0.7-0.6,1.2-0.8c1.1-0.5,1.9,0.2,1.7,1.4c-0.2,0.8-0.5,1.5-0.8,2.2
	c-1,2.1-2.1,4.1-3,6.3c-1.1,2.8-3.9,4.6-7,4.5c-0.7,0-1.4,0-2.2,0c-6.3,0-12.6,0-19,0c-2.6,0-4.9,1-5.4,3.9
	c-1.2,5.9-2.4,11.7-3.7,17.6C70.9,98.9,71,99.1,71.2,99.4z"/>
<path d="M243.6,123.7c0-12.4,0-24.8,0-37.2c-0.1-3.2-0.4-6.4-0.9-9.5c-0.5-3.5-2.7-5.5-6-6.4c-1.6-0.4-3.1-0.7-4.7-1
	c-0.5-0.1-1.1-0.3-1.5-0.7c-0.6-0.4-0.7-1.2-0.3-1.7c0.2-0.3,0.5-0.4,0.8-0.5c0.7-0.1,1.4-0.2,2.1-0.1c6.8,0.2,13.6,0.5,20.4,0.5
	c2.5,0,4.9-0.4,7.4-0.5c1.2-0.1,1.9,0.7,1.4,1.5c-0.3,0.4-0.7,0.8-1.2,1c-0.6,0.3-1.3,0.5-2,0.7c-2.5,0.7-4.4,2.9-4.7,5.5
	c-0.2,1.2-0.2,2.4-0.2,3.6c-0.1,21.3-0.1,42.7-0.1,64.1c0,5.4,0.1,10.7-0.7,16c-1.6,10.6-6.6,19.1-15.6,25.1c-2.7,1.8-5.8,2.7-9,2.8
	c-1,0.1-1.9,0-2.8-0.3c-2.5-0.8-4-2.1-3-5.2c0.5-1.4,0.7-3,1.2-4.4c0.9-2.4,2.1-2.6,3.9-0.8c0.7,0.7,1.3,1.4,2,2
	c3.2,2.6,6.9,2.3,9.5-1c2-2.6,3.3-5.7,3.7-9c0.3-2.3,0.5-4.5,0.5-6.8c0-12.6,0-25.1,0-37.7H243.6z"/>
<path d="M866.3,160.7c-0.7,0.1-1.4,0.2-2.2,0.2c-6.9,0-13.7,0-20.6,0c-0.8,0-1.6,0.3-2.2-1.1c0.6-0.4,1.3-0.7,2-0.9
	c2.7-0.5,4.7-2.7,4.9-5.5c0.3-2.3,0.5-4.6,0.6-6.9c0-13,0-25.9,0-38.9c0-1.6-0.1-3.2-0.3-4.8c-0.4-3.8-2-5.5-5.8-6.2
	c-1-0.2-2.3,0.1-2.9-1.2c0.4-1,1.3-1,2-0.9c6.5,0.9,13.1,0.1,19.6,0c4.3-0.2,8.7,0.3,12.8,1.5c5.6,1.8,9.5,5.2,10.6,11.2
	c1.3,7.3-1,13.3-7,17.7c-1.3,1-2.8,1.8-4.3,2.8c0.4,0.6,0.8,1.2,1.1,1.8c4.4,6.5,8.8,13,13.3,19.4c1.6,2.2,3.3,4.3,5.2,6.2
	c1.8,2.1,4.4,3.3,7.2,3.3c0.4,0.1,0.9,0.2,1.3,0.4c-0.1,1.3-1.1,1.5-1.9,1.7c-5.1,1.4-9.9,0.9-13.9-2.8c-2.2-2.1-4.1-4.5-5.8-7
	c-4.1-5.9-8-12-11.9-18c-1-1.9-3-3-5.2-2.8c-1.5,0.1-3,0-4.6,0c-2.3,0-2.5,0.2-2.5,2.4c0,5,0,10.1,0,15.1c0,1.5,0.1,3,0.1,4.6
	c0,3.1,1.7,5.1,4.5,6.1c1.4,0.4,2.8,0.7,4.2,0.9C865.5,159.3,866.4,159.3,866.3,160.7z M855.9,112.7h0.1c0,3.8-0.1,7.7,0,11.5
	c0,1.9,0.6,2.4,2.5,2.5c2.8,0.1,5.6,0.1,8.4-0.1c4.9-0.5,8.7-2.7,10.5-7.5c1.9-5.1,1.3-12.6-4.3-17.3c-3.5-3-8.1-4.4-12.7-4.1
	c-3.5,0.1-4.5,1.1-4.5,4.7L855.9,112.7z"/>
<path d="M348.4,95.9c0.5-1.4,1.2-1.4,1.9-1.3c6.6,0.9,13.2,0.2,19.9-0.4c7.7-0.6,15.4-0.1,22.7,2.6c12.3,4.5,19,13.5,20.3,26.5
	c0.6,5.2,0,10.4-1.7,15.4c-4.1,11.9-12.7,18.9-24.9,21.5c-3.1,0.5-6.3,0.7-9.5,0.6c-5.3,0-10.6-0.2-15.8-0.2c-2.4,0-4.8,0.3-7.2,0.5
	c-0.7,0.1-1.4,0.1-2.1,0.1c-0.5-0.1-0.8-0.5-1.3-0.8c0.3-0.3,0.5-0.8,0.9-1c0.5-0.2,1.1-0.4,1.6-0.5c1.8-0.4,3.2-1.9,3.4-3.8
	c0.2-1.3,0.3-2.5,0.3-3.8c0-15.2,0-30.4,0-45.6c0-1.2-0.1-2.4-0.3-3.6c-0.6-3.2-2.6-5-5.8-5.6C350.1,96.4,349.3,96.2,348.4,95.9z
	 M364.2,126.8v24c0,3.2,0.8,4.3,3.8,5.2c5.2,1.8,10.8,2.4,16.3,1.9c10.3-0.9,18.8-8.5,21-18.6c1.7-7.4,1.2-15.1-1.4-22.2
	c-3.1-8.6-8.7-15-17.5-18.2c-5.6-2-11.5-2.1-17.3-1.4c-4,0.5-4.8,1.7-4.9,5.7C364.2,111.2,364.2,119,364.2,126.8z"/>
<path d="M1,79.9c-0.4-1.3,0.3-2.7,1.5-3.2c1.5-0.9,3.1-1.6,4.8-2.1c5.9-1.7,11.4-4.7,16.2-8.6c0.8-0.6,1.6-1.7,2.7-1.1
	s0.7,1.9,0.5,2.8c-0.7,3.5-1,7.1-0.9,10.7c0,22.2,0,44.3,0,66.5c0,2.2,0.2,4.3,0.5,6.4c0.3,3.2,2.9,5.8,6.1,6.1
	c1.8,0.3,3.6,0.3,5.5,0.5c0.8,0,1.6,0.1,2.3,0.4c0.4,0.2,0.7,0.6,0.8,1c-0.1,0.5-0.4,0.8-0.8,1c-0.8,0.2-1.6,0.3-2.4,0.3
	c-8.4,0-16.8-0.1-25.2-0.1c-2.6,0-5.1,0.3-7.7,0.4c-0.9,0-2.2,0.2-2.3-1.1s1.2-1.4,2.1-1.5c1.3-0.2,2.6-0.2,3.8-0.3
	c4.3-0.3,6.7-2.7,7.1-7c0.1-1.1,0.1-2.2,0.1-3.4c0-20.1,0-40.1,0-60.2c0-1.4,0-2.9-0.1-4.3c-0.3-3.3-1.8-4.6-5.1-4.8
	c-2.3-0.1-4.6,0.3-6.8,1.1C2.8,79.5,1.9,79.7,1,79.9z"/>
<path d="M618.5,160.7c-0.7,0.1-1.5,0.2-2.2,0.2c-6.2,0-12.5,0-18.7,0c-0.7,0-1.5,0.3-2-1c0.8-0.3,1.5-0.6,2.3-0.8
	c2.2-0.7,3-1.8,2.7-4c-0.2-1.4-0.5-2.7-0.9-4c-1.5-4.4-3.2-8.7-4.8-13.1c-0.4-1.6-1.9-2.6-3.6-2.5c-6.6,0.1-13.1,0.1-19.7,0
	c-2-0.2-3.8,1-4.5,2.9c-1.5,3.4-3.2,6.8-4.6,10.3c-0.7,1.5-1.1,3.2-1.4,4.8c-0.4,2.5,0.6,3.9,2.9,4.8c0.8,0.3,1.7,0.5,2.5,0.8
	c0.6,0.3,1.1,0.6,1.7,0.9c-0.8,1.1-1.7,0.9-2.5,0.9c-2.7-0.1-5.4-0.3-8.2-0.3c-2.1,0-4.3,0.2-6.5,0.3c-0.6-0.1-1.1-0.3-1.6-0.6
	c0.4-0.4,0.7-1.2,1.1-1.3c1.9-0.5,3.5-1.8,4.4-3.5c1-1.4,1.8-2.8,2.5-4.4c8.4-18.5,16.7-37,25-55.5c0.5-1,0.6-2.7,2.1-2.6
	c1.3,0.1,1.4,1.6,1.7,2.6c7.1,18.1,14.1,36.2,21.2,54.3c0.5,1.3,1.2,2.6,1.7,4c0.9,2.5,3.2,4.3,5.9,4.8c0.7,0.1,1.4,0.3,2.1,0.5
	c0.5,0.2,0.9,0.5,1.4,0.8L618.5,160.7z M582,105.9c-0.6,1-0.9,1.5-1.1,1.9c-3,6.7-6,13.4-9,20.1c-0.2,0.4-0.3,0.7-0.4,1.1
	c-0.3,0.6-0.1,1.3,0.5,1.7c0.1,0.1,0.3,0.1,0.5,0.1c0.7,0.1,1.4,0.2,2.1,0.1c4.5,0,9.1,0,13.7,0c3.5,0,3.8-0.5,2.6-3.7
	c-2.5-6.4-5-12.8-7.5-19.1C582.9,107.4,582.5,106.6,582,105.9z"/>
<path d="M292.3,95.1c0.1,1.5-0.9,1.5-1.6,1.7c-2.6,0.6-3.9,2.4-4.1,4.9c-0.1,1.1-0.2,2.2-0.2,3.4c0,9.5,0,19,0.1,28.5
	c0.1,3.3,0.4,6.5,1,9.8c1.3,7.4,5.9,11.9,13.1,13.6c5.3,1.3,10.9,1.3,16.1-0.1c5.8-1.4,10.5-5.6,12.5-11.3c1.3-3.3,1.9-6.8,1.9-10.3
	c0.1-9.7,0.1-19.3,0-29c0-1.6-0.3-3.2-0.7-4.7c-0.6-2.8-2.9-4.8-5.6-5.2c-0.6-0.1-1.3-0.2-1.8-0.5c-0.3-0.2-0.4-0.7-0.6-1.2
	c2.2-0.8,4.1,0.3,6.1,0.3s3.8,0,5.8,0s3.9,0,5.8,0c0.3,1.2-0.5,1.5-1.1,1.8c-2.5,1-4.1,3.4-4,6c-0.1,2-0.3,4-0.3,6
	c0,8.1,0,16.1,0,24.2c0,4.2-0.6,8.5-1.9,12.5c-1.7,5.6-5.7,10.2-11,12.7c-8.8,4.4-19.1,4.7-28.1,0.9c-8.4-3.4-12.7-9.9-13.8-18.7
	c-0.3-2.5-0.4-5.1-0.5-7.7c-0.1-8.8,0-17.6-0.1-26.4c0-1.4-0.2-2.9-0.4-4.3c-0.2-2.3-1.9-4.2-4.2-4.7c-0.9-0.3-1.9-0.4-2.8-0.7
	c-0.5,0-0.9-0.3-0.9-0.8c0-0.5,0.3-0.9,0.8-0.9l0,0c0.5-0.2,1.1-0.2,1.7-0.1c5.8,0.4,11.7,0.4,17.5-0.2
	C291.3,94.9,291.8,95,292.3,95.1z"/>
<path d="M1019,94.6l18.1,0.5c-0.2,0.5-0.5,1-0.8,1.4c-0.4,0.3-0.8,0.5-1.3,0.7c-1.8,0.9-3.1,2.7-3.2,4.8c-0.2,2.2-0.4,4.5-0.4,6.7
	c0,7.7,0.1,15.4-0.1,23c0,3.4-0.3,6.7-0.9,10c-1.6,9.5-7.3,15.6-16.4,18.5c-7.2,2.3-15,2.2-22.1-0.4c-9.1-3.2-14.2-9.8-15.3-19.3
	c-0.3-2.5-0.4-5.1-0.5-7.6c-0.1-8.8,0-17.6-0.1-26.4c-0.1-1.4-0.2-2.7-0.4-4c-0.2-2.5-2.1-4.5-4.5-4.9c-0.8-0.2-1.6-0.3-2.3-0.5
	c-0.4-0.2-0.8-0.5-1.1-0.8c0.7-1.2,1.7-1,2.6-1c3.1,0.1,6.2,0.2,9.3,0.2c2.4,0,4.8-0.2,7.2-0.3c0.8,0,1.5,0,2.9,0
	c-0.7,0.8-0.9,1.3-1.3,1.5c-0.6,0.2-1.2,0.4-1.8,0.6c-1.5,0.5-2.6,1.7-2.9,3.3c-0.3,1.3-0.4,2.7-0.5,4c0,10.1-0.1,20.1,0.1,30.2
	c0.1,3,0.4,5.9,1,8.8c1.3,7.3,5.8,11.7,12.9,13.5c4.9,1.3,10,1.4,15,0.3c7.9-1.7,12.8-6.6,14.7-14.4c0.7-2.6,1-5.3,1.1-8.1
	c0.1-9.4,0.1-18.7,0-28.1c0-1.7-0.2-3.4-0.6-5c-0.5-2.9-2.9-5-5.8-5.4c-0.6,0-1.1-0.2-1.6-0.4C1019.7,95.8,1019.5,95.3,1019,94.6z"
	/>
<path d="M1115.3,159.8c-0.4,0.8-1.3,1.3-2.2,1.1c-6.3,0-12.6,0-18.9,0c-0.7,0-1.4-0.2-2.7-0.3c0.4-0.5,0.9-0.9,1.4-1.3
	c0.4-0.2,0.8-0.3,1.2-0.3c4.6-0.7,5.6-2.8,5.7-6.6c0-3.1,0.1-6.2,0.1-9.4c0-12.4,0-24.8,0-37.2c0-1.4-0.1-2.7-0.1-4.1
	c0.1-1-0.6-1.9-1.6-2c-0.1,0-0.2,0-0.3,0c-0.4,0-0.8,0-1.2,0c-4.2,0-8.3,0-12.5,0c-4.5,0-6.3,1.4-7.7,5.7c-0.4,1.2-0.3,2.6-1.6,3.4
	c-1-0.4-1-1.1-0.8-2c0.2-1.3,0.5-2.5,0.7-3.8c0.2-1.7,0.4-3.5,0.6-5.2c0.2-2.4,0.6-2.9,3.1-2.9h49.9c4.6,0,4.6,0,4.7,4.7
	c0,1.5,0.3,3,0.4,4.5c0.1,0.6,0.1,1.1,0,1.7c0,0.3-0.4,0.6-0.6,0.6c-0.4,0-0.7-0.1-1-0.4c-0.3-0.7-0.6-1.5-0.7-2.3
	c-0.3-2.2-2.2-3.9-4.5-3.9c-0.7-0.1-1.4-0.1-2.2-0.1c-4.5,0-8.9,0-13.4,0c-3.2,0-3.6,0.4-3.6,3.6c0,13.9,0,27.8,0,41.8
	c0,2.2,0,4.5,0,6.7c0.1,4,1.7,6,5.5,7C1113.5,159.2,1114.3,159.5,1115.3,159.8z"/>
<path d="M513.8,114.6c-0.8-1-1.4-1.7-1.9-2.4c-1.7-2.3-3.1-4.6-4.9-6.8c-9.7-11.2-24.8-10-32.9-5.6c-5.7,3.1-9.9,8.4-11.4,14.8
	c-2.5,9.3-1.7,19.2,2.3,27.9c3.4,7.3,8.7,12.9,16.7,15.1c10.9,2.9,20.4-0.1,28.4-7.9c1.3-1.3,2.2-3.1,3.3-4.7
	c0.5-0.7,1.1-1.4,1.9-2.6c0.2,0.6,0.4,1.2,0.5,1.8c-0.4,2.4-0.9,4.9-1.3,7.3c-0.3,1.7-1.5,2.6-2.8,3.4c-5,3.1-10.5,5.3-16.3,6.2
	c-6.8,1.1-13.6,1-20.2-1.3c-12.5-4.3-19.5-13.1-21.3-26.1c-1-6.4-0.3-13,2.2-19.1c5.5-12.6,15.1-19.7,29-20.7
	c7.5-0.6,15.1,1,21.7,4.7c1.6,0.9,3.3,1.7,5,0.1c1.6,1.5,1.1,3.4,1.4,5c0.4,1.7,0.6,3.5,0.7,5.2C514,110.7,514.9,112.4,513.8,114.6z
	"/>
<path d="M962.3,143c-0.1,1-0.1,1.8-0.2,2.6c-0.3,1.6-0.7,3.1-0.8,4.7c-0.2,2-1.4,3.8-3.2,4.7c-4.8,2.9-10.1,4.9-15.6,5.9
	c-6.4,1.2-13,0.9-19.3-0.7c-12.6-3.3-21.8-14.2-22.8-27.2c-0.5-4.4-0.2-8.8,0.7-13.1c3.7-16.1,17.8-26.8,34.4-26.1
	c6.1,0.2,12.1,1.7,17.5,4.6c1.8,1,3.6,2.5,5.5,0.3c1.1,1.8,2.2,7.7,2.5,13.8c0,0.5-0.1,1.1-0.3,1.6c-1.3-0.1-1.5-1-2-1.7
	c-1.3-1.9-2.4-3.8-3.8-5.5c-8.9-11.5-22.4-12.1-32.4-7.9c-8,3.4-12.3,10-13.9,18.3c-1.4,7.5-0.8,15.3,1.8,22.4
	c0.9,2.3,2,4.5,3.3,6.6c8.5,13.2,22.3,14.3,32.3,10.3c2-0.8,3.9-1.8,5.8-2.9c3.5-2,6.3-5,8.1-8.6C960.3,144.2,960.7,143.1,962.3,143
	z"/>
<path d="M670.6,148.6c-0.1,1.1-0.3,2.1-0.6,3.2c-2.2,5.7-6.4,8.9-12.4,9.4c-3.4,0.2-6.9,0.1-10.3-0.2c-7.2-0.7-14.5-0.6-21.8,0.1
	c-1.1,0.1-2.3,0.8-3.4-0.3c0-1.2,1-1.3,1.7-1.5c3-0.7,5.1-3.4,5-6.5c0.1-1.8,0.2-3.7,0.2-5.5c0-14,0-28,0-42c0-0.7,0-1.4-0.1-2.2
	c-0.4-3.7-2.1-5.5-5.8-6.3c-0.9-0.2-1.7-0.5-2.6-0.8v-0.5c0.4-0.3,0.8-0.5,1.3-0.7c0.6-0.1,1.1-0.1,1.7,0H641h2.3
	c0.3,1.5-0.7,1.6-1.4,1.8c-4.3,1.4-5.3,2.7-5.6,7.1c0,0.5-0.1,1.1-0.1,1.7c0,15.5,0,31,0.1,46.6c0,4.3,0.9,5,5,5.2
	c6.1,0.4,12.2-0.2,18-1.9c1.6-0.5,3.2-1.1,4.7-1.9c1.8-0.8,3.4-2.2,4.4-3.9c0.4-0.5,0.8-1,1.3-1.5L670.6,148.6z"/>
<path d="M1045.2,95.9c0.7-1.6,1.7-1.3,2.5-1.3c3.8,0.1,7.7,0.3,11.5,0.4c1.9,0,3.8-0.2,5.8-0.3c0.6-0.1,1.3-0.1,1.9-0.1
	c0.5,0.2,1.1,0.4,1.6,0.7c-0.3,0.4-0.6,0.8-1,1.1c-0.5,0.3-1,0.5-1.5,0.6c-1.8,0.5-3.2,2-3.6,3.9c-0.5,2.2-0.9,4.5-0.9,6.9
	c-0.1,13.1-0.1,26.2,0,39.3c0,1.4,0.2,2.7,0.3,4.1c0.5,4.8,2.3,6.9,7,7.7c1,0,2,0.5,2.6,1.3c-0.4,1-1.2,0.9-2,0.8
	c-6.8-0.5-13.6-0.5-20.4,0c-0.7,0-1.3-0.1-1.9-0.3c-0.1-1.3,0.8-1.4,1.4-1.5c4.2-0.9,5.4-2.1,5.6-7.3c0.2-6.2,0.1-12.3,0.1-18.5
	c0-8.8,0-17.6,0-26.4c0-1.7-0.2-3.3-0.4-5c-0.3-2.8-2.1-4.4-4.7-5.1C1047.7,96.6,1046.5,96.3,1045.2,95.9z"/>
<path d="M422.6,160.7c0.3-1.6,1.3-1.5,2-1.7c3.8-1,4.5-1.8,5-5.7c0.2-1.6,0.3-3.2,0.3-4.8c0-13.6,0-27.2,0-40.8c0-1.7-0.2-3.3-0.3-5
	c-0.2-3.3-2.1-5.2-5.3-5.9c-1-0.2-2-0.6-3.1-0.9c0.5-1.7,1.5-1.3,2.4-1.3c4.1,0.1,8.1,0.3,12.2,0.4c2.1,0,4.1-0.3,6.2-0.4
	c0.8,0,1.8-0.3,2.5,1c-0.8,0.5-1.6,0.9-2.4,1.3c-2.3,0.6-4,2.6-4.3,5c-0.4,1.9-0.6,3.8-0.6,5.7c0,13.3,0,26.7,0,40
	c0,1.7,0.2,3.3,0.4,5c0.7,3.8,2.5,5.5,6.3,6.2c0.9,0.2,1.7,0.4,2.6,0.6c0.2,0.1,0.5,0.2,0.7,0.4c-0.5,1.4-1.3,1.3-2.1,1.3
	c-6.8-0.5-13.6-0.5-20.4,0C424,160.9,423.3,160.8,422.6,160.7z"/>
<path d="M522.9,95.5c0.5-1.2,1.4-0.9,2.2-0.9c6.1,0.6,12.3,0.6,18.4,0c0.8,0,1.6,0.1,2.4,0.2c0,1.5-1.1,1.7-1.8,1.9
	c-3.1,0.8-4.4,2.9-4.8,5.9c-0.3,1.7-0.4,3.5-0.5,5.2c0,13.1,0,26.2,0,39.3c0,1.8,0.1,3.5,0.4,5.2c0.7,3.9,2.5,5.7,6.4,6.4
	c1.9,0.4,1.9,0.3,3.1,1.2c-0.2,1-1,1.1-1.8,1c-6.9-0.5-13.9-0.5-20.8,0c-0.4,0-0.8,0-1.2-0.2c-0.4-0.1-0.6-0.5-0.5-0.8
	c0-0.2,0.2-0.4,0.4-0.5c0.6-0.3,1.3-0.5,2-0.6c3-0.8,4-1.9,4.4-4.9c0.2-1.7,0.3-3.5,0.3-5.3c0-13.7,0-27.5,0-41.2
	c0-1.7-0.2-3.4-0.4-5c-0.3-3-2-4.7-4.8-5.5C525.2,96.5,523.8,96.8,522.9,95.5z"/>
<path d="M807.9,95.8c0.6-1.5,1.5-1.3,2.2-1.2c6.2,0.6,12.5,0.6,18.7,0c1.2-0.1,1.2-0.1,2.6,0.9c-0.8,0.5-1.6,1-2.5,1.3
	c-2.6,0.7-3.8,2.5-4.3,5c-0.4,1.9-0.6,3.8-0.6,5.7c0,13.3,0,26.7,0,40c0,1.7,0.2,3.3,0.4,5c0.7,3.8,2.5,5.5,6.3,6.2
	c0.9,0.2,1.7,0.4,2.6,0.6c0.3,0.1,0.5,0.2,0.7,0.4c-0.4,1.3-1.3,1.3-2.1,1.2c-6.8-0.5-13.6-0.5-20.4,0c-0.6,0-1.3-0.1-1.9-0.2
	c-0.2-1.2,0.4-1.5,1.1-1.5c4.4-0.5,5.8-3.4,5.9-7.3c0-1.2,0.1-2.4,0.1-3.6c0-13.5,0-27,0-40.5c0-1.7-0.2-3.3-0.3-5
	c-0.2-3.3-2-5.2-5.3-5.9C810.1,96.6,809.1,96.2,807.9,95.8z"/>
<path d="M174.4,104.4h-13.6l-0.1-0.5c0.5-0.3,1-0.5,1.6-0.7c1.3-0.2,2.3-1.3,2.3-2.7c0.2-1.6,0.3-3.2,0.4-4.8c0-8,0-16,0-24
	c0-4-0.4-4.5-4.2-5.8c-0.4-0.2-0.7-0.4-1-0.7c0.4-0.2,0.6-0.5,0.7-0.5c4.1,0,8.1,0,12.2,0.1c0.1,0,0.2,0.2,0.5,0.5
	c-0.6,0.3-1.1,0.6-1.6,0.8c-1.4,0.5-2.4,1.8-2.3,3.3c0,3.9,0,7.8,0,11.8c0,1.2,0.6,1.7,1.8,1.7c6,0,12,0,18,0c1.3,0,1.7-0.6,1.7-1.8
	c0-3.6,0-7.2-0.1-10.8c0-2.2-0.9-3.9-3.3-4.4c-0.2-0.1-0.4-0.2-0.6-0.4c-0.1-0.1-0.1-0.3-0.1-0.4c-0.1-0.1,0.2-0.3,0.3-0.3
	c3.8,0,7.7,0,11.5,0c0.1,0,0.2,0.2,0.5,0.5c-0.4,0.3-0.9,0.6-1.3,0.8c-1.3,0.2-2.3,1.3-2.4,2.7c-0.1,0.8-0.2,1.6-0.2,2.4
	c0,8.6,0,17.3,0,25.9c0,0.5,0,1,0,1.4c0.3,3.4,0.6,3.9,4,5c0.4,0.2,0.7,0.5,0.8,0.9h-13.3c0.5-0.4,1-0.7,1.6-1
	c1.4-0.4,2.4-1.7,2.5-3.2c0.1-1.2,0.2-2.4,0.2-3.6c0-2.8,0-5.6,0-8.4c0-0.9-0.1-1.7-0.2-2.7c-0.8-0.1-1.5-0.2-2.2-0.2
	c-5.4,0-10.9,0-16.3,0c-2.6,0-2.7,0.1-2.7,2.7c0,3.4,0,6.7,0,10.1c0,3.7,0.6,4.4,4.1,5.4c0.4,0.2,0.8,0.3,1.2,0.5L174.4,104.4z"/>
<path d="M104.1,8.1c-0.1-0.5-0.1-1-0.1-1.5c0.2-1.6,0.4-3.2,0.6-4.7s0.4-1.8,2.2-1.9c3.2,0,6.4,0,9.6,0h19.2c3.7,0,3.7,0,3.8,3.6
	c0,1,0,2,0,3L139,6.8c-0.3-0.4-0.6-0.9-0.8-1.4c-0.3-1.5-1.6-2.5-3.1-2.4c-3.2,0-6.4,0-9.6,0c-0.8-0.1-1.6,0.5-1.7,1.3
	c0,0.1,0,0.2,0,0.3c0,0.6-0.1,1.1-0.1,1.7v26.4c0,0.5,0,1,0,1.4c0.2,2.5,1,3.5,3.4,4.4c0.4,0.1,0.8,0.3,1.6,0.6
	c-1.7,1.1-3.2,0.3-4.6,0.4c-1.6,0.1-3.2,0-4.8,0H115l-0.1-0.6l1.9-0.5c1.5-0.2,2.6-1.5,2.6-3c0-0.6,0.1-1.3,0.1-1.9
	c0-9.1,0-18.2,0-27.3c0-0.9-0.2-1.9-0.3-3.1h-3.7c-1.8,0-3.5,0-5.3,0c-3,0-3.9,0.7-4.9,3.5c-0.2,0.6-0.5,1.2-0.8,1.8L104.1,8.1z"/>
<path d="M157,65.6l0.4,6.5c-1.3-0.5-1.3-1.4-1.5-2.1c-0.2-1-1.1-1.8-2.2-1.9c-3.8,0-7.7,0-11.7,0c-0.2,1-0.3,1.9-0.3,2.9
	c0,8.9,0,17.8,0,26.6c0,4,0.4,4.5,4.1,6c0.2,0.2,0.5,0.3,0.7,0.5c-1.5,0.9-3,0.2-4.4,0.3c-1.4,0.1-3,0-4.6,0H133l-0.2-0.5
	c0.5-0.3,1-0.5,1.5-0.7c2.4-0.7,2.8-1.1,3-3.6c0.1-0.8,0.1-1.6,0.1-2.4c0-8.5,0-16.9,0-25.4c0-1.2-0.1-2.4-0.2-3.7
	c-0.9-0.1-1.6-0.2-2.3-0.2c-2.5,0-5-0.1-7.4,0s-3.4,0.8-4.2,3.2c-0.2,0.6-0.4,1.2-0.6,1.8c0,0.1-0.2,0.2-0.4,0.3
	c-0.5-1.2-0.3-4.5,0.6-7.7C124.9,64.9,154.5,64.9,157,65.6z"/>
<path d="M926.8,227.2c-0.3,0.1-0.5,0.2-0.8,0.3c-4.1,0-8.2,0-12.3,0l-0.2-0.6c0.5-0.3,1-0.6,1.5-0.8c1.3-0.4,2.1-1.6,2.2-2.9
	c0.1-1,0.2-2.1,0.2-3.1c0-7.8,0-15.7,0-23.5c0-1-0.1-2.1-0.3-3.1c-0.3-2-1.3-3.4-3.5-3.6c-0.4-0.1-0.9-0.2-1.3-0.5
	c0.5-1.1,1.2-0.8,1.9-0.8c6.5,0,13.1,0,19.7-0.1c1.6,0,3.2-0.2,5.1-0.4c-0.3,2.5-0.5,4.8-0.8,7.5c-0.8-0.4-1.4-1.3-1.3-2.2
	c-0.1-1.5-1.4-2.7-2.9-2.6c0,0,0,0,0,0c-3.3-0.1-6.7-0.4-10-0.4c-1.7,0-2.1,0.4-2.2,1.9c-0.1,4.5,0,9.1,0,13.8
	c0.7,0.2,1.3,0.3,2,0.4c2.5,0,5,0,7.4-0.1c1.8,0.2,3.5-1.1,3.8-2.9c0.2-0.4,0.4-0.7,0.6-1c0.3,0.3,0.5,0.5,0.5,0.6
	c0,3.1,0,6.2-0.1,9.3c0,0.2-0.3,0.3-0.7,0.8c-0.4-0.7-0.7-1.5-0.9-2.3c-0.2-1.2-1.1-2.1-2.3-2.1c-3-0.2-6.1-0.2-9.1-0.2
	c-1,0-1.3,0.7-1.4,1.6c0,1.4,0,2.9,0,4.3c0,2.2,0,4.3,0,6.5c0.1,3.4,1,4.4,4.3,5.3c0.3,0.1,0.6,0.2,0.8,0.4L926.8,227.2z"/>
<path d="M111,23.6l0.1,2c-0.2,0.1-0.5,0.2-0.7,0.3c-0.7,0-1.4,0-2.1,0H3.2C2.6,26,1.9,26,1.3,25.9c-0.5-0.2-0.9-0.8-1.3-1.1
	c0.4-0.4,0.8-0.8,1.3-1.1c0.5-0.1,0.9-0.1,1.4-0.1h106C109.5,23.5,110.2,23.6,111,23.6z"/>
<path d="M141.9,12h8.4c-0.8,0.6-1.5,1.4-2,2.2c-0.3,0.9-0.4,1.9-0.3,2.8c0,2.4,0,4.8,0,7.3h14.5c0.1-0.5,0.2-1,0.3-1.6c0-2,0-4,0-6
	s-0.2-3.9-2.5-4.7h8c-2.3,1.4-2.4,1.7-2.4,4.3c0,6.2,0,12.3,0,18.5c0,3,0.3,3.4,3.3,4.6h-8.7c0.7-0.6,1.4-1.2,1.9-2
	c0.3-0.9,0.4-1.9,0.4-2.8c0-2.2,0-4.3,0-6.5c0-0.7-0.1-1.3-0.2-2h-13.9c-0.1,0.1-0.3,0.2-0.3,0.3c0,3.4-0.2,6.8-0.1,10.2
	c0,1.4,0.7,1.7,3.1,2.6h-8.7c0.8-0.7,1.5-1.4,2-2.3c0.3-1.1,0.4-2.2,0.3-3.3c0-5.6,0-11.2,0-16.8c0-2.2-0.4-4-2.9-4.5
	C141.9,12.4,141.9,12.2,141.9,12z"/>
<path d="M994.7,200.2c3.2,0,6.3,0,9.5,0c1.2,0,2.4,0.2,3.5,0.5c3.5,0.8,5.8,4.3,5,7.8c-0.3,1.2-0.8,2.3-1.7,3.1
	c-0.9,0.9-1.9,1.7-2.8,2.5c0.3,0.5,0.5,1,0.9,1.5c1.6,2.3,3.2,4.6,4.8,6.9c1.4,2,2.8,3.8,5.8,4.4c-2.8,1.1-4.8,0.7-6.6-0.9
	c-0.9-0.9-1.7-1.9-2.4-3c-1.4-1.8-2.6-3.6-3.7-5.6c-1.3-2.5-3.2-3.1-6-2.3c0,1.2-0.1,2.5-0.1,3.9s0,2.9,0,4.3
	c0.1,2.2,0.6,2.7,2.7,3.3c0.4,0.1,0.8,0.3,1,0.7h-9.3c0.2-0.2,0.3-0.5,0.5-0.6c1.3-0.4,2.1-1.7,2-3c0.1-2.4,0.2-4.8,0.2-7.2
	c0-3.8,0-7.5-0.1-11.3C997.8,201.9,997.7,201.8,994.7,200.2z M1001.1,213.5c1.6,0.1,3.2,0.1,4.7,0c2-0.3,3.7-1.9,3.9-3.9
	c0.8-3.6-1.4-7.1-5-7.9c-0.6-0.1-1.2-0.2-1.8-0.2c-1.8,0-2.3,0.4-2.3,2.2c0,2.8,0,5.6,0,8.4C1000.9,212.5,1001,213,1001.1,213.5
	L1001.1,213.5z"/>
<path d="M1035,227c2-0.4,2.3-1.9,2.3-3.5c0-6.2,0-12.5,0-18.7c0-2.2-0.7-3.7-3.1-4.4c0.4,0,0.8-0.1,1.2-0.1c2,0,4-0.1,6,0
	c2.6,0,5.3,0.1,7.9,0.4c6.5,1,10.6,5.5,11,11.7c0.4,7.1-3.2,12.7-9.6,14.5c-1,0.3-2,0.5-3.1,0.5c-4.1,0.1-8.3,0-12.4,0
	C1035.1,227.3,1035.1,227.2,1035,227z M1057.5,215.5c-0.2-9.5-5.7-14.8-14-14.4c-2.8,0.1-3.3,0.6-3.3,3.5c0,5.5,0,11,0,16.5
	c0,4.4,0.1,4.5,4.3,5.2c0.2,0,0.3,0.1,0.5,0.1c5.9,0.8,10.8-2.3,12.1-7.6C1057.3,217.7,1057.4,216.6,1057.5,215.5z"/>
<path d="M873.1,213.4c0,8.4-5.7,14.4-14,14.4s-14-5.6-14-13.7s5.9-14.1,14.3-14.1C867.4,200,873,205.5,873.1,213.4z M847.9,212.6
	c-0.2,4,1.3,8,4.2,10.9c3.9,4.2,10.4,4.5,14.6,0.6c1.4-1.3,2.4-2.9,2.9-4.6c0.8-2.4,0.9-5.1,0.4-7.6c-0.8-4.6-3.3-8.1-7.7-9.9
	c-6.7-2.8-13.1,0.8-14.2,7.8C847.9,210.7,847.9,211.7,847.9,212.6z"/>
<path d="M991.1,213.4c0,8.4-5.8,14.4-14,14.4s-14-5.6-14-13.7s5.9-14.1,14.3-14.1C985.5,200,991.1,205.5,991.1,213.4z M966,212.7
	c-0.2,4,1.3,8,4.2,10.9c3.9,4.2,10.4,4.4,14.6,0.5c1.3-1.2,2.3-2.8,2.8-4.5c1.3-3.8,1-8-0.8-11.6c-1.3-2.8-3.6-4.9-6.5-6.1
	c-7.2-2.8-13.8,1.4-14.3,9.1C966,211.6,966,212.2,966,212.7z"/>
<path d="M173.8,39c2-0.3,2.5-1.6,2.5-3.3c0-6.4,0.1-12.8,0-19.2c0-3-0.5-3.4-3.1-4.5h18.7c-0.2,1.6-0.4,3.2-0.5,4.7l-0.4,0.1
	c-0.2-0.3-0.4-0.6-0.5-1c0-1.3-1.1-2.4-2.5-2.4c0,0,0,0-0.1,0c-2.3-0.1-4.6-0.1-7-0.1c-1.1,0-1.6,0.6-1.5,1.7v9.6
	c2.6,0.4,5.3,0.3,7.9-0.2c0.5-0.1,0.9-0.8,1.3-1.3c0.4-0.4,0.5-0.7,1.1-1.5v8l-0.3,0.1c-0.3-0.4-0.5-0.8-0.7-1.2
	c-0.3-1.3-1.5-2.2-2.8-2c-1.6,0-3.2,0-4.8,0c-1.1,0-1.6,0.4-1.6,1.5c0,2.6,0,5.3,0,7.9c0,1.6,0.4,2,1.9,2.2c2.8,0.4,5.6,0.1,8.3-0.9
	c1.5-0.8,2.9-1.6,4.2-2.6c0,0.5,0,1-0.2,1.5c-0.9,2.1-3,3.5-5.3,3.5c-4.8,0.1-9.5,0-14.3,0L173.8,39z"/>
<path d="M1073.9,199.3c0.5,1.1,0.9,1.8,1.1,2.5c2.6,6.8,5.2,13.5,7.9,20.3c1.7,4.2,0.8,3.3,4.7,5.2h-8.8c0.3-0.9,1.9-1,1.5-2.2
	c-0.3-0.9-0.4-1.9-0.7-2.8c-0.6-1.7-1.2-3.4-1.9-5.3h-9.1c-0.8,0-1.6,0.5-1.8,1.3c-0.6,1.4-1.3,2.7-1.9,4.1
	c-1.1,2.7-0.9,3.4,2.1,4.9h-7.6c2.8-1.4,3.5-3.7,4.4-5.9c2.9-6.4,5.8-12.8,8.7-19.2C1072.9,201.3,1073.3,200.6,1073.9,199.3z
	 M1076.9,214.9c-1.2-3.3-2.5-6.5-4-9.7c-2,3.2-4.1,7.9-4.2,9.7H1076.9z"/>
<path d="M894.5,204.8c-1.7-3.1-1.7-3.1-5.3-3.3c-2-0.1-3.9,0-6.1,0c-0.6,3.8-0.3,7.4-0.3,11.1c2.5,0.5,5,0.4,7.5-0.1
	c0.9-0.2,1.6-1.3,2.3-2c0.5,2.2,0.5,4.4,0.1,6.6c-0.1,0-0.4,0-0.4-0.1c-0.5-2.2-2.1-2.8-4.1-2.7c-1.7,0-3.3,0-5.3,0
	c0,1.7-0.1,3.1-0.1,4.5s0,2.9,0,4.3c0,1.9,0.7,3.3,2.8,3.6c0.2,0,0.3,0.2,0.8,0.5h-8.8c0.3-0.3,0.5-0.6,0.8-0.7
	c0.9-0.3,1.5-1.3,1.5-2.3c0-6.9,0-13.7,0-20.6c0-1.9-1.2-2.8-3-3.4H895C894.8,201.9,894.7,203.3,894.5,204.8z"/>
<path d="M961.5,222.8c-0.1,1.9-1.4,3.4-3.1,4.1c-0.8,0.3-1.7,0.5-2.6,0.5c-4.5,0.1-9,0-13.7-0.1c2.7-1.1,2.7-3.4,2.7-5.6
	c0-5.4,0-10.7,0-16.1c0-2.4-0.2-4.5-3.1-5.3h8.4c-2.6,1-2.6,3.1-2.6,5.3c0,5.5,0,11,0,16.5c0,3.7,0.2,3.9,4,3.8c1,0,2.1-0.1,3.1-0.2
	C957.1,225.5,959.6,224.8,961.5,222.8z"/>
<path d="M1093.3,215.4v-2.1c0.4-0.1,0.7-0.2,1.1-0.2c5.8,0,11.7,0,17.5,0h19.4c0.6-0.1,1.3,0,1.9,0.1c0.4,0.3,0.7,0.7,0.8,1.2
	c0,0.3-0.5,0.8-0.9,0.9c-0.5,0.1-0.9,0.1-1.4,0.1h-36.7C1094.5,215.5,1094,215.4,1093.3,215.4z"/>
<path d="M1021,200.3h8.9c-0.4,0.3-0.8,0.5-1.2,0.9c-0.6,0.5-1,1.2-1.3,1.9c-0.3,1-0.4,2-0.4,3.1c0,5.1,0,10.2,0,15.4v0.7
	c0.1,3.2,0.5,3.8,4,5.1h-9.4c0-0.1,0-0.2,0-0.3c2.2-0.6,2.5-2.2,2.5-4.1c0-5.8,0-11.5,0-17.3C1024.2,203.2,1023.9,201.2,1021,200.3z
	"/>
</svg>
