<?xml version="1.0" encoding="utf-8"?>
<!-- Generator: Adobe Illustrator 22.1.0, SVG Export Plug-In . SVG Version: 6.00 Build 0)  -->
<svg version="1.1" id="Layer_1" xmlns="http://www.w3.org/2000/svg" xmlns:xlink="http://www.w3.org/1999/xlink" x="0px" y="0px"
	 viewBox="0 0 165.4 150.8" style="enable-background:new 0 0 165.4 150.8;" xml:space="preserve">
<style type="text/css">
	.st0{fill:#FFFFFF;}
</style>
<g>
	<path d="M150,24.8c3.5,0,6.3,0.1,9.1,0c4.5-0.2,6.3,1.7,6.3,6.2c-0.1,14.3,0,28.7,0,43c0,23.2,0,46.3,0,69.5c0,6.8-0.6,7.3-7.5,7.3
		c-50.2,0-100.3,0-150.5,0c-6.9,0-7.4-0.5-7.4-7.4c0-37,0-74,0-111c0-7,0.7-7.6,7.8-7.6c23,0,46,0.1,69-0.1c3.2,0,6.6-0.6,9.7-1.8
		c18.6-7.1,37.2-14.5,55.8-21.8c6.2-2.4,7.8-1.3,7.8,5.4C150,12.3,150,18.1,150,24.8z M78.6,33.1c-1.9-0.1-3.4-0.2-4.9-0.2
		c-20.2,0-40.3,0.1-60.5-0.1c-4.1,0-5.3,1.1-5.3,5.3c0.2,33,0.2,66,0,99c0,4.5,1.4,5.6,5.7,5.6c20-0.2,40,0,60,0
		c1.6,0,3.2-0.2,5-0.2C78.6,105.8,78.6,69.7,78.6,33.1z M141.7,10.1c-1.9,0.6-3.3,1-4.7,1.5C121.6,17.8,106.2,24,90.7,30
		c-3.1,1.2-4.2,2.7-4.2,6.1c0.1,33.5,0.1,66.9,0.1,100.4c0,1.4,0.2,2.8,0.4,4.7c17.2-6.8,33.9-13.5,50.6-19.9
		c3.6-1.4,4.6-3.2,4.6-6.9c-0.2-33-0.1-65.9-0.1-98.9C142,13.8,141.8,12.2,141.7,10.1z M150,33.2c0,2.3,0,4.2,0,6.2
		c0,26.1-0.2,52.3,0.1,78.4c0.1,5.5-1.8,8-6.8,9.7c-11.3,4-22.3,8.6-33.5,13c-1,0.4-2,1-3.8,2c17.6,0,34.2,0,51,0
		c0-36.6,0-72.8,0-109.3C154.7,33.2,152.6,33.2,150,33.2z"/>
	<path class="st0" d="M133.1,95.9c-0.9-0.2-1.8-0.5-2.8-0.7c-0.9,1.7-2.7,3.5-2.5,5.1c0.5,4.2,0.4,7.9-3,11
		c-0.3,0.2,0.1,1.2,0.2,2.6c2.5-0.7,4.8-0.9,6.7-2c1.5-0.8,3.1-2.4,3.6-4.1c0.2-0.6-2.2-2.2-3.1-3
		C132.6,101.8,132.9,98.9,133.1,95.9z M107.6,118.7c4.8,1,10.8-0.9,10.9-3.4c0-1.6-1.7-3.2-3-5.6c0,0.1,0.6-1,0.7-2.1
		c0.1-1.5,0-3.2-0.4-4.7c-0.1-0.4-2.2-0.7-2.5-0.4c-1.1,1.3-1.9,2.9-2.6,4.4c-0.3,0.7,0.3,1.6,0.1,2.4c-0.3,1.9-0.6,3.7-1.2,5.5
		C109.3,116.1,108.4,117.2,107.6,118.7z M131.3,79.2c0-0.1,0.8-1.2,0.7-2.2c-0.1-1.7-0.8-3.4-1.3-5.1c-1.3,1.4-2.8,2.7-3.9,4.2
		c-0.4,0.5-0.3,1.8,0,2.4c1.5,2.7,0.5,4.6-1.5,6.5c-0.8,0.8-1.1,2.1-2,4c5,0.1,8.7-0.9,11.1-4.3C134.8,84.1,132.7,81.8,131.3,79.2z
		 M107.2,94c0.3,0.5,0.7,0.9,1,1.4c2.2-0.6,4.5-0.8,6.4-1.8c1.6-0.8,2.7-2.5,4-3.8c-1.2-1.1-2.4-2.2-3.7-3.4c0.3-1,1.2-2.3,1-3.5
		c-0.2-1.6-1.1-3.2-1.6-4.8c-1.2,1.4-3.6,2.9-3.4,4C111.8,86.8,110.8,90.7,107.2,94z M91.3,124.9c5.2,1,8.6-0.5,11-3.6
		c0.5-0.7-1.6-3.3-2.9-5.9c0,0.1,0.7-1,0.7-2c0.1-1.5-0.1-3.1-0.5-4.6c-0.1-0.3-1.8-0.7-2-0.5c-1.1,1.3-2.2,2.7-2.9,4.3
		c-0.3,0.8,0.4,1.9,0.3,2.9c-0.2,1.7-0.5,3.5-1.1,5.1C93.5,121.9,92.5,123,91.3,124.9z M123.6,65.3c4.5,0,8.2-1.2,10.5-4.6
		c0.4-0.6-1.8-2.9-2.9-4.7c0.1-2,0.3-4.6,0.4-7.6c-4.4,0.3-5.8,2.8-5.1,5.4c1.1,3.7,0.1,6.2-2.4,8.6
		C123.8,62.9,123.9,63.9,123.6,65.3z M115.3,62.6c0-2.3,0-5,0-7.9c-4.5,0.7-5.3,3.6-4.4,6.4c1,3.1,0.2,4.9-1.9,6.9
		c-0.7,0.7-0.8,1.9-1.4,3.3c4.8,0.3,8.4-1,10.7-4.5C118.6,66.3,116.4,64.1,115.3,62.6z M100.6,84.5c-0.5-0.3-1-0.6-1.5-0.9
		c-1.2,1.5-3.6,3.2-3.3,4.3c1.3,4.7-1,8.2-2.9,11.9c-0.1,0.2,0.3,0.6,0.8,1.7c2.5-1,5.4-1.6,7.7-3.1c0.8-0.5,0.8-4.3,0.5-4.4
		c-2.7-0.9-2-2.2-1.4-4.2C101,88.1,100.6,86.3,100.6,84.5z M123.5,41.1c0.4,0.6,0.9,1.3,1.3,1.9c2.9-1.7,5.9-3.2,8.6-5.2
		c0.3-0.2-1.3-2.9-2.4-5.3c0,0.1,0.7-0.9,0.5-1.7c-0.3-1.7-1.1-3.3-1.6-5c-1.2,1.6-2.4,3.1-3.5,4.7c-0.3,0.4-0.1,1.4,0.2,1.9
		c1.4,2.3,0.5,3.9-1.3,5.5C124.5,38.7,124.1,40,123.5,41.1z M100.3,68.3c-0.2-2.1-0.4-4.6-0.5-7c-0.9,0.1-2.5,0-2.6,0.4
		c-0.8,2.9-1.3,5.9-1.8,8.8c0.3,0,0.6,0.1,1,0.1c-1.3,2-2.6,3.9-4,5.9c0.4,0.6,0.8,1.2,1.2,1.7c3-1.5,6.1-2.9,8.9-4.7
		C102.7,73.4,101.2,70.6,100.3,68.3z M115.7,32.6c-5.5-0.1-4.9,3.3-5,6.4c-0.1,1.8-0.7,3.7-1.3,5.4c-0.4,1.2-1.1,2.2-2.1,4.1
		c5.3-0.1,9.1-1.3,11.8-5.7c-1.8-1-3-1.7-3.9-2.3C115.3,37.8,115.5,35.3,115.7,32.6z M95.5,47.5c0.2,0.1,0.5,0.3,0.7,0.4
		c-1.3,2-2.6,3.9-3.8,5.9c0.3,0.5,0.7,1,1,1.5c2.8-1.2,5.6-2.2,8.2-3.6c0.6-0.3,1-2.8,0.8-2.9c-4-1.7-2.1-4.6-1.9-7.3
		c0.1-0.9-0.8-2.5-1.5-2.7c-0.8-0.2-2.6,0.7-2.7,1.4C95.8,42.6,95.8,45.1,95.5,47.5z"/>
	<path d="M43.4,114.8c-6.7-0.9-12.1-1.4-17.5-2.5c-3.6-0.7-7.3-2-8.1-6.4c-0.8-4.4,1.6-7.4,5-9.6c3.5-2.2,7.2-4.1,11-5.8
		c4.6-2.2,4.7-3.9,2.3-8.5c-2.5-4.9-5-10.3-5.5-15.6c-0.9-9.4,6.1-16,14.8-15.4c8.9,0.5,15.1,7.6,13.7,16.7c-0.8,4.9-3,9.8-5.5,14.2
		c-2.9,5.1-2.7,6.6,2.6,8.9c3.8,1.7,7.4,3.7,11,5.9c3.4,2.1,5.7,5.6,4.1,9.2c-1.1,2.6-4.2,5.4-6.9,6C57.3,113.5,49.8,114,43.4,114.8
		z"/>
	<path d="M133.1,95.9c-0.2,2.9-0.5,5.9-0.7,8.9c0.9,0.9,3.3,2.4,3.1,3c-0.6,1.6-2.1,3.2-3.6,4.1c-1.9,1-4.2,1.3-6.7,2
		c-0.2-1.4-0.5-2.3-0.2-2.6c3.4-3.1,3.4-6.8,3-11c-0.2-1.6,1.6-3.4,2.5-5.1C131.3,95.5,132.2,95.7,133.1,95.9z"/>
	<path d="M107.6,118.7c0.9-1.6,1.7-2.6,2.1-3.8c0.6-1.8,0.9-3.6,1.2-5.5c0.1-0.8-0.4-1.8-0.1-2.4c0.7-1.6,1.5-3.1,2.6-4.4
		c0.3-0.4,2.4,0,2.5,0.4c0.4,1.5,0.5,3.1,0.4,4.7c-0.1,1.1-0.8,2.2-0.7,2.1c1.3,2.4,3,4,3,5.6C118.4,117.8,112.4,119.7,107.6,118.7z
		"/>
	<path d="M131.3,79.2c1.5,2.6,3.5,4.9,3,5.5c-2.4,3.4-6.1,4.4-11.1,4.3c0.9-1.9,1.2-3.2,2-4c2-1.9,3-3.8,1.5-6.5
		c-0.4-0.6-0.4-1.9,0-2.4c1.2-1.5,2.6-2.8,3.9-4.2c0.5,1.7,1.1,3.4,1.3,5.1C132.1,78,131.3,79.1,131.3,79.2z"/>
	<path d="M107.2,94c3.7-3.4,4.6-7.2,3.7-11.8c-0.2-1.1,2.2-2.7,3.4-4c0.6,1.6,1.5,3.1,1.6,4.8c0.1,1.2-0.7,2.5-1,3.5
		c1.3,1.2,2.5,2.3,3.7,3.4c-1.3,1.3-2.4,3-4,3.8c-1.9,1-4.3,1.2-6.4,1.8C107.8,95,107.5,94.5,107.2,94z"/>
	<path d="M91.3,124.9c1.2-1.9,2.2-3,2.6-4.3c0.6-1.6,0.9-3.4,1.1-5.1c0.1-0.9-0.6-2.1-0.3-2.9c0.7-1.6,1.7-3,2.9-4.3
		c0.2-0.3,2,0.1,2,0.5c0.4,1.5,0.6,3.1,0.5,4.6c-0.1,1.1-0.8,2.1-0.7,2c1.3,2.5,3.4,5.2,2.9,5.9C100,124.5,96.5,125.9,91.3,124.9z"
		/>
	<path d="M123.6,65.3c0.3-1.4,0.2-2.4,0.7-2.8c2.4-2.5,3.4-4.9,2.4-8.6c-0.8-2.6,0.7-5.1,5.1-5.4c-0.2,3-0.3,5.6-0.4,7.6
		c1.1,1.8,3.3,4.1,2.9,4.7C131.8,64.1,128.1,65.3,123.6,65.3z"/>
	<path d="M115.3,62.6c1.1,1.5,3.4,3.7,3.1,4.2c-2.4,3.5-5.9,4.8-10.7,4.5c0.6-1.4,0.7-2.7,1.4-3.3c2.1-2,2.9-3.9,1.9-6.9
		c-0.9-2.7-0.1-5.7,4.4-6.4C115.3,57.6,115.3,60.3,115.3,62.6z"/>
	<path d="M100.6,84.5c0,1.7,0.4,3.6-0.1,5.2c-0.6,2-1.3,3.3,1.4,4.2c0.3,0.1,0.3,3.9-0.5,4.4c-2.3,1.5-5.2,2.2-7.7,3.1
		c-0.6-1.1-0.9-1.5-0.8-1.7c2-3.7,4.2-7.2,2.9-11.9c-0.3-1.1,2.1-2.8,3.3-4.3C99.5,83.9,100,84.2,100.6,84.5z"/>
	<path d="M123.5,41.1c0.6-1.1,1-2.4,1.9-3.2c1.8-1.6,2.6-3.2,1.3-5.5c-0.3-0.5-0.5-1.5-0.2-1.9c1.1-1.6,2.3-3.2,3.5-4.7
		c0.6,1.7,1.3,3.3,1.6,5c0.1,0.8-0.6,1.8-0.5,1.7c1.1,2.4,2.7,5.1,2.4,5.3c-2.7,2-5.7,3.5-8.6,5.2C124.4,42.3,123.9,41.7,123.5,41.1
		z"/>
	<path d="M100.3,68.3c0.9,2.2,2.3,5,2.1,5.2c-2.8,1.8-5.9,3.2-8.9,4.7c-0.4-0.6-0.8-1.2-1.2-1.7c1.3-2,2.6-3.9,4-5.9
		c-0.3,0-0.6-0.1-1-0.1c0.6-2.9,1.1-5.9,1.8-8.8c0.1-0.3,1.7-0.3,2.6-0.4C100,63.8,100.2,66.3,100.3,68.3z"/>
	<path d="M115.7,32.6c-0.2,2.7-0.4,5.2-0.6,8c0.9,0.5,2.2,1.2,3.9,2.3c-2.8,4.4-6.5,5.6-11.8,5.7c1-1.8,1.7-2.9,2.1-4.1
		c0.6-1.8,1.3-3.6,1.3-5.4C110.8,35.8,110.2,32.5,115.7,32.6z"/>
	<path d="M95.5,47.5c0.2-2.4,0.3-4.9,0.8-7.3c0.2-0.7,1.9-1.6,2.7-1.4c0.7,0.2,1.6,1.8,1.5,2.7c-0.2,2.7-2.1,5.6,1.9,7.3
		c0.1,0.1-0.2,2.5-0.8,2.9c-2.6,1.4-5.5,2.4-8.2,3.6c-0.3-0.5-0.7-1-1-1.5c1.3-2,2.6-3.9,3.8-5.9C96,47.8,95.8,47.6,95.5,47.5z"/>
</g>
</svg>
