<?xml version="1.0" encoding="utf-8"?>
<!-- Generator: Adobe Illustrator 22.1.0, SVG Export Plug-In . SVG Version: 6.00 Build 0)  -->
<svg version="1.1" id="Layer_1" xmlns="http://www.w3.org/2000/svg" xmlns:xlink="http://www.w3.org/1999/xlink" x="0px" y="0px"
	 viewBox="0 0 534.9 587.9" style="enable-background:new 0 0 534.9 587.9;" xml:space="preserve">
<g>
	<path d="M263,440.7c-56.5,0-113,0-169.4,0c-19.4,0-35-10.7-42.7-28.3c-3.4-7.8-2.2-14.5,3.1-20.8c22-26.2,38.3-55.5,48.4-88.3
		c8-26.2,11.5-53,11.3-80.3c-0.1-18.8,0.2-37.6,5.2-56c15.4-56.6,65.3-100.2,123.2-107.8c83.8-10.9,150.8,45.7,166.8,120.5
		c3.3,15.6,3.3,31.4,3.4,47.2c0.1,37.8,7.6,74,23.6,108.4c8.8,19,19.8,36.6,33.2,52.6c5.7,6.9,7.1,14.3,4.6,22.8
		c-5.1,17.4-20.1,29.2-38.3,29.9c-2.8,0.1-5.7,0.1-8.5,0.1C372.3,440.7,317.7,440.7,263,440.7z"/>
	<path d="M262,462.2c12,0,24,0.1,36,0c9.1-0.1,16.4,3.1,20.9,11.1c4.5,8.1,2.8,16-2,23.6c-21.5,34.2-69.5,39.2-100.3,10.3
		c-3.5-3.3-6.6-7.1-9.5-10.9c-5-6.5-5.8-13.8-2.2-21.1c3.7-7.8,9.9-12.6,18.7-12.9C236.3,462,249.1,462.2,262,462.2L262,462.2z"/>
</g>
</svg>
