<?xml version="1.0" encoding="utf-8"?>
<!-- Generator: Adobe Illustrator 22.1.0, SVG Export Plug-In . SVG Version: 6.00 Build 0)  -->
<svg version="1.1" id="Capa_1" xmlns="http://www.w3.org/2000/svg" xmlns:xlink="http://www.w3.org/1999/xlink" x="0px" y="0px"
	 viewBox="0 0 670.4 609" style="enable-background:new 0 0 670.4 609;" xml:space="preserve">
<g>
	<g>
		<g>
			<path d="M630.1,0H40.3C18.1,0,0,18.1,0,40.3v528.5C0,591,18.1,609,40.3,609h589.9c22.2,0,40.3-18.1,40.3-40.3V40.3
				C670.4,18.1,652.4,0,630.1,0z M508.7,67.7c0-8.2,6.7-14.9,14.9-14.9h14.9c8.2,0,14.9,6.7,14.9,14.9v16.9
				c0,8.2-6.7,14.9-14.9,14.9h-14.9c-8.2,0-14.9-6.7-14.9-14.9V67.7z M439.5,67.7c0-8.2,6.7-14.9,14.9-14.9h14.9
				c8.2,0,14.9,6.7,14.9,14.9v16.9c0,8.2-6.7,14.9-14.9,14.9h-14.9c-8.2,0-14.9-6.7-14.9-14.9V67.7z M622.1,560.7H48.3V144.1h573.7
				V560.7L622.1,560.7z M622.5,84.5c0,8.2-6.7,14.9-14.9,14.9h-14.9c-8.2,0-14.9-6.7-14.9-14.9V67.7c0-8.2,6.7-14.9,14.9-14.9h14.9
				c8.2,0,14.9,6.7,14.9,14.9V84.5z"/>
			<path d="M143.9,368.1l107.8,50.1c2.8,1.3,5.8,1.9,8.8,1.9c4,0,7.9-1.1,11.3-3.3c6.1-3.9,9.7-10.5,9.7-17.7v-0.6
				c0-8.1-4.8-15.6-12.1-19L202,348.3l67.4-31.3c7.4-3.4,12.1-10.9,12.1-19v-0.5c0-7.2-3.6-13.8-9.7-17.7c-3.4-2.1-7.3-3.3-11.3-3.3
				c-3,0-6.1,0.7-8.8,1.9l-107.8,50.1c-7.4,3.4-12.1,10.9-12.1,19v1.5C131.8,357.2,136.5,364.7,143.9,368.1z"/>
			<path d="M282.5,470.2c3.9,5.4,10.3,8.6,16.9,8.6h0.5c9.1,0,17.2-5.9,20-14.6l71-220.1c2-6.4,0.9-13.4-3-18.8
				c-3.9-5.4-10.3-8.6-16.9-8.6h-0.5c-9.2,0-17.2,5.9-20,14.6l-71,220.1C277.4,457.9,278.6,464.9,282.5,470.2z"/>
			<path d="M388.9,298c0,8.1,4.8,15.6,12.1,19l67.4,31.3L401,379.7c-7.4,3.4-12.1,10.9-12.1,19v0.6c0,7.2,3.6,13.8,9.7,17.7
				c3.4,2.2,7.3,3.3,11.3,3.3c3.1,0,6-0.7,8.8-2l107.8-50.1c7.4-3.4,12.1-10.9,12.1-19v-1.5c0-8.1-4.8-15.6-12.1-19l-107.8-50.1
				c-2.7-1.3-5.8-1.9-8.8-1.9c-4,0-7.9,1.1-11.3,3.3c-6.1,3.9-9.7,10.5-9.7,17.7L388.9,298L388.9,298L388.9,298z"/>
		</g>
	</g>
</g>
</svg>
