<?xml version="1.0" encoding="utf-8"?>
<!-- Generator: Adobe Illustrator 22.1.0, SVG Export Plug-In . SVG Version: 6.00 Build 0)  -->
<svg version="1.1" id="Layer_1" xmlns="http://www.w3.org/2000/svg" xmlns:xlink="http://www.w3.org/1999/xlink" x="0px" y="0px"
	 viewBox="0 0 512 512" style="enable-background:new 0 0 512 512;" xml:space="preserve">
<style type="text/css">
	.st0{fill:#FFFFFF;}
</style>
<g>
	<path d="M462,512c-7.8-2.5-12.6-8-16.1-15.3c-10.8-22.3-22-44.4-32.9-66.7c-1.6-3.4-3.9-5.5-7.2-7c-11.1-5.1-22.2-10.5-33.5-15.9
		c-6.6,13.6-14.8,25.7-25.2,36.2c-19.2,19.4-42.4,31.3-69.1,36.4c-5.2,1-6,0.3-6-5.2c0-103.5,0-207,0-310.4
		c0-7.7,2.5-10.3,10.1-10.3c16.7,0,33.3,0.3,50-0.2c6.7-0.2,11.8,2.2,15.6,7.2c5.4,7,10.4,14.2,15.9,21.9c2.5-1,5.5-2.2,8.6-3.4
		c16.1-6.4,32.2-12.7,48.2-19.3c2.2-0.9,4.4-3,5.5-5.1c8.9-18.4,17.6-37,26.4-55.4c3.9-8.2,11.3-12.5,19.7-11.9
		c8.2,0.6,15.5,5.6,17.3,13.6c1.1,4.6,1.2,10.3-0.7,14.5c-10.1,22.6-20.9,44.9-31.5,67.3c-2.6,5.4-7.1,8.6-12.6,10.8
		c-20.4,8-40.8,16.2-61.2,24.3c-1.7,0.7-3.3,1.4-4.8,2c2.2,15.2,4.4,30.1,6.7,45.7c10.1,0.7,21,1.5,31.9,2.3c8,0.6,16,0.7,23.9,2
		c4.3,0.7,9.2,2.7,12.3,5.6c17.8,16.8,35.2,34.1,52.5,51.4c2.7,2.7,4.2,6.6,6.3,10c0,3,0,6,0,9c-0.2,0.2-0.6,0.4-0.7,0.7
		c-4,15.1-23.5,19.9-35.5,7c-13.4-14.3-27.9-27.8-42.1-41.3c-1.9-1.8-5-3.1-7.7-3.4c-9.9-1-19.9-1.5-29.9-2.2
		c-3.9-0.3-7.8-0.5-12.1-0.8c0,2.8,0,5,0,7.1c-0.1,16.8-0.1,33.7-0.5,50.5c-0.1,3.4,0.6,5,3.6,6.4c15.5,7.3,31.1,14.5,46.3,22.3
		c3.9,2,7.9,5.5,9.9,9.3c14,27.2,27.5,54.7,40.9,82.2c4.9,10.1,0.4,21.6-9.8,26.5c-1.2,0.5-2.3,1.2-3.4,1.8C468,512,465,512,462,512
		z"/>
	<path d="M0,337c3.5-4.8,6.4-10,10.5-14.2c14.7-15,30-29.4,44.7-44.3c5.9-6,12.4-8.9,20.7-9.3c16.1-0.8,32.2-2.1,48.4-3.2
		c1-0.1,2-0.2,2.5-0.2c2.4-15.7,4.7-31,7.1-47.2c-0.8-0.3-2.4-1-4-1.7c-19.2-7.6-38.3-15.4-57.5-22.8c-7-2.7-11.6-7.1-14.7-13.9
		c-9.8-21.3-20-42.4-30-63.7c-3.6-7.6-2.9-15,2.4-21.6c5-6.3,11.9-8.4,19.7-6.8c6.9,1.4,11.4,5.7,14.3,12
		c8.5,18.2,17.2,36.4,25.9,54.6c0.9,1.9,2.5,4.2,4.4,4.9c17.8,7.3,35.8,14.4,53.7,21.5c0.4,0.2,1,0.2,1.4,0.2
		c4.4-6.2,8.5-12.3,13-18.3c4.7-6.4,10.8-9.5,19.2-9.2c16,0.6,32,0.1,48,0.2c7.7,0,10.3,2.6,10.3,10.1c0,103.5,0,206.9,0,310.4
		c0,5.5-1,6.3-6.6,5.2c-40.6-8-70.8-30.2-90.7-66.4c-1-1.9-2-3.8-3.2-6c-12.4,6-24.7,11.8-36.9,17.8c-1.5,0.8-2.6,2.9-3.4,4.6
		c-11.1,22.3-22.3,44.6-33.2,67.1c-3.5,7.3-8.3,12.7-16,15.3c-3,0-6,0-9,0c-1-0.5-1.9-1.2-2.9-1.6c-11.1-5.1-15.2-17-9.7-28
		c13-26.1,26-52.1,38.8-78.3c2.9-6,7.1-10.2,13.2-13c15.1-7,30.1-14.3,45-21.6c1.4-0.7,3.2-2.7,3.2-4c0-18.2-0.3-36.3-0.5-54.5
		c0-1.6,0-3.2,0-5.2c-14,1-27.2,2.2-40.5,2.8c-4.5,0.2-7.6,1.9-10.8,5c-14,14-28.2,27.9-42.4,41.7c-10.8,10.4-27,7-33-6.7
		c-0.4-0.9-0.9-1.7-1.3-2.6C0,343,0,340,0,337z"/>
	<path d="M262,0c8.8,1.9,16.1,6.8,23.4,11.8c9.6,6.6,19.5,12.8,29,19.4c13.9,9.7,21.2,23.1,21.5,40.1c0.2,13.5,0.1,27,0,40.5
		c0,7.1-2.9,10-10,10c-46.6,0-93.3,0-139.9,0c-7.2,0-10-2.9-10-10c0-14-0.3-28,0.1-42c0.5-15.6,7.3-28.4,19.8-37.5
		c13-9.3,26.4-18,39.9-26.6c4.3-2.7,9.4-3.9,14.2-5.8C254,0,258,0,262,0z"/>
	<path class="st0" d="M471,512c1.1-0.6,2.2-1.3,3.4-1.8c10.2-4.9,14.8-16.4,9.8-26.5c-13.4-27.5-27-55-40.9-82.2
		c-2-3.8-6-7.3-9.9-9.3c-15.2-7.8-30.8-15.1-46.3-22.3c-3-1.4-3.7-3-3.6-6.4c0.5-16.8,0.4-33.6,0.5-50.5c0-2.1,0-4.3,0-7.1
		c4.3,0.3,8.2,0.6,12.1,0.8c10,0.7,20,1.2,29.9,2.2c2.7,0.3,5.8,1.6,7.7,3.4c14.2,13.6,28.6,27,42.1,41.3c12.1,12.9,31.6,8,35.5-7
		c0.1-0.3,0.5-0.4,0.7-0.7c0,55.3,0,110.7,0,166C498.3,512,484.7,512,471,512z"/>
</g>
</svg>
