<?xml version="1.0" encoding="windows-1252"?>
<!-- Generator: Adobe Illustrator 16.0.0, SVG Export Plug-In . SVG Version: 6.00 Build 0)  -->
<!DOCTYPE svg PUBLIC "-//W3C//DTD SVG 1.1//EN" "http://www.w3.org/Graphics/SVG/1.1/DTD/svg11.dtd">
<svg version="1.1" id="Capa_1" xmlns="http://www.w3.org/2000/svg" xmlns:xlink="http://www.w3.org/1999/xlink" x="0px" y="0px" width="510.375px" height="510.375px" viewBox="0 0 510.375 510.375" style="enable-background:new 0 0 510.375 510.375;" xml:space="preserve">
<g>
	<path d="M415.188,255.187c0,88.344-71.656,160-160,160c-88.375,0-160-71.656-160-160c0-88.375,71.625-160,160-160   C343.531,95.187,415.188,166.812,415.188,255.187z M271.188,64c93.125,7.75,167.469,82.063,175.188,175.188h64   C502.406,110.625,399.75,7.968,271.188,0V64z M64,239.187C71.75,146.062,146.062,71.75,239.187,64V0   C110.625,7.968,7.968,110.625,0,239.187H64z M239.187,446.375C146.062,438.656,71.75,364.312,64,271.188H0   C7.968,399.75,110.625,502.406,239.187,510.375V446.375z M446.375,271.188c-7.719,93.125-82.062,167.469-175.188,175.188v64   c128.562-7.969,231.219-110.625,239.188-239.188H446.375z"/>
</g>
<g>
</g>
<g>
</g>
<g>
</g>
<g>
</g>
<g>
</g>
<g>
</g>
<g>
</g>
<g>
</g>
<g>
</g>
<g>
</g>
<g>
</g>
<g>
</g>
<g>
</g>
<g>
</g>
<g>
</g>
</svg>