<?xml version="1.0" encoding="utf-8"?>
<!-- Generator: Adobe Illustrator 22.1.0, SVG Export Plug-In . SVG Version: 6.00 Build 0)  -->
<svg version="1.1" id="Layer_1" xmlns="http://www.w3.org/2000/svg" xmlns:xlink="http://www.w3.org/1999/xlink" x="0px" y="0px"
	 viewBox="0 0 1181.9 1181.9" style="enable-background:new 0 0 1181.9 1181.9;" xml:space="preserve">
<style type="text/css">
	.st0{fill:#FFFFFF;}
</style>
<g>
	<path d="M0,1055.3C0,776,0,496.8,0,217.5c0.2-1.1,0.6-2.2,0.7-3.3c1.3-14.7,4.7-28.9,11.1-42.1c25.5-52.8,67.8-79.9,126.3-81.2
		c28.4-0.6,56.7-0.1,85.1-0.1c1.2,0,2.4,0,4.1,0c0,1.8,0,3.3,0,4.8c0,29.2-0.3,58.5,0.1,87.7c0.3,23.4,8.6,44,24.8,60.9
		c30,31.2,74.9,37.7,112.1,15.8c27.3-16.1,43-40.7,44.3-72.6c1.3-30.4,0.4-61,0.5-91.5c0-1.6,0-3.2,0-4.9c121.4,0,242.3,0,363.6,0
		c0,1.7,0,3.2,0,4.7c0,27.9-0.1,55.7,0.1,83.6c0,6.5,0.4,13.1,1.7,19.4c8.7,42.8,42.5,72,86.2,73.8c27,1.1,50.2-8.6,68.9-28.1
		c17.1-17.9,25.1-39.5,25.1-64.2c0-28.2,0-56.5,0-84.7c0-1.4,0-2.9,0-4.5c1.3-0.1,2-0.1,2.7-0.1c29.5,0,59-0.1,88.5,0.1
		c25.8,0.2,50,6.6,71.6,20.7c42.5,27.6,64.3,67.2,64.3,117.8c0.2,271.2,0.1,542.5,0,813.7c0,9.3-0.7,18.8-2.5,27.9
		c-12.6,64.9-68.3,110.8-134.4,110.8c-302.6,0.1-605.2,0-907.8,0c-14.6,0-28.9-1.9-42.7-6.7c-47.7-16.9-78.2-49.7-90.6-98.9
		C1.9,1069.3,1.2,1062.2,0,1055.3z M90.9,409.4c0,1.7,0,3.2,0,4.7c0,209.9,0,419.7,0,629.6c0,27.5,19.7,47.3,47.2,47.3
		c301.7,0,603.5,0,905.2,0c3.5,0,7-0.1,10.4-0.8c22.6-4.5,37.2-22.7,37.2-46.3c0-210.1,0-420.2,0-630.3c0-1.3-0.1-2.7-0.2-4.1
		C757.3,409.4,424.2,409.4,90.9,409.4z"/>
	<path d="M909,113.6c0,22.7,0,45.5,0,68.2c0,25.1-20.4,45.5-45.5,45.4c-24.8,0-45.2-20.5-45.2-45.4c0-45.5,0-91,0-136.5
		c0-23.9,19-44.2,42.5-45.4c24.3-1.3,45.4,16.5,48.1,40.4c0.2,1.6,0.1,3.2,0.1,4.9C909,68.1,909,90.9,909,113.6z"/>
	<path d="M272.8,113.6c0-22.7-0.1-45.5,0-68.2C273,19.9,293.4-0.2,318.7,0c24.1,0.2,44.7,20.1,44.8,44.3c0.3,46.2,0.3,92.5,0,138.7
		c-0.1,23.1-19.4,42.8-42.2,44.2c-23.8,1.4-45-15.7-48.2-39c-0.4-2.7-0.4-5.5-0.4-8.2C272.8,157.9,272.8,135.7,272.8,113.6z"/>
	<path d="M640,746c-5.8-3.1-11.3-5.8-16.5-8.9c-33.5-19.7-47.7-49.5-44.7-87.8c3.3-42.1,27-69.5,64.1-87c19.4-9.1,40-13.9,61.2-16.4
		c19.8-2.3,39.6-3.2,59.5-1.5c24,2,47.5,6.3,69.3,17.2c20.2,10.1,37.1,24.1,47.1,44.9c8.5,17.5,9.9,36.2,8.4,55.3
		c-2.7,33.5-20.5,57-48.9,73.5c-5.7,3.3-11.6,6.3-17.7,9.6c7.4,2.4,14.4,4.6,21.3,7c35.5,12.5,56,42.1,54.2,79.6
		c-2.6,52.3-29.3,88-76.8,108.8c-20.1,8.8-41.4,13-63,15.7c-23.3,2.9-46.6,3.1-69.9,0.7c-32.2-3.3-63-10.7-90.1-29.4
		c-30.6-21.2-42.9-50.9-40.4-87.3c1.6-23.5,9.9-44.2,25.8-61.7c11.6-12.8,26-21.2,42.1-27C629.9,749.7,634.7,747.9,640,746z
		 M729.8,785.2c-10.7,0.1-20.9,1.5-30.5,6c-17.1,8.2-26.9,25-25.7,44.1c1.1,17.8,12.2,31.6,30.4,37.8c10.7,3.6,21.7,4.3,32.9,2.9
		c27.9-3.6,45.7-24.9,44-52.8c-0.9-14.7-8.3-25.3-21.4-31.9C750,786.6,739.9,785.4,729.8,785.2z M736.7,624.8c-1.4,0-2.8-0.1-4.1,0
		c-16.5,1-30.4,6.9-39.6,21.3c-13.1,20.4-7.2,52.1,22.6,59.7c3.3,0.8,6.6,1.6,9.9,1.9c17.6,1.5,33.2-2.7,45.7-15.9
		c14.2-14.8,16.7-48.3-9.1-61.5C754.1,626.2,745.5,624.8,736.7,624.8z"/>
	<path d="M483.4,551.4c-9.7,133-18.8,265.8-21.3,399.2c-42.7,0-85.7,0-129.1,0c6.8-96.7,12.9-193.5,16.3-290.4
		c-0.4-0.3-0.8-0.6-1.2-0.9c-21.3,14.7-42.7,29.3-64.4,44.3c0.2-2.3,0.4-4.5,0.5-6.6c1.4-32.3,2.8-64.7,4-97c0.1-2.9,1-4.4,3.4-5.9
		c22.1-13.2,44.6-25.7,64.8-41.7c1-0.8,2.5-1.2,3.7-1.2c40.7-0.1,81.5,0,122.2,0C482.6,551.3,482.9,551.4,483.4,551.4z"/>
	<path class="st0" d="M729.8,785.2c10.1,0.1,20.2,1.3,29.6,6c13.1,6.6,20.5,17.1,21.4,31.9c1.7,28-16.1,49.3-44,52.8
		c-11.2,1.4-22.2,0.8-32.9-2.9c-18.2-6.2-29.3-19.9-30.4-37.8c-1.2-19.1,8.6-35.9,25.7-44.1C708.9,786.7,719.1,785.3,729.8,785.2z"
		/>
	<path class="st0" d="M736.7,624.8c8.8,0,17.4,1.4,25.4,5.4c25.8,13.2,23.3,46.6,9.1,61.5c-12.6,13.1-28.2,17.3-45.7,15.9
		c-3.3-0.3-6.7-1-9.9-1.9c-29.8-7.6-35.7-39.3-22.6-59.7c9.2-14.4,23.1-20.3,39.6-21.3C733.9,624.8,735.3,624.8,736.7,624.8z"/>
</g>
</svg>
