<?xml version="1.0" encoding="utf-8"?>
<!-- Generator: Adobe Illustrator 22.1.0, SVG Export Plug-In . SVG Version: 6.00 Build 0)  -->
<svg version="1.1" id="Layer_1" xmlns="http://www.w3.org/2000/svg" xmlns:xlink="http://www.w3.org/1999/xlink" x="0px" y="0px"
	 viewBox="0 0 980 858" style="enable-background:new 0 0 980 858;" xml:space="preserve">
<g>
	<path d="M980,158c-5.3,20.3-10.8,40.5-15.9,60.8c-24.5,98.7-48.9,197.3-73.4,296c-1.2,4.8-2.5,9.6-3.8,14.4
		c-3.3,11.8-13.7,20.7-25.8,21.9c-3.3,0.3-6.7,0.4-10,0.4c-168.7,0-337.3,0-506,0c-2.3,0-4.6,0-7.3,0c4.6,18.7,9.1,36.6,13.5,54.5
		c2.7,11,5.7,21.9,8.2,32.9c0.8,3.5,2.2,4.5,5.7,4.4c17.8-0.2,35.7-0.1,53.5-0.1c137.3,0,274.6,0,412,0c9.7,0,18.6,1.9,25.5,9.2
		c8.6,9,11.2,19.7,7.2,31.4c-4,11.7-12.5,18.6-24.9,20.4c-2.6,0.4-5.3,0.5-8,0.5c-163.3,0-326.6,0-490,0c-18.2,0-29.5-8.1-33.6-24.4
		c-11-43.5-22-87.1-32.9-130.7C233.9,388.8,193.8,228,153.8,67.2c-1.1-4.3-2.7-5.8-7.3-5.8c-36.5,0.2-73-0.2-109.5,0.3
		C20.2,61.9,5.9,56.7,0,36c0-3.7,0-7.3,0-11c2.5-4.7,4.6-9.8,7.7-14.1C12.3,4.4,19.7,2.1,27,0c51,0,102,0,153,0
		c0.4,0.3,0.8,0.7,1.2,0.8c13.5,2.7,21.6,11,24.9,24.2c7.6,30.2,15.3,60.3,22.9,90.5c1.9,7.4,1.8,7.4,9.2,7.4c235,0,469.9,0,704.9,0
		c2.3,0,4.7,0,7,0c10.4,0.3,18.7,4.7,24.4,13.4c2.5,3.8,3.7,8.4,5.5,12.7C980,152,980,155,980,158z M909.5,184.3
		c-41.3,0-81.9,0-122.9,0c-4.9,40.8-9.7,81.3-14.6,121.9c1,0.3,1.5,0.5,2,0.5c34,0,68,0,102,0.1c3.3,0,3.7-1.8,4.3-4.3
		c6.2-25.2,12.5-50.4,18.8-75.5C902.4,212.9,905.9,198.9,909.5,184.3z M382.7,306.4c-5.3-41.2-10.4-81.7-15.6-122.2
		c-40.4,0-80.5,0-120.8,0c0.2,1.1,0.4,1.9,0.6,2.7c9.7,38.7,19.4,77.4,28.9,116.2c0.9,3.8,3.2,3.5,5.8,3.5c32,0,64,0,95.9,0
		C379,306.7,380.5,306.5,382.7,306.4z M547.1,184.3c-39.5,0-78.8,0-118.1,0c0.1,1.5,0.1,2.6,0.3,3.8c4.9,37.8,9.8,75.6,14.5,113.4
		c0.5,4,1.7,5.2,5.8,5.2c30.8-0.2,61.6-0.1,92.5-0.1c1.6,0,3.2,0,5.1,0C547.1,265.5,547.1,225.1,547.1,184.3z M710.2,306.4
		c4.9-40.9,9.8-81.4,14.7-122c-39.1,0-77.7,0-116,0c0,40.8,0,81.2,0,122C642.7,306.4,676.1,306.4,710.2,306.4z M833.7,490
		c10.1-40.8,20.1-81.2,30.2-121.7c-1.1-0.2-1.6-0.3-2.1-0.3c-31.2,0-62.3,0.1-93.5-0.1c-4.1,0-4,2.2-4.3,5
		c-3.5,29.4-7.1,58.9-10.6,88.3c-1.1,9.5-2.2,19.1-3.4,28.9C778,490,805.6,490,833.7,490z M292.4,368.2c0,0.6-0.1,1.1,0,1.6
		c9.7,39.1,19.5,78.1,29.1,117.2c0.9,3.6,2.9,3.4,5.4,3.3c24.8,0,49.6,0,74.5,0c1.4,0,2.9-0.2,4.7-0.3
		c-5.2-40.8-10.4-81.2-15.6-121.8C357.6,368.2,325.1,368.2,292.4,368.2z M547.1,368.2c-31.9,0-63.1,0-94.7,0
		c5.2,40.8,10.4,81.2,15.6,121.6c26.7,0,52.9,0,79.1,0C547.1,449.1,547.1,408.8,547.1,368.2z M609,368.1c0,40.9,0,81.3,0,121.8
		c26.6,0,52.8,0,79.2,0c4.9-40.7,9.7-81.1,14.6-121.8C671.3,368.1,640.4,368.1,609,368.1z"/>
	<path d="M761,858c-7.1-2.1-14.7-3.2-21.4-6.3c-26.7-12.3-40.3-41.2-33.5-69.8c6.4-27.1,31.9-47,59.9-46.8
		c28.7,0.2,53.6,20.7,59.6,49c7.3,34.3-17,68.5-51.8,73c-1.3,0.2-2.6,0.6-3.9,0.9C767,858,764,858,761,858z"/>
	<path d="M386,858c-7.3-2.1-15-3.4-21.8-6.5c-25.4-11.8-39.2-39.7-33.8-66.5c5.6-28,29.1-48.3,57.4-49.8c33-1.7,60.9,23.5,63.9,57.7
		c2.7,30.8-21.6,60.2-52.8,64.2c-1.3,0.2-2.6,0.6-3.8,0.9C392,858,389,858,386,858z"/>
</g>
</svg>
