<?xml version="1.0" encoding="utf-8"?>
<!-- Generator: Adobe Illustrator 22.1.0, SVG Export Plug-In . SVG Version: 6.00 Build 0)  -->
<svg version="1.1" id="Layer_1" xmlns="http://www.w3.org/2000/svg" xmlns:xlink="http://www.w3.org/1999/xlink" x="0px" y="0px"
	 viewBox="0 0 980.1 822" style="enable-background:new 0 0 980.1 822;" xml:space="preserve">
<g>
	<path d="M980.1,22c0,203,0,406,0,609c-5.5,11.2-13.6,19.3-26.3,21.5c-5.2,0.9-10.6,1.3-15.9,1.3c-110.8-0.1-221.6-0.2-332.4-0.4
		c-7.6,0-15.2,0-23.4,0c0.7,9.3,1.4,17.9,2,26.5c1.1,15.6,1.7,31.3,3.1,46.9c2.2,24.4,15,42.1,36,54.3c12.1,7,24,14.3,35.8,21.8
		c5.8,3.7,8.4,9.3,6.8,13.3c-2.3,5.8-7.6,5.8-12.7,5.8c-18.7,0-37.3,0-56,0c-91,0-182,0-273,0c-3.8,0-7.4-0.3-9.2-4.5
		c-1.8-4.3-1.1-8.3,2.1-11.6c2.2-2.2,4.8-4.1,7.5-5.7c12.6-7.7,25.5-15.1,38-23c17.4-10.9,27.7-26.7,29.6-47.3
		c2.2-24.2,3.9-48.5,5.8-72.7c0.1-1.1-0.2-2.2-0.3-3.6c-2.6,0-4.9,0-7.3,0c-116.5,0-233,0-349.4,0c-4.5,0-9-0.2-13.5-0.7
		c-15-1.6-24.1-10-26.4-24.8c-0.8-4.7-1-9.6-1-14.4C0,422.1,0,230.5,0,38.8c0-2.3,0-4.7,0.1-7c0.7-17.9,9.8-28.2,27.6-31
		c0.8-0.1,1.6-0.5,2.3-0.8c306.3,0,612.7,0,919,0c1.3,0.3,2.5,0.8,3.8,1c10.3,2,18.5,7.1,24,16.1C977.9,18.8,979,20.4,980.1,22z
		 M46.9,581.3c295.6,0,590.8,0,886.2,0c0-171.4,0-342.5,0-513.8c-295.5,0-590.7,0-886.2,0C46.9,239,46.9,410,46.9,581.3z"/>
	<path d="M779.5,459.2c-42.9,28.1-115.4,30.5-169.3-11.4C555,405,534.9,331.9,561,267.5c25.9-64,87.4-96.8,134-95.8
		c0,1.9,0,3.8,0,5.8c0,46.5,0.1,93,0.1,139.5c0,7.4,1.9,14,6,20.2c24.9,38.5,49.6,77,74.3,115.5C776.6,454.8,778,456.9,779.5,459.2z
		"/>
	<path d="M804.2,459.8c-26.7-41.4-53.4-82.8-80.3-124.5c41.6-31.2,83.1-62.2,124.5-93.2C889.6,299.1,880.5,407.6,804.2,459.8z"/>
	<path d="M324.5,282.8c30-34.1,59.8-67.9,90.5-102.7c-2.5-0.1-4-0.3-5.5-0.3c-10.7,0-21.3,0.2-32,0c-8-0.1-12-3.5-12.6-9.9
		c-0.5-5.3,1.4-8.7,6.7-10.2c3.3-0.9,6.9-1.3,10.3-1.3c17.2-0.1,34.3-0.1,51.5-0.1c1.5,0,3,0,4.5,0.2c9.2,0.8,12,3.6,12.1,12.9
		c0.1,20.2,0.1,40.3,0.1,60.5c0,4.7-1.3,9-6.1,11.1c-7.3,3.1-14.6-1.2-14.9-9.4c-0.4-9.8-0.2-19.7-0.2-29.5c0-1.8,0-3.6,0-7
		c-3,3.2-5,5.2-6.9,7.4c-26.4,29.9-52.7,59.7-79,89.6c-2.5,2.9-5,5.8-7.7,8.5c-6.7,7-10.4,7.5-18.1,1.7
		c-8.5-6.4-16.8-13.2-25.1-19.8c-19.7-15.7-39.3-31.4-59.4-47.4c-2.9,2.6-5.8,5-8.5,7.6c-31.4,29.6-62.8,59.2-94.3,88.7
		c-3,2.8-6.5,5.1-10.2,6.8c-3.6,1.7-6.9-0.1-9-3.4c-2.7-4.2-1.4-13.8,2.2-17.2c28.9-27.1,57.8-54.3,86.8-81.4
		c7.4-7,14.8-14,22.3-20.8c8-7.3,11-7.4,19.5-0.7c24.5,19.5,49,39.1,73.4,58.6C317.9,277.7,321.1,280.1,324.5,282.8z"/>
	<path d="M386,383.8c0-26.2,0-52.3,0-78.5c0-2.5-0.1-5,0.2-7.5c0.7-7.1,3.6-10.5,10.8-10.7c14.1-0.4,28.3-0.3,42.5,0
		c6.5,0.1,9.5,3.5,10.4,10c0.3,2.1,0.2,4.3,0.2,6.5c0,53.3,0,106.6,0,159.9c0,1.8,0,3.7-0.1,5.5c-0.7,6.7-3.3,10.2-9.9,10.5
		c-14.8,0.5-29.6,0.5-44.4,0c-6.7-0.2-9.4-4.3-9.5-11.7c-0.1-14.5-0.1-29-0.1-43.5C386,410.8,386,397.3,386,383.8
		C386,383.8,386,383.8,386,383.8z"/>
	<path d="M716.5,314.6c0-2.8,0-4.3,0-5.8c0-48,0.1-95.9-0.1-143.9c0-4.6,1.3-6,5.9-5.9c18.2,0.6,35,6.1,51.2,13.8
		c22,10.4,42,23.7,57.7,42.7c1.4,1.7,2.6,3.4,3.9,5.2c0.7,0.9,1.2,1.9,2.2,3.4C797.3,254.1,757.4,284,716.5,314.6z"/>
	<path d="M264.3,399.6c0,21,0,42,0,62.9c0,2.7,0,5.3-0.3,8c-0.5,4.8-3,8.2-8.1,8.7c-4.5,0.5-8.9,0.7-13.4,0.7
		c-9.8,0.1-19.7,0.2-29.5-0.1c-9.3-0.2-12.7-3.6-12.7-12.9c-0.1-45-0.1-89.9,0-134.9c0-9.3,3.4-12.6,12.8-12.8
		c12.8-0.2,25.6-0.2,38.5,0c9.3,0.2,12.6,3.6,12.6,12.9c0.1,22.5,0,45,0,67.4C264.2,399.6,264.2,399.6,264.3,399.6z"/>
	<path d="M357.4,415.5c0,16.5,0.1,33,0,49.5c-0.1,11.5-3.6,15-14.9,15c-11.7,0-23.3,0-35-0.1c-10.9-0.1-14.4-3.6-14.5-14.4
		c0-33.1,0-66.3,0-99.4c0-11.1,2.7-14.1,13.7-14.4c12.3-0.3,24.7-0.3,37,0c10.9,0.3,13.6,3.3,13.7,14.4
		C357.5,382.5,357.4,399,357.4,415.5z"/>
	<path d="M171.8,432c0,11,0,22,0,32.9c-0.1,11.4-3.6,15-14.9,15.1c-11.6,0-23.3,0-34.9,0c-11.2-0.1-14.6-3.4-14.7-14.7
		c-0.2-22.8-0.2-45.6-0.1-68.4c0-9.3,3.8-13,13.1-13.1c12.5-0.1,25-0.1,37.4,0c10.3,0.1,14,3.8,14.1,14.3
		C171.9,409.3,171.8,420.7,171.8,432z"/>
</g>
</svg>
