<?xml version="1.0" encoding="utf-8"?>
<!-- Generator: Adobe Illustrator 22.1.0, SVG Export Plug-In . SVG Version: 6.00 Build 0)  -->
<svg version="1.1" id="Layer_1" xmlns="http://www.w3.org/2000/svg" xmlns:xlink="http://www.w3.org/1999/xlink" x="0px" y="0px"
	 viewBox="0 0 512 403.1" style="enable-background:new 0 0 512 403.1;" xml:space="preserve">
<g>
	<path d="M0,398.8c0.2-2.5,0.5-5,0.5-7.4c0.1-35.8-0.3-71.7,0.3-107.5c0.5-34,16.7-58.9,46.5-74.9c19.6-10.6,41.1-14.4,63.1-15
		c22.3-0.6,44.7-0.3,67-0.1c1.9,0,4.6,1.7,5.7,3.4c6.2,9.6,12.1,19.5,18.1,29.3c0.5,0.8,1.1,1.6,2,2.9c6.7-10.9,13.2-21.3,19.4-31.8
		c1.8-3,3.7-4,7.1-4c19.8,0.2,39.7-0.1,59.5,0.1c25.6,0.3,50.4,4.2,73.1,17.2c4.7,2.7,9.1,6,13.4,8.9
		c-22.6,22.5-44.9,44.7-67.5,67.1c-0.3-0.3-1.5-1.3-3.2-2.7c-4.3,9.9-8.5,19.4-12.7,28.9c-5.3,12-10.3,24.2-15.8,36.1
		c-5.5,11.8-11.8,23.3-17.4,35.1c-2.3,4.7-3.7,9.8-5.6,15.2c-52.7,0-106.2,0-160.1,0c0-33.2,0-66.4,0-100c-7.6,0-14.6,0-22.1,0
		c0,33.3,0,66.4,0,100.1c-24,0-47.5,0-71.1,0C0,399.5,0,399.2,0,398.8z"/>
	<path d="M512,220.8c-6.5,6.6-13.1,13.2-19.6,19.9c-2.7,2.7-5,2.6-7.7-0.1c-15.4-15.5-30.8-30.9-46.3-46.2c-3.1-3.1-2.8-5.5,0.2-8.4
		c5.5-5.3,11-10.7,16.2-16.3c3.3-3.5,5.8-3.3,9.2,0.1c15.9,16.1,32,32,48,48C512,218.8,512,219.8,512,220.8z"/>
	<path d="M287.1,83.6c-0.1,46.2-37.5,83.4-83.8,83.2c-45.8-0.1-83.2-37.8-83-83.6c0.2-46.1,37.8-83.5,83.8-83.3
		C250.1,0.2,287.2,37.7,287.1,83.6z"/>
	<path d="M362.1,335.8c-5.6-5.6-11.6-11.7-17.2-17.3c34-34.1,68.1-68.4,101.9-102.4c5.9,5.9,11.8,11.8,17.4,17.4
		C430.5,267.3,396.2,301.6,362.1,335.8z"/>
	<path d="M317.7,307.3c18.2,18,35.9,35.6,54,53.4c-1.3,0.7-2.3,1.5-3.4,2c-15.2,6.7-30.5,13.2-45.7,20c-2.4,1.1-3.8,0.8-5.6-1.1
		c-6.5-6.7-13.2-13.2-19.7-19.9c-1-1-1.8-3.3-1.3-4.4C303.1,340.7,310.4,324.2,317.7,307.3z"/>
	<path d="M334.5,308.2c-3.3-3-6.3-5.8-8.7-8c34.3-34.6,68.4-69,102.6-103.5c3,3.1,5.8,6,8.4,8.6
		C402.7,239.6,368.6,273.9,334.5,308.2z"/>
	<path d="M475.9,243.8c1.9,2,4.1,4.2,6,6.2c-34.3,34.3-68.6,68.5-103,102.9c-1.5-1.9-3.5-4.5-5.3-6.8
		C407.1,312.6,441.4,278.3,475.9,243.8z"/>
	<path d="M312,387.6c-1,1-1.9,2.8-3.4,3.4c-8.9,4.1-17.9,8-26.9,11.8c-1.4,0.6-3.9,0.3-4.8-0.7c-0.9-1-1.2-3.5-0.6-4.9
		c3.7-9.1,7.7-18,11.7-27c1.2-2.8,3.8-4,6-2c5.9,5.3,11.4,11.1,17,16.8C311.3,385.5,311.4,386.3,312,387.6z"/>
</g>
</svg>
