<?xml version="1.0" encoding="utf-8"?>
<!-- Generator: Adobe Illustrator 22.1.0, SVG Export Plug-In . SVG Version: 6.00 Build 0)  -->
<svg version="1.1" id="Layer_1" xmlns="http://www.w3.org/2000/svg" xmlns:xlink="http://www.w3.org/1999/xlink" x="0px" y="0px"
	 viewBox="0 0 405 499" style="enable-background:new 0 0 405 499;" xml:space="preserve">
<g>
	<path d="M354,499c-86.7,0-173.3,0-260,0c-0.8-0.2-1.6-0.6-2.4-0.7c-30.4-4.9-48.7-26.2-48.7-56.8c0-16.7,0-33.3,0-50
		c0-1.8,0-3.5,0-5.7c7.2,0,13.8,0.6,20.2-0.1c11.5-1.3,17.6-10.4,17.5-24.5c-0.2-15.1-8.2-23.1-23.2-23.1c-4.8,0-9.5,0-14.2,0
		c0-19.9,0-39.1,0-58.8c5.7,0,11.2,0,16.6,0c6.6,0,12.2-2.3,16.1-7.6c6.5-8.9,6.2-19,2.4-28.5c-3.6-8.9-11.5-11.9-20.8-11.8
		c-4.8,0.1-9.5,0-14.2,0c0-20.8,0-40.8,0-61.3c6.2,0,12.1,0.2,17.9,0c8.5-0.3,15.6-5.4,18-13.5c1.2-3.9,1.4-8.2,1.3-12.3
		c-0.2-13.9-8.4-21.9-22.3-22c-4.9-0.1-9.9,0-15.3,0c0-2.3,0-3.9,0-5.5c0-20.2,0-40.3,0-60.5C43,23.6,66.6,0.1,99.4,0
		c83-0.1,166,0,249,0c4.8,0,9.7,0.4,14.3,1.6C388.5,7.8,405,29.4,405,56.9c0,128.3,0,256.6,0,384.9c0,1.3,0,2.7-0.1,4
		c-0.9,16.9-7.9,30.7-21.2,41.3C375,494.1,364.7,497.1,354,499z M293.1,324.4c14.8,1.2,29.4-5.9,41-19.6c5.7-6.8,9-14.7,9-23.8
		c0-3.4-1.2-5.2-4.3-6.9c-14.3-8.1-28.5-16.4-42.6-25c-3.6-2.2-6.5-2.3-9.4,0.4c-3.4,3.2-6.7,6.5-9.8,10c-12,13.4-21.2,15.2-37,6.5
		c-25.3-14-43.9-34.4-56.6-60.2c-7.2-14.6-4.8-23.9,7.7-34.3c3.8-3.2,7.5-6.5,11.1-10c2.8-2.8,2.9-5.7,0.7-9.4
		c-7.8-13.5-15.3-27.2-22.7-41c-3.5-6.6-4.8-7.6-12.3-6.6c-17.5,2.3-35,18.5-38.9,36.5c-2.6,12.2-2.7,24.5,0.4,36.6
		c8.3,33.7,24.4,63,48.4,88.2c16.5,17.3,34.3,32.5,56.1,42.6C251.7,316.6,269.6,324.3,293.1,324.4z M265.8,448c0-22.7,0-44.7,0-66.7
		c-9,0-17.6,0-26.4,0c-2.9,11.2-5.8,22.2-8.7,33.1c-0.3,0-0.7,0-1,0c-3.1-11.1-6.1-22.2-9.1-33.1c-9.2,0-17.8,0-26.3,0
		c0,22.3,0,44.4,0,66.3c5.1,0,9.9,0,14.9,0c0-14.9,0-29.5,0-44c1.1,1.1,1.5,2.3,1.8,3.5c2.7,10.1,5.4,20.3,8.1,30.4
		c3,10.9,3.1,10.9,14.4,10.5c0.5,0,0.9-0.2,1.5-0.4c3.7-14.3,7.5-28.7,11.2-43.1c0.4,0.1,0.8,0.1,1.2,0.2c0,14.4,0,28.8,0,43.4
		c5.3,0,9.9,0,14.6,0C263.1,448,264.3,448,265.8,448z M281.4,429.4c1.8,7.9,6.1,13.5,13,16.4c11.1,4.6,22.4,4.6,33.4-0.2
		c8.5-3.7,13.3-11.4,12.9-19.6c-0.4-8.8-5.7-15.1-15.3-18.1c-5.5-1.7-11.3-2.9-16.8-4.8c-1.6-0.6-2.7-2.8-4-4.2
		c1.7-1.3,3.2-3.4,5.1-3.7c5.7-1.1,9.8,1.9,12.5,6.7c5.7-1.8,11-3.4,16.5-5.1c-3.6-8.9-9.5-14.4-18.5-15.7
		c-5.5-0.8-11.3-0.9-16.8-0.1c-11.2,1.5-18.4,9.3-19.3,19.7c-0.8,9.6,4.6,16.7,16.1,20.4c4.7,1.5,9.7,2.3,14.3,4.1
		c2.1,0.8,3.4,3.3,5.1,5.1c-2.1,1.3-4.1,3.3-6.3,3.6c-6.3,0.8-11.4-1.5-13.9-7.8C293.4,427.2,287.6,428.3,281.4,429.4z M175.7,381.3
		c-16.8,0-33.2,0-49.6,0c0,22.3,0,44.4,0,66.4c16.8,0,33.1,0,49.4,0c0-5.4,0-10.4,0-15.8c-10,0-19.6,0-29.4,0c0-3.7,0-7.1,0-11
		c8.1,0,15.8,0,23.6,0c0-5.2,0-9.9,0-15.1c-8.1,0-15.9,0-23.7,0c0-3.4,0-6.4,0-9.8c9.9,0,19.7,0,29.6,0
		C175.7,390.9,175.7,386.3,175.7,381.3z"/>
	<path d="M37.2,345.9c8,0,16-0.1,23.9,0c7.9,0.1,13.1,6,13.2,15c0.1,9.2-5.1,15.4-13.2,15.5c-16,0.1-31.9,0.1-47.9,0
		C5.2,376.3-0.1,370,0,360.9c0.1-8.8,5.4-14.9,13.3-15C21.3,345.9,29.2,345.9,37.2,345.9z"/>
	<path d="M37.5,131.8c7.8,0,15.6-0.1,23.4,0c8.2,0.1,13.4,6.2,13.4,15.3c0,9.1-5.3,15.1-13.5,15.1c-15.8,0.1-31.6,0.1-47.4,0
		C5.2,162.2,0,156,0,146.9c0-9.1,5.3-15,13.6-15.1C21.6,131.7,29.6,131.8,37.5,131.8z"/>
	<path d="M37.5,239.9c8,0,16-0.1,23.9,0c7.6,0.1,12.7,6,12.9,14.7c0.2,8.9-4.9,15.6-12.5,15.7c-16.5,0.2-32.9,0.2-49.4,0
		c-7.6-0.1-12.7-6.8-12.5-15.7c0.2-8.6,5.4-14.6,13-14.7C21.2,239.8,29.3,239.9,37.5,239.9z"/>
</g>
</svg>
