<?xml version="1.0" encoding="utf-8"?>
<!-- Generator: Adobe Illustrator 22.1.0, SVG Export Plug-In . SVG Version: 6.00 Build 0)  -->
<svg version="1.1" id="Layer_1" xmlns="http://www.w3.org/2000/svg" xmlns:xlink="http://www.w3.org/1999/xlink" x="0px" y="0px"
	 viewBox="0 0 980 857.9" style="enable-background:new 0 0 980 857.9;" xml:space="preserve">
<g>
	<path d="M613,0c61,0,122,0,183,0c0.6,1.5,1.3,3,1.9,4.6C851.4,145.3,904.8,286,958.3,426.7c7.1,18.8,14.5,37.5,21.7,56.3
		c0,125,0,249.9,0,374.9c-326.7,0-653.3,0-980,0c0-125,0-250,0-374.9c0.7-1.7,1.6-3.3,2.2-5C41.8,373.8,81.4,269.7,121,165.5
		C142,110.3,163,55.2,184,0c61,0,122,0,183,0c0.2,1.6,0.5,3.3,0.5,4.9c0,37.7,0,75.3,0,113c0,1.6-0.2,3.2-0.4,4.9
		c-2.5,0-4.5,0-6.5,0c-36.7,0-73.3,0.1-110-0.1c-4.5,0-6.2,1.5-7.6,5.5C200.9,247.2,158.7,366,116.5,484.9c-0.6,1.6-1,3.3-1.7,5.4
		c2.8,0,4.7,0,6.7,0c59.8,0,119.7,0,179.5-0.1c4,0,5.8,1.3,7.5,4.7c18.7,37.7,37.6,75.3,56.4,113c1.7,3.5,3.6,5.1,7.8,5.1
		c78.2-0.2,156.3-0.1,234.5,0c3.9,0,5.9-1.1,7.6-4.6c18.8-37.9,37.8-75.6,56.6-113.5c1.7-3.5,3.7-4.7,7.6-4.7
		c54.7,0.1,109.3,0.1,164,0.1c1.9,0,3.9,0,6.3,0c-0.6-2.3-0.9-3.9-1.4-5.4c-37.1-119-74.2-237.9-111.2-356.9
		c-1.3-4.2-3.3-5.1-7.3-5.1c-36.8,0.1-73.7,0.1-110.5,0.1c-1.9,0-3.9,0-6.2,0c-0.1-2.2-0.2-3.8-0.2-5.4c0-37.5,0-75,0-112.5
		C612.5,3.3,612.8,1.6,613,0z"/>
	<path d="M499.2,492.6c-61.4-61.4-123.4-123.4-185.8-185.8c38.2,0,76.4,0,115.3,0c0-82,0-163.3,0-244.9c41.1,0,81.5,0,122.4,0
		c0,81.5,0,162.7,0,244.6c45.2,0,89.9,0,134.3,0C623,368.8,560.9,430.9,499.2,492.6z"/>
</g>
</svg>
