<?xml version="1.0" encoding="utf-8"?>
<!-- Generator: Adobe Illustrator 22.1.0, SVG Export Plug-In . SVG Version: 6.00 Build 0)  -->
<svg version="1.1" id="Layer_1" xmlns="http://www.w3.org/2000/svg" xmlns:xlink="http://www.w3.org/1999/xlink" x="0px" y="0px"
	 viewBox="0 0 161.9 134.1" style="enable-background:new 0 0 161.9 134.1;" xml:space="preserve">
<g>
	<path d="M66,67.6c0-19.2,0-38.3,0-57.5c0-4.2,2.1-6.4,6.4-6.4c7.6,0,15.3,0,22.9,0c1.1,0,1.7-0.2,2.1-1.4C97.9,0.9,99,0,100.7,0
		c10,0,20.1,0,30.1,0c1.8,0,2.9,1.1,3.4,2.7c0.3,0.9,0.7,1.1,1.6,1.1c6.5,0,13-0.1,19.6,0c1.3,0,2.6,0.4,3.8,0.9
		c1.9,0.8,2.8,2.4,2.8,4.6c0,38.9,0,77.8,0,116.7c0,2.9-2.2,5.3-5.2,5.6c-0.5,0.1-1,0.1-1.4,0.1c-27.5,0-55,0-82.6,0
		c-1.3,0-2.8-0.4-4-1c-1.9-0.9-2.7-2.5-2.7-4.7c0-8.6,0-17.3,0-25.9C66,89.2,66,78.4,66,67.6z M73.4,67.5c0,17.9,0,35.8,0,53.7
		c0,2.3,0.6,2.9,2.9,2.9c25.1,0,50.2,0,75.2,0c2.2,0,2.9-0.7,2.9-2.8c0-35.8,0-71.7,0-107.5c0-0.4,0-0.7,0-1.1
		c0-1.1-0.6-1.6-1.7-1.6c-5.7,0-11.4,0.1-17,0c-0.8,0-1.3,0.2-1.5,1.1c-0.5,1.6-1.6,2.7-3.4,2.7c-10,0-20.1,0-30.1,0
		c-1.6,0-2.8-0.9-3.3-2.4c-0.4-1.2-1-1.4-2.1-1.4c-6.4,0-12.9,0-19.3,0c-2.4,0-2.6,0.1-2.6,2.5C73.4,31.6,73.4,49.6,73.4,67.5z
		 M127.2,8.8c1,0,1.8-0.7,1.8-1.7c0-1-0.7-1.8-1.7-1.8c-1-0.1-1.8,0.7-1.8,1.7C125.5,8,126.3,8.8,127.2,8.8z M105.9,7.1
		c0-0.9-0.8-1.8-1.7-1.8c-1,0-1.8,0.8-1.8,1.7c0,1,0.8,1.8,1.7,1.8C105.1,8.9,105.9,8.1,105.9,7.1z"/>
	<path d="M43.1,53.8c2.2,1.1,4.2,2.2,6.2,3.1c0.3,0.2,0.9,0,1.3-0.2c3.7-2,7.4-4,11-6.1c0.3-0.2,0.7-0.4,1.2-0.6c0,1.9,0,3.7,0,5.5
		c0,0.3-0.5,0.7-0.8,0.9c-2.8,1.5-5.6,3-8.5,4.5c-0.6,0.3-0.9,0.6-0.9,1.3c0,7.6,0,15.1,0,22.7c0,0.1,0,0.3,0.1,0.6
		c3.4-1.8,6.7-3.6,10.1-5.4c0,2.6,0,4.9,0,7.3c0,0.3-0.4,0.6-0.7,0.8c-1.5,0.8-3.1,1.5-4.9,2.4c2,0.5,3.4,2.5,5.6,0.6
		c0,4.5,0,8.7,0,13.2c-1.3-0.7-2.6-1.2-3.8-1.9c-0.3-0.1-0.5-0.6-0.5-1c-0.1-1.3,0-2.6,0-3.8c0-0.4-0.2-0.9-0.5-1.1
		c-1.1-0.6-2.3-1.2-3.6-1.8c0,0.5-0.1,0.9-0.1,1.3c0,7.1,0,14.2,0,21.4c0,0.8,0.3,1.3,1,1.7c2.2,1.1,4.3,2.3,6.5,3.4
		c0.9,0.4,1.2,1,1.1,1.9c-0.1,1.3,0,2.7,0,4.3c-4.6-2.8-9.3-4.9-13.5-7.8c-0.7,0.5-1.5,1.1-2.4,1.5c-6.7,3.7-13.4,7.4-20.1,11
		c-1.6,0.8-3.2,1.2-5.1,0.1c-6.5-3.8-13.1-7.5-19.7-11.2c-1.4-0.8-2.1-1.8-2.1-3.5c0.1-9.2,0.1-18.5,0-27.7c0-1.8,0.7-3,2.4-3.8
		c7.2-3.4,14.3-6.9,21.5-10.3c0.9-0.4,1.2-1,1.2-2c0-8.7,0-17.4,0-26.2c0-1.8,0.7-2.9,2.3-3.7c7.3-3.4,14.7-7,22-10.4
		c0.5-0.2,1.2-0.3,1.6,0c3.6,1.8,7.2,3.8,10.8,5.6c0.8,0.4,1,0.8,1,1.6c-0.1,1.3,0,2.6,0,4.2c-0.9-0.4-1.7-0.8-2.4-1.2
		c-0.3-0.1-0.8-0.3-1.1-0.1C53.9,47.8,48.6,50.7,43.1,53.8z M27.6,127.6c0.3-0.1,0.5-0.2,0.7-0.3c5.2-2.8,10.4-5.6,15.6-8.4
		c0.7-0.4,0.8-0.9,0.8-1.5c0-7.1,0-14.2,0-21.4c0-0.4-0.1-0.7-0.1-1.3c-5.6,3-11.1,5.9-16.5,8.9c-0.2,0.1-0.5,0.6-0.5,0.8
		C27.6,112.1,27.6,119.7,27.6,127.6z M22.2,127.6c0-0.7,0-1.1,0-1.6c0-6.2-0.2-12.3,0.1-18.5c0.1-2.9-0.6-4.6-3.4-5.6
		c-1.3-0.4-2.4-1.2-3.8-2c0,1.8,0,3.3,0,5c-1.9-1-3.7-1.8-5.4-2.7c-0.2-0.1-0.3-0.6-0.4-0.9c0-1.3,0-2.6,0-3.8
		c0-0.3-0.1-0.8-0.3-0.9c-1.2-0.7-2.5-1.3-3.8-1.9c-0.1,0.3-0.1,0.5-0.1,0.6c0,7.4,0,14.9,0,22.3c0,0.4,0.4,0.9,0.7,1.2
		c1.1,0.7,2.3,1.3,3.5,1.9C13.5,123,17.7,125.2,22.2,127.6z M47.2,85.9c0-7.9,0-15.5,0-23c0-0.4-0.3-0.9-0.7-1.1
		c-1.9-1.1-3.8-2-5.7-3.1c-0.2-0.1-0.4-0.1-0.7-0.2c0,1.6,0,3.1,0,4.8c-1.9-0.8-3.7-1.5-5.4-2.3c-0.2-0.1-0.4-0.6-0.4-0.9
		c0-1.4,0-2.8,0-4.2c0-0.3-0.1-0.8-0.3-1c-1.2-0.7-2.5-1.3-3.9-2c0,0.4-0.1,0.6-0.1,0.7c0,7.4,0,14.8,0,22.2c0,0.4,0.4,1,0.8,1.2
		c3.1,1.7,6.2,3.4,9.3,5C42.5,83.4,44.7,84.6,47.2,85.9z M18,95.5c2.2,1.2,4.2,2.4,6.2,3.4c0.3,0.2,0.9,0.1,1.3-0.1
		c5-2.7,10-5.5,15-8.2c0.2-0.1,0.4-0.3,0.8-0.5c-1.7-0.8-3.3-1.5-4.7-2.4c-1.3-0.8-2.4-0.7-3.8,0C28,90.3,23.1,92.8,18,95.5z
		 M54.7,41.7c-1.2-0.6-2.2-1-3.1-1.6c-0.7-0.4-1.3-0.4-2.1,0c-2.4,1.2-4.9,2.4-7.3,3.6c-2.9,1.4-5.7,2.8-8.7,4.3
		c0.6,0.3,1,0.5,1.4,0.8c2.1,1.7,4.1,1.5,6.4,0.1C45.6,46.3,50.1,44.1,54.7,41.7z M28.4,83.4c-0.8-0.5-1.4-0.9-2.1-1.2
		c-0.5-0.2-1.2-0.3-1.6-0.1c-5.1,2.5-10.3,5-15.4,7.5c-0.3,0.1-0.5,0.3-0.8,0.5c3,2.1,3,2.1,6.1,0.5c0.6-0.3,1.2-0.6,1.8-0.9
		C20.4,87.6,24.3,85.6,28.4,83.4z"/>
	<path d="M101.7,36.7c0,3,0,6,0,9c0,1-0.2,1.3-1.3,1.3c-6,0-12.1,0-18.1,0c-1,0-1.3-0.3-1.3-1.3c0-6.1,0-12.2,0-18.2
		c0-0.9,0.3-1.2,1.2-1.2c6.1,0,12.2,0,18.4,0c1,0,1.2,0.4,1.2,1.3C101.7,30.7,101.7,33.7,101.7,36.7z M91.4,30.1c-1.8,0-3.6,0-5.4,0
		c-0.8,0-1.3,0.2-1.2,1.2c0,3.6,0,7.3,0,10.9c0,0.7,0.2,1.1,1,1.1c3.7,0,7.4,0,11.2,0c0.7,0,1-0.3,1-1c0-3.7,0-7.4,0-11
		c0-0.8-0.3-1.1-1.1-1.1C95,30.1,93.2,30.1,91.4,30.1z"/>
	<path d="M101.7,100.7c0,3,0,5.9,0,8.9c0,1-0.2,1.4-1.3,1.4c-6-0.1-12.1,0-18.1,0c-1,0-1.3-0.3-1.3-1.3c0-6,0-12.1,0-18.1
		c0-1,0.2-1.3,1.3-1.3c6.1,0,12.2,0,18.2,0c1,0,1.2,0.3,1.2,1.2C101.7,94.6,101.7,97.6,101.7,100.7z M91.3,94.1c-1.8,0-3.6,0-5.4,0
		c-0.8,0-1.1,0.3-1.1,1.1c0,3.6,0,7.3,0,10.9c0,0.8,0.3,1.1,1.1,1.1c3.6,0,7.3,0,10.9,0c0.8,0,1.1-0.3,1.1-1.1c0-3.6,0-7.3,0-10.9
		c0-0.8-0.3-1.1-1.1-1.1C95,94.1,93.1,94.1,91.3,94.1z"/>
	<path d="M91.4,79c-3,0-6,0-9,0c-1,0-1.4-0.3-1.4-1.4c0-6,0-11.9,0-17.9c0-1.1,0.3-1.5,1.4-1.5c6,0,12,0,18,0c1,0,1.3,0.3,1.3,1.3
		c0,6,0,12.1,0,18.1c0,1-0.4,1.3-1.4,1.3C97.4,79,94.4,79,91.4,79z M91.5,62c-1.8,0-3.7,0-5.5,0c-0.8,0-1.2,0.2-1.2,1.1
		c0,3.7,0,7.4,0,11c0,0.8,0.3,1.1,1.1,1.1c3.6,0,7.3,0,10.9,0c0.7,0,1.1-0.2,1.1-1c0-3.7,0-7.4,0-11.2c0-0.9-0.4-1.1-1.2-1.1
		C95,62.1,93.2,62,91.5,62z"/>
	<path d="M127.2,33.8c-6.1,0-12.2,0-18.3,0c-1.1,0-1.5-0.2-1.5-1.4c0.1-2.6-0.3-2.3,2.3-2.3c11.8,0,23.6,0,35.4,0
		c0.6,0,1.6,0.2,1.7,0.4c0.2,1,0.1,2,0,2.9c0,0.1-0.8,0.3-1.2,0.3C139.4,33.8,133.3,33.8,127.2,33.8z"/>
	<path d="M125.2,73.4c5.5,0,10.9,0,16.4,0c1.1,0,1.5,0.3,1.4,1.4c-0.1,2.3,0,2.3-2.3,2.3c-10.5,0-21.1,0-31.6,0
		c-1.8,0-1.8,0-1.8-1.8c0-0.2,0-0.4,0-0.6c-0.1-1,0.3-1.4,1.3-1.4c4.4,0.1,8.8,0,13.2,0C123,73.4,124.1,73.4,125.2,73.4z"/>
	<path d="M126.1,62c-5.7,0-11.4,0-17.1,0c-1.6,0-1.6,0-1.6-1.6c0-2.1,0-2.1,2-2.1c11.2,0,22.5,0,33.7,0c0.6,0,1.6,0.2,1.7,0.4
		c0.2,0.9,0.1,2,0,2.9c0,0.2-0.8,0.3-1.3,0.3C137.7,62,131.9,62,126.1,62z"/>
	<path d="M124.3,41.4c-5.2,0-10.4,0-15.6,0c-1.1,0-1.4-0.3-1.4-1.4c0.1-2.8-0.1-2.4,2.4-2.4c9.9,0,19.8,0,29.7,0
		c1.7,0,1.7,0,1.7,1.7c0,0.2,0,0.5,0,0.7c0.1,1-0.3,1.3-1.3,1.3C134.7,41.3,129.5,41.4,124.3,41.4z"/>
	<path d="M122.4,69.6c-4.6,0-9.1,0-13.7,0c-1,0-1.3-0.3-1.3-1.3c0.1-3-0.3-2.5,2.4-2.5c8.7,0,17.4,0,26,0c1.6,0,1.6,0,1.6,1.6
		c0,2.5,0.1,2.2-2.2,2.2C130.9,69.6,126.7,69.6,122.4,69.6z"/>
	<path d="M123.3,97.8c-4.8,0-9.7,0-14.5,0c-1.1,0-1.5-0.3-1.5-1.4c0.1-2.6-0.3-2.3,2.3-2.3c9.4,0,18.7,0,28.1,0c1.6,0,1.6,0,1.6,1.6
		c0,0.3,0,0.6,0,0.8c0.1,1-0.4,1.3-1.3,1.3C133.1,97.8,128.2,97.8,123.3,97.8z"/>
	<path d="M117.7,105.3c-3,0-6,0-9,0c-1,0-1.3-0.3-1.3-1.3c0.1-2.7-0.3-2.4,2.4-2.4c5.6,0,11.1,0,16.7,0c1.7,0,1.7,0,1.7,1.7
		c0,0.2,0,0.5,0,0.7c0.1,1-0.3,1.4-1.3,1.3C123.7,105.3,120.7,105.3,117.7,105.3z"/>
</g>
</svg>
