<?xml version="1.0" encoding="utf-8"?>
 
<!DOCTYPE svg PUBLIC "-//W3C//DTD SVG 1.1//EN" "http://www.w3.org/Graphics/SVG/1.1/DTD/svg11.dtd">
<svg version="1.1" xmlns="http://www.w3.org/2000/svg" xmlns:xlink="http://www.w3.org/1999/xlink" x="0px" y="0px" viewBox="0 0 1000 1000" enable-background="new 0 0 1000 1000" xml:space="preserve">

<g><g transform="translate(0.000000,511.000000) scale(0.100000,-0.100000)"><path d="M1810,4975c-62.5-27.5-110-92.5-235-327.5c-135-255-155-307.5-142.5-392.5c17.5-125,40-150,232.5-257.5l160-90l-100-180c-55-100-142.5-255-192.5-345L1440,3215l-155-12.5c-305-22.5-582.5-205-647.5-425c-80-265-42.5-420,200-832.5c315-535,685-1042.5,1017.5-1397.5c382.5-407.5,620-437.5,1540-210c225,55,415,97.5,420,90c5-5,30-127.5,55-270c37.5-225,42.5-442.5,42.5-1640V-2865h1830H7575v165c0,147.5,5,162.5,45,147.5c105-42.5,325-42.5,467.5-2.5c112.5,35,172.5,72.5,275,172.5c110,112.5,140,165,200,342.5c37.5,117.5,190,537.5,342.5,932.5C9205-310,9287.5-22.5,9267.5,175c-22.5,212.5-45,245-665,932.5C7975,1800,7317.5,2185,6757.5,2185c-202.5,0-320-40-432.5-142.5c-135-120-202.5-277.5-322.5-742.5c-95-372.5-130-465-177.5-465c-12.5,0-80,177.5-150,395c-190,575-310,767.5-560,900c-117.5,62.5-150,67.5-415,67.5c-435-2.5-792.5-95-1387.5-367.5c-325-150-570-245-625-245c-50,0-307.5,407.5-542.5,860c-120,232.5-247.5,460-282.5,505c-35,45-62.5,87.5-62.5,97.5c0,12.5,345,632.5,365,660c5,5,75-20,157.5-57.5c257.5-115,337.5-65,550,347.5c150,290,160,377.5,60,485C2855,4565,2010,5010,1935,5010C1910,5007.5,1852.5,4992.5,1810,4975z M7652.5,455c200-207.5,235-302.5,232.5-645c-2.5-547.5-210-1250-430-1457.5c-87.5-85-142.5-80-215,15c-65,87.5-82.5,240-105,942.5c-20,610,0,815,95,1017.5c62.5,135,182.5,257.5,247.5,257.5C7505,585,7582.5,525,7652.5,455z M6012.5-27.5C6060-72.5,6075-115,6075-200c0-92.5-12.5-120-77.5-175c-107.5-90-227.5-87.5-325,7.5c-52.5,55-72.5,97.5-72.5,165C5600,2.5,5870,117.5,6012.5-27.5z M6025-980c95-92.5,87.5-242.5-20-337.5c-122.5-110-297.5-85-370,55c-70,140-22.5,272.5,125,337.5C5857.5-882.5,5945-900,6025-980z"/><path d="M5292.5,4772.5c-435-120-785-450-945-887.5c-50-135-60-210-60-450c0-252.5,7.5-310,70-475c135-372.5,480-712.5,842.5-835c172.5-57.5,567.5-80,755-42.5c242.5,50,482.5,185,672.5,375c737.5,737.5,445,1955-550,2295C5885,4817.5,5495,4827.5,5292.5,4772.5z"/><path d="M200-3615v-375h200h200v-400v-400h200h200v300v300h4000h4000v-300v-300h200h200v400v400h200h200v375v375H5000H200V-3615z"/></g></g>
</svg>