<?xml version="1.0" encoding="windows-1252"?>
<!-- Generator: Adobe Illustrator 19.0.0, SVG Export Plug-In . SVG Version: 6.00 Build 0)  -->
<svg version="1.1" id="Layer_1" xmlns="http://www.w3.org/2000/svg" xmlns:xlink="http://www.w3.org/1999/xlink" x="0px" y="0px" viewBox="0 0 512 512" style="enable-background:new 0 0 512 512;" xml:space="preserve">
<g>
	<g>
		<g>
			<path d="M79.508,233.807c20.315,0,34.52-14.686,37.608-31.632c46.877,48.31,124.106,48.365,171.037,0.009     c3.095,16.947,17.326,31.623,37.615,31.623c33.865,0,50.789-40.801,27.448-64.865c14.409-14.853,14.391-38.402,0-53.239     c23.391-24.113,6.364-64.865-27.448-64.865c-8.221,0-15.432,2.419-21.323,6.405C283.488,22.943,245.693,0,202.638,0     c-43.056,0-80.852,22.944-101.808,57.248c-5.894-3.988-13.107-6.408-21.323-6.408c-33.865,0-50.789,40.802-27.448,64.865     c-14.409,14.856-14.39,38.405,0,53.239C28.673,193.055,45.694,233.807,79.508,233.807z"/>
			<path d="M438.272,385.034H412.47c-3.562,0-6.451,2.887-6.451,6.451v100.617c0,10.42,8.008,19.386,18.416,19.877     c11.113,0.524,20.287-8.333,20.287-19.33V391.484C444.723,387.921,441.836,385.034,438.272,385.034z"/>
			<path d="M467.592,253.693c-7.85,0-14.595,4.683-17.629,11.402h-49.181c-3.034-6.719-9.779-11.402-17.629-11.402     c-10.687,0-19.352,8.664-19.352,19.351v11.402v55.434v11.402c0,10.687,8.664,19.352,19.352,19.352     c7.85,0,14.595-4.683,17.629-11.402h49.181c3.034,6.719,9.779,11.402,17.629,11.402c10.687,0,19.352-8.664,19.352-19.352v-78.237     C486.944,262.357,478.28,253.693,467.592,253.693z"/>
			<path d="M113.974,277.455c-3.694,2.138-4.406,7.163-1.388,10.18l85.492,85.492c2.52,2.52,6.603,2.52,9.122,0l85.492-85.492     c3.018-3.016,2.304-8.042-1.388-10.18C236.572,245.784,168.802,245.728,113.974,277.455z"/>
			<path d="M323.939,301.698c-2.539-2.379-6.518-2.304-8.978,0.156l-103.2,103.2c-5.039,5.038-13.206,5.038-18.246,0l-103.2-103.2     c-2.46-2.46-6.439-2.535-8.978-0.156c-34.616,32.424-56.281,78.515-56.281,129.575v61.375c0,10.687,8.664,19.351,19.351,19.351     h316.46c10.687,0,19.352-8.664,19.352-19.351v-61.375C380.219,380.214,358.553,334.124,323.939,301.698z"/>
		</g>
	</g>
</g>
<g>
</g>
<g>
</g>
<g>
</g>
<g>
</g>
<g>
</g>
<g>
</g>
<g>
</g>
<g>
</g>
<g>
</g>
<g>
</g>
<g>
</g>
<g>
</g>
<g>
</g>
<g>
</g>
<g>
</g>
</svg>