<?xml version="1.0" encoding="windows-1252"?>
<!-- Generator: Adobe Illustrator 19.0.0, SVG Export Plug-In . SVG Version: 6.00 Build 0)  -->
<svg version="1.1" id="Layer_1" xmlns="http://www.w3.org/2000/svg" xmlns:xlink="http://www.w3.org/1999/xlink" x="0px" y="0px" viewBox="0 0 512 512" style="enable-background:new 0 0 512 512;" xml:space="preserve">
<g>
	<g>
		<path d="M107.615,462.408v26.16c0,12.942,10.491,23.432,23.432,23.432c12.942,0,23.432-10.491,23.432-23.432v-26.16H107.615z"/>
	</g>
</g>
<g>
	<g>
		<path d="M164.596,462.408v26.16c0,12.942,10.491,23.432,23.432,23.432c12.942,0,23.432-10.491,23.432-23.432v-26.16H164.596z"/>
	</g>
</g>
<g>
	<g>
		<path d="M218.437,63.74c0-5.983-3.431-11.154-8.427-13.686c4.995-2.531,8.427-7.703,8.427-13.686    c0-10.028-9.532-17.508-19.427-14.784C199.757,9.644,190.289,0,178.771,0c-8.516,0-15.797,5.248-18.813,12.682    C156.942,5.248,149.661,0,141.145,0c-11.544,0-20.985,9.671-20.241,21.584c-9.878-2.72-19.427,4.738-19.427,14.784    c0,5.983,3.431,11.154,8.427,13.686c-4.995,2.531-8.427,7.703-8.427,13.686c0,5.983,3.431,11.153,8.427,13.686    c-4.996,2.531-8.428,7.703-8.428,13.686c0,8.477,6.871,15.348,15.348,15.348s15.348-6.871,15.348-15.348    c0-0.276-0.027-0.544-0.041-0.816c7.237,6.787,16.965,10.951,27.669,10.951c10.868,0,20.728-4.292,27.997-11.264    c-0.665,9.106,6.549,16.477,15.291,16.477c8.477,0,15.348-6.871,15.348-15.348c0-5.983-3.431-11.154-8.427-13.686    C215.005,74.894,218.437,69.723,218.437,63.74z"/>
	</g>
</g>
<g>
	<g>
		<path d="M442.979,316.113h-7.232c-0.276-0.807-27.354-80.238-27.642-81.04c-1.376-3.881-5.353-6.123-9.292-5.447l-52.79,9.067    v-50.631c9.19-4.919,12.947-16.244,8.36-25.707c-4.705-9.704-16.386-13.756-26.089-9.054l-69.897,33.883l-0.136-27.063    c-0.128-25.352-20.857-45.977-46.208-45.977h-5.421l-38.279,28.709l-8.453-28.709h-0.141l-8.453,28.709    c-13.93-10.448-24.68-18.51-38.279-28.709h-5.804c-25.353,0-46.443,20.626-46.569,45.977v143.455    c-0.055,10.784,8.284,19.571,19.068,19.624c0.033,0,0.067,0,0.1,0c10.738,0,19.95-8.678,20.005-19.429V160.318v-0.002    c0.011-2.078,1.942-3.756,4.021-3.751c2.078,0.006,3.76,1.693,3.76,3.771v286.041h103.43h0.425    c0-254.409-0.414-91.047-0.425-285.636c0-2.18,1.707-3.978,3.884-4.092c2.177-0.114,4.064,1.497,4.289,3.665    c0,0.001,0,0.002,0,0.003l0.291,58.053c0.073,14.345,15.129,23.733,28.043,17.474l81.744-39.625v45.348    c-0.001,0-55.526,9.538-55.528,9.538c-3.261,0.561-5.678,2.818-6.614,5.606l-27.584,80.895h-7.232    c-4.621,0-8.367,3.746-8.367,8.367c0,4.032,2.886,8.367,9.192,8.367c3.89,19.603,21.18,34.382,41.925,34.382    c20.746,0,38.035-14.779,41.925-34.382c6.128,0,9.192-4.166,9.192-8.367c0-4.621-3.746-8.367-8.367-8.367H310.6l-24.432-71.654    l101.595-17.451L364.71,316.11h-7.232c-4.621,0-8.367,3.746-8.367,8.367c0,4.031,2.885,8.367,9.192,8.367    c3.891,19.603,21.18,34.382,41.925,34.382c20.746,0,38.035-14.779,41.925-34.382c6.129,0.003,9.193-4.163,9.193-8.364    C451.347,319.86,447.6,316.113,442.979,316.113z M292.92,337.609h-35.675l17.837-52.312L292.92,337.609z M382.391,316.113    l17.838-52.313l17.837,52.313H382.391z"/>
	</g>
</g>
<g>
</g>
<g>
</g>
<g>
</g>
<g>
</g>
<g>
</g>
<g>
</g>
<g>
</g>
<g>
</g>
<g>
</g>
<g>
</g>
<g>
</g>
<g>
</g>
<g>
</g>
<g>
</g>
<g>
</g>
</svg>