<?xml version="1.0" encoding="windows-1252"?>
<!-- Generator: Adobe Illustrator 19.0.0, SVG Export Plug-In . SVG Version: 6.00 Build 0)  -->
<svg version="1.1" id="Layer_1" xmlns="http://www.w3.org/2000/svg" xmlns:xlink="http://www.w3.org/1999/xlink" x="0px" y="0px" viewBox="0 0 512 512" style="enable-background:new 0 0 512 512;" xml:space="preserve">
<g>
	<g>
		<circle cx="174.678" cy="116.63" r="33.339"/>
	</g>
</g>
<g>
	<g>
		<path d="M206.755,176.5c0-5.568,0.942-10.916,2.653-15.911c-16.967,0-52.501,0-69.469,0c1.711,4.995,2.653,10.343,2.653,15.911    c0,10.416-3.26,20.081-8.801,28.046c15.514,0.001,29.077,4.045,40.883,15.802c11.882-11.836,25.495-15.802,40.882-15.802    C210.016,196.581,206.755,186.917,206.755,176.5z"/>
	</g>
</g>
<g>
	<g>
		<circle cx="337.326" cy="116.63" r="33.339"/>
	</g>
</g>
<g>
	<g>
		<path d="M369.406,176.5c0-5.568,0.942-10.916,2.653-15.911c-16.967,0-52.502,0-69.469,0c1.711,4.995,2.653,10.343,2.653,15.911    c0,10.416-3.26,20.081-8.801,28.046c15.514,0.001,29.078,4.045,40.883,15.802c11.882-11.836,25.495-15.802,40.882-15.802    C372.667,196.581,369.406,186.917,369.406,176.5z"/>
	</g>
</g>
<g>
	<g>
		<path d="M93.348,143.167c-18.409,0-33.333,14.924-33.333,33.333c0,18.428,14.947,33.333,33.333,33.333    c18.405,0,33.333-14.919,33.333-33.333C126.681,158.085,111.752,143.167,93.348,143.167z"/>
	</g>
</g>
<g>
	<g>
		<g>
			<path d="M369.543,266.404c0,0.011,0,0.023,0,0.033C369.543,266.426,369.543,266.415,369.543,266.404z"/>
			<path d="M369.543,266.437c0,0.064-0.001,0.12-0.001,0.151C369.542,266.562,369.543,266.513,369.543,266.437z"/>
			<path d="M369.542,266.588C369.542,266.625,369.542,266.619,369.542,266.588L369.542,266.588z"/>
			<path d="M461.82,220.46c-8.972,0-77.369,0-86.343,0c-20.898,0-38.052,17.021-38.154,37.868     c-0.105-20.818-17.237-37.868-38.154-37.868c-8.972,0-77.369,0-86.343,0c-20.969,0-38.049,17.089-38.154,37.869     c-0.105-20.927-17.333-37.869-38.154-37.869c-8.973,0-77.369,0-86.343,0c-20.857,0-38.049,16.958-38.154,37.869v37.298h32.076     l0.186-37.136c0.022-4.262,6.47-4.255,6.47,0.016v37.121h85.19v-37.12c0-4.335,6.448-4.163,6.47-0.017l0.186,37.136     c12.849,0,51.298,0,64.147,0l0.186-37.136c0.021-4.186,6.47-4.325,6.47,0.016v37.121h85.19v-37.12     c0-3.928,5.633-4.352,6.402-0.667c0.044,0.21,0.068,0.428,0.069,0.651l0.186,37.136c12.848,0,51.299,0,64.147,0     c0.156-31.114,0.151-29.989,0.147-29.223c0.003-0.572,0.013-2.504,0.039-7.913c0.023-4.257,6.47-4.245,6.47,0.016v37.121h85.19     v-37.12c0-4.316,6.452-4.21,6.472-0.017l0.186,37.136h32.073v-37.298C499.868,237.446,482.7,220.46,461.82,220.46z"/>
		</g>
	</g>
</g>
<g>
	<g>
		<path d="M255.999,143.167c-18.409,0-33.333,14.923-33.333,33.333c0.001,18.411,14.927,33.333,33.333,33.333    c18.473,0,33.333-15.002,33.333-33.333C289.333,158.091,274.41,143.167,255.999,143.167z"/>
	</g>
</g>
<g>
	<g>
		<path d="M418.651,143.167c-18.41,0-33.332,14.925-33.332,33.333c0,18.527,15.056,33.333,33.332,33.333    c18.398,0,33.333-14.913,33.333-33.333C451.984,158.091,437.061,143.167,418.651,143.167z"/>
	</g>
</g>
<g>
	<g>
		<path d="M499.558,313.66H12.442C5.57,313.659,0,319.23,0,326.102c0,6.872,5.57,12.442,12.442,12.442h15.846v77.949    c0,6.747,5.469,12.216,12.216,12.216h430.993c6.746,0,12.216-5.469,12.216-12.216v-77.949h15.846    c6.871,0,12.442-5.571,12.442-12.442C512,319.23,506.43,313.66,499.558,313.66z"/>
	</g>
</g>
<g>
</g>
<g>
</g>
<g>
</g>
<g>
</g>
<g>
</g>
<g>
</g>
<g>
</g>
<g>
</g>
<g>
</g>
<g>
</g>
<g>
</g>
<g>
</g>
<g>
</g>
<g>
</g>
<g>
</g>
</svg>