<?xml version="1.0" encoding="utf-8"?>
<!-- Generator: Adobe Illustrator 22.1.0, SVG Export Plug-In . SVG Version: 6.00 Build 0)  -->
<svg version="1.1" id="Layer_1" xmlns="http://www.w3.org/2000/svg" xmlns:xlink="http://www.w3.org/1999/xlink" x="0px" y="0px"
	 viewBox="0 0 248.6 262.4" style="enable-background:new 0 0 248.6 262.4;" xml:space="preserve">
<g>
	<path d="M109.1,114.4C99.9,101.6,93,88.2,90.3,73c-3.6-20.2-1.6-39.3,13-55.2c13.6-14.8,31.1-19.4,50.4-17.3
		c31.1,3.3,54.6,19.9,73.4,43.8c13.1,16.6,21.1,35.4,21.5,56.9c0.7,37.4-28.1,62.9-65.3,58.4c-16.6-2-31.5-8-45.2-17.4
		c-1.2-0.8-2.5-1.6-3.5-2.3c-18.4,18.5-36.6,36.7-54.8,55c4.5,4.3,9.4,9.1,15.1,14.7c4-4.3,8.4-9.3,13.2-13.8
		c4.8-4.6,6.4-4.6,11.4-0.1c3.7,3.3,7,7.1,10.3,10.8c2.2,2.5,2.3,5.1-0.2,7.5c-15.3,15.3-30.7,30.5-46,45.8c-3.5,3.5-6.7,3.6-10.2,0
		c-2.9-3-6.1-5.7-8.8-8.8c-4.7-5.3-4.8-6.7,0-11.7c4.5-4.7,9.3-9.1,13.7-13.3c-5.3-5.2-10.2-10-15.4-15.2c-7.7,7.7-16,16-24.4,24.4
		c-3.2,3.2-6.3,6.5-9.6,9.5c-6.7,6-15.4,5.2-22.7-2c-7.2-7.1-8.3-16.1-2-22.7c8.5-9,17.3-17.5,26.1-26.3c25.3-25.3,50.7-50.7,76-76
		C107.1,116.7,107.9,115.7,109.1,114.4z M176.8,71.9c3.6-19.9-0.6-31.2-14.1-38.5c-11-6-25.3-4-34.7,4.9
		c-9.1,8.5-12.4,22.9-6.4,33.9c2.9,5.3,7.6,10.1,12.5,13.7c7.9,5.7,17.2,4.8,26.3,2.1c-2.9,21.4,1.6,32.4,15.7,39.2
		c11.1,5.4,25.3,2.8,34.1-6.1c9-9.1,11.2-23.5,5.4-34.7C208.5,72.9,197.3,68.7,176.8,71.9z"/>
</g>
</svg>
