<?xml version="1.0" encoding="utf-8"?>
<!-- Generator: Adobe Illustrator 22.1.0, SVG Export Plug-In . SVG Version: 6.00 Build 0)  -->
<svg version="1.1" id="Layer_1" xmlns="http://www.w3.org/2000/svg" xmlns:xlink="http://www.w3.org/1999/xlink" x="0px" y="0px"
	 viewBox="0 0 218 169.2" style="enable-background:new 0 0 218 169.2;" xml:space="preserve">
<g>
	<path d="M12.5,114.5c-0.1,2.4,0.4,5.3,1.6,8.1c1.7,4.1,4.6,6.5,9.1,7.7c11.2,2.8,22.3,6.1,33.4,9.1c12.9,3.5,25.8,7,38.6,10.5
		c5.7,1.6,11.4,3.1,17.1,4.6c0.4,0.1,1,0,1.5-0.2c7.4-3.3,14.7-6.7,22.1-10c11.3-5.1,22.6-10.2,33.9-15.3
		c9.5-4.3,18.9-8.6,28.4-12.8c0.6-0.3,1.4-0.4,2-0.2c3.1,0.9,6.2,1.9,9.3,2.8c0.9,0.3,1.2,0.7,1.2,1.6c0,1.5,0,3,0.2,4.6
		c0.1,1.1-0.3,1.7-1.3,2.1c-6,2.6-12,5.3-18,8c-10.9,4.9-21.9,9.8-32.8,14.7c-11.9,5.3-23.8,10.6-35.7,16c-2.4,1.1-4.8,2.2-7.2,3.2
		c-0.5,0.2-1.2,0.3-1.7,0.1c-9-2.7-17.9-5.4-26.9-8c-9-2.7-18-5.3-27-8c-8.4-2.5-16.8-5.1-25.3-7.6c-7-2.1-14-4.2-21-6.2
		c-2.1-0.6-3.8-1.7-5.2-3.2c-3.3-3.5-5.3-7.8-6.8-12.3c-1.7-5.2-2.3-10.5-1.9-16c0.5-6.8,3.1-12.7,8.3-17.2c1.3-1.1,3-1.8,4.6-2.5
		c0.9-0.4,1-0.8,0.5-1.7C7.7,77,5.8,67,8,56.3c1.1-5.3,4.1-9.5,8.2-12.7c1.9-1.5,4.3-2.2,6.5-3.2C35.5,34.6,48.3,28.8,61,23.1
		C74.6,17,88.2,10.9,101.8,4.8c3.4-1.5,6.7-3.1,10.1-4.5c0.7-0.3,1.7-0.4,2.4-0.2c7.3,2.1,14.5,4.2,21.8,6.3
		c7.1,2.1,14.1,4.1,21.2,6.2c7.3,2.1,14.6,4.3,22,6.4c7.8,2.3,15.6,4.5,23.4,6.8c3.6,1.1,7.3,2.1,10.9,3.2c0.9,0.3,1.4,0.7,1.4,1.8
		c0,1.3,0,2.7,0.2,3.9c0.2,1.4-0.2,2.2-1.8,3c-12.6,5.7-25.3,11.3-38,16.9c-16,7.1-32,14.1-47.9,21.1c-2.6,1.2-5.2,2.5-7.8,3.7
		c-0.5,0.2-1.2,0.4-1.7,0.2c-5.3-1.5-10.6-3.1-15.9-4.7c-5.4-1.6-10.9-3.2-16.3-4.8c-3.4-1-6.8-2.1-10.2-3.1
		c-6.2-1.8-12.4-3.5-18.6-5.3c-7.3-2.1-14.5-4.2-21.7-6.4c-3.6-1.1-7.2-2.1-10.8-3.2c-1-0.3-1.5,0-1.8,0.9
		c-2.2,5.9-3.6,11.9-2.6,18.3c0.5,3.1,1.8,5.9,3.7,8.5c1.6,2.2,3.9,2.7,6.2,3.4c13.2,3.7,26.4,7.4,39.6,11
		c8.6,2.4,17.2,4.7,25.8,7.1c5.7,1.6,11.4,3.4,17.1,5c2.4,0.7,4.9,1.3,7.3,1.8c0.5,0.1,1.2-0.2,1.7-0.4c7.7-3.5,15.4-6.9,23-10.4
		c14.1-6.5,28.2-13,42.3-19.6c2.8-1.3,5.5-2.6,8.3-3.8c3.6-1.5,7.2-3,10.8-4.4c0.4-0.2,1-0.2,1.5,0c3.1,0.9,6.3,1.9,9.4,2.9
		c0.4,0.1,0.9,0.8,1,1.2c0.2,1.5,0.2,2.9,0.4,4.4c0.1,0.8-0.1,1.3-0.9,1.7c-2.5,1.1-4.9,2.3-7.4,3.4c-15.3,6.9-30.5,13.9-45.8,20.8
		c-13.3,6-26.6,11.8-39.9,17.7c-3.7,1.6-7.3,3.3-11,4.8c-0.5,0.2-1.2,0.3-1.7,0.1c-9.8-2.9-19.6-5.8-29.4-8.7
		c-8.3-2.5-16.5-5-24.8-7.5c-9.7-2.9-19.4-5.8-29.1-8.7c-3.6-1.1-7.2-2.1-10.8-3.3c-0.8-0.2-1.2-0.1-1.5,0.7
		C13.8,103.8,12.5,109.3,12.5,114.5z M76.8,26c0,0.1,0,0.2,0,0.4c0.3,0.1,0.7,0.3,1.1,0.4c5.5,1.7,11.1,3.4,16.6,5
		c8.9,2.7,17.8,5.4,26.7,8c9.7,2.9,19.4,5.8,29,8.8c1.1,0.3,2,0.2,3-0.2c3.2-1.4,6.4-2.7,9.6-4c0.3-0.1,0.6-0.4,1.1-0.8
		c-2.2-0.7-4.1-1.2-5.9-1.8c-10.3-3.1-20.6-6.2-30.9-9.3c-11.9-3.6-23.8-7.2-35.7-10.8c-4.2-1.3-4.2-1.3-8.1,0.8
		C81.2,23.8,79,24.9,76.8,26z M98.4,16.4c0,0.1,0,0.2,0,0.4c0.4,0.1,0.7,0.3,1.1,0.4c6.2,1.9,12.3,3.7,18.5,5.6c9,2.7,18,5.4,27,8.1
		c9.1,2.7,18.1,5.5,27.2,8.2c0.7,0.2,1.7,0.2,2.4-0.1c3.4-1.3,6.7-2.7,10.1-4.1c0.3-0.1,0.5-0.3,0.9-0.6c-0.4-0.2-0.6-0.4-0.9-0.5
		c-1.9-0.6-3.9-1.2-5.9-1.8c-11.7-3.5-23.3-7-35-10.5c-10.9-3.3-21.9-6.6-32.8-9.9c-1.4-0.4-2.7-0.5-4,0.4c-0.9,0.6-1.9,1-2.9,1.5
		C102.2,14.4,100.3,15.4,98.4,16.4z M115,47.1c-2.1-0.6-4.1-1.1-6.1-1.6c-0.6-0.1-1.3,0-1.9,0.3c-7.5,4.5-14.9,9-22.3,13.6
		c-0.2,0.2-0.5,0.3-0.8,0.6c2.7,0.8,5.3,1.5,7.8,2.2c0.7,0.2,1.5,0.2,2.2,0c4.7-1.5,9.4-3.1,14.1-4.7c2-0.7,4-1.3,5.9-2
		c0,0,0,0.1,0,0.1c-4.7,2.9-9.5,5.8-14.4,8.8c3.3,0.9,6.4,1.8,9.4,2.6c0.3,0.1,0.7,0,1-0.1c11.9-3.8,23.7-7.6,35.6-11.4
		c0.2-0.1,0.4-0.2,0.8-0.4c-2.2-0.6-4.2-1.1-6.2-1.6c-0.7-0.1-1.4-0.1-2.1,0.1c-3.3,1-6.5,2.1-9.8,3.2c-4.5,1.5-8.9,2.9-13.4,4.3
		c0-0.1-0.1-0.1-0.1-0.2c5.3-3.2,10.6-6.5,15.9-9.7c-0.1-0.1-0.2-0.2-0.3-0.2c-2.5-0.7-5-1.3-7.5-1.9c-0.3-0.1-0.7,0-1,0.1
		c-4.7,1.6-9.4,3.2-14.2,4.8c-2.8,0.9-5.6,1.9-8.4,2.8c0,0,0-0.1-0.1-0.1C104.5,53.6,109.7,50.4,115,47.1z M74.2,36.6
		c-2.5-0.6-4.7-1.2-6.9-1.7c-0.3-0.1-0.8,0.2-1.1,0.3c-5.3,2-10.6,4.1-15.9,6c-4.7,1.7-9.3,3.4-14.1,5.1c0.2,0.1,0.3,0.2,0.5,0.3
		c7,2,14,4,20.9,5.9c0.4,0.1,0.8,0.1,1.2,0c3.3-0.8,6.6-1.6,9.9-2.4c0.4-0.1,0.9-0.3,1.3-0.2c2.7,0.7,5.5,1.5,8.4,2.3
		c-2.2,1.5-4.2,2.9-6.3,4.4c2.5,0.7,4.8,1.4,7.2,2c0.4,0.1,1.1,0,1.5-0.3c6.4-4.7,12.7-9.5,19.1-14.3c0.2-0.2,0.4-0.4,0.7-0.7
		c-2.8-0.7-5.5-1.4-8.1-2.1c-0.3-0.1-0.7-0.1-1,0c-9.3,2.1-18.5,4.2-27.8,6.2c-1.4,0.3-2.8,0.9-4.1,0.7c-3-0.6-6-1.5-8.9-2.4
		c0-0.1,0-0.2,0-0.3C58.3,42.6,66.1,39.6,74.2,36.6z"/>
	<path d="M89.2,45.2c0-0.1-0.1-0.1-0.1-0.2c-3.4,0.8-6.8,1.7-10.3,2.5c1.5,0.6,3,1,4.5,1.4c0.2,0,0.4,0,0.5-0.1
		C85.7,47.6,87.4,46.4,89.2,45.2z"/>
</g>
</svg>
