<?xml version="1.0" encoding="windows-1252"?>
<!-- Generator: Adobe Illustrator 19.0.0, SVG Export Plug-In . SVG Version: 6.00 Build 0)  -->
<svg version="1.1" id="Layer_1" xmlns="http://www.w3.org/2000/svg" xmlns:xlink="http://www.w3.org/1999/xlink" x="0px" y="0px" viewBox="0 0 512 512" style="enable-background:new 0 0 512 512;" xml:space="preserve">
<g>
	<g>
		<circle cx="409.359" cy="42.616" r="42.046"/>
	</g>
</g>
<g>
	<g>
		<path d="M462.589,265.254l-41.003,13.549c-20.431,6.753-42.479-4.335-49.234-24.776c-5.261-15.92,0.31-32.813,12.689-42.695    l-8.476-35.738c-1.089-4.592,1.75-9.198,6.343-10.287l17.062-4.047c-2.549-6.538-22.011-56.451-24.639-63.191h-20.598    c-25.732,0-44.165,19.781-47.967,45.952l-8.883,54.103l-31.303,38.978l0.488,0.446c13.622,12.463,15.992,32.618,6.565,47.74    c4.596-0.861,8.923-3.279,12.081-7.211l47.144-58.703c2.188-2.725,3.636-5.969,4.201-9.417c6.343-38.57,9.79-61.685,10.237-63.914    v-0.002c0.4-1.994,2.247-3.361,4.272-3.159s3.563,1.906,3.563,3.941l0.009,340.261c0,13.446,10.9,24.345,24.345,24.345    c13.445,0,24.345-10.899,24.345-24.345V292.491h10.51v194.593c0,13.446,10.9,24.345,24.345,24.345    c13.445,0,24.345-10.899,24.345-24.345C463.031,293.498,462.589,265.604,462.589,265.254z"/>
	</g>
</g>
<g>
	<g>
		<path d="M422.78,130.077l-8.143-14.809l7.239-13.167c1.078-1.96-0.343-4.367-2.582-4.367h-19.869    c-2.237,0-3.662,2.404-2.582,4.367l7.239,13.167l-8.173,14.865c-0.948,1.721-1.257,3.725-0.874,5.654l5.052,25.445l19.118-4.534    l4.427-20.857C424.048,133.881,423.745,131.834,422.78,130.077z"/>
	</g>
</g>
<g>
	<g>
		<circle cx="107.701" cy="42.616" r="42.046"/>
	</g>
</g>
<g>
	<g>
		<path d="M255.303,250.407l-44.986-41.162c-0.06-11.914-0.258-51.497-0.318-63.407c-0.133-26.34-21.669-47.77-48.01-47.77    c-11.292,0-97.604,0-108.914,0c-26.341,0-47.878,21.43-48.01,47.77L4.315,294.884c-0.037,7.201,3.707,13.552,9.377,17.186v16.87    H8.384c-4.63,0-8.384,3.754-8.384,8.384v82.707c0,4.63,3.754,8.384,8.384,8.384h31.539c4.63,0,8.384-3.754,8.384-8.384v-82.707    c0-4.63-3.754-8.384-8.384-8.384H34.52v-16.267c6.11-3.433,10.707-10.012,10.745-17.585c0-159.607-0.047-149.702,0.089-150.91    c0.242-2.148,2.119-3.734,4.277-3.611c2.158,0.122,3.842,1.91,3.842,4.071l0.009,170.437c7.493,4.583,12.504,12.841,12.504,22.249    v82.707c0,9.407-5.011,17.666-12.504,22.249v44.804c0,13.446,10.899,24.345,24.345,24.345s24.345-10.899,24.345-24.345V292.491    h10.07v194.593c0,13.446,10.899,24.345,24.345,24.345s24.345-10.899,24.345-24.345c0-10.902,0-306.005,0-343.437    c0-2.149,1.743-3.892,3.892-3.892c2.654,0,4.807,2.149,4.813,4.803l0.15,73.766c0.028,5.658,2.417,11.046,6.592,14.866    l51.535,47.153c8.264,7.562,21.097,6.996,28.662-1.273C264.14,270.802,263.57,257.97,255.303,250.407z"/>
	</g>
</g>
<g>
	<g>
		<path d="M511.655,145.839c-0.131-26.341-21.668-47.771-48.01-47.771h-20.793c-2.511,6.559-19.616,51.246-22.321,58.314    l4.775-1.132c4.592-1.089,9.198,1.75,10.287,6.343l6.706,28.274l20.291-6.706v-37.395c0-2.345,1.901-4.247,4.247-4.247    c2.345,0,4.248,1.901,4.248,4.246c0,0.091-0.001,0.184-0.003,0.276c0.128,25.516,0.15,29.919,0.271,53.904l-24.725,8.17    l-43.634,14.419c-10.622,3.51-16.396,15.043-12.897,25.629c3.516,10.636,14.987,16.413,25.629,12.897l82.354-27.214    c8.345-2.758,13.966-10.575,13.921-19.364C511.966,207.609,511.693,153.244,511.655,145.839z"/>
	</g>
</g>
<g>
</g>
<g>
</g>
<g>
</g>
<g>
</g>
<g>
</g>
<g>
</g>
<g>
</g>
<g>
</g>
<g>
</g>
<g>
</g>
<g>
</g>
<g>
</g>
<g>
</g>
<g>
</g>
<g>
</g>
</svg>