<?xml version="1.0" encoding="windows-1252"?>
<!-- Generator: Adobe Illustrator 16.0.0, SVG Export Plug-In . SVG Version: 6.00 Build 0)  -->
<!DOCTYPE svg PUBLIC "-//W3C//DTD SVG 1.1//EN" "http://www.w3.org/Graphics/SVG/1.1/DTD/svg11.dtd">
<svg version="1.1" id="Capa_1" xmlns="http://www.w3.org/2000/svg" xmlns:xlink="http://www.w3.org/1999/xlink" x="0px" y="0px" width="485.213px" height="485.212px" viewBox="0 0 485.213 485.212" style="enable-background:new 0 0 485.213 485.212;" xml:space="preserve">
<g>
	<path d="M454.89,121.304c-14.071,0-25.385,9.771-28.787,22.745h-47.025l64.289-85.707c3.552,1.449,7.435,2.308,11.523,2.308   c16.759,0,30.322-13.562,30.322-30.324C485.212,13.567,471.648,0,454.89,0c-16.765,0-30.327,13.567-30.327,30.327   c0,7.108,2.814,13.385,6.931,18.54l-71.369,95.183h-58.408c-3.431-12.975-14.715-22.745-28.782-22.745   c-16.75,0-30.326,13.562-30.326,30.324c0,7.376,2.961,13.892,7.332,19.133l-56.138,78.596l-42.526-8.468   c-0.947-15.931-13.831-28.607-29.97-28.607c-16.748,0-30.327,13.562-30.327,30.324s13.579,30.324,30.327,30.324   c11.978,0,22.108-7.107,27.037-17.175l35.789,7.164l-52.047,72.83c-3.36-1.278-6.959-2.165-10.779-2.165   c-16.748,0-30.327,13.562-30.327,30.321c0,16.769,13.579,30.331,30.327,30.331c16.746,0,30.324-13.562,30.324-30.331   c0-7.374-2.947-13.885-7.33-19.13l56.133-78.599l42.529,8.499c0.95,15.91,13.843,28.581,29.972,28.581   c16.76,0,30.322-13.558,30.322-30.327c0-7.107-2.81-13.385-6.931-18.537l71.374-95.183h58.403   c3.436,12.974,14.716,22.745,28.787,22.745c16.759,0,30.322-13.565,30.322-30.327S471.648,121.304,454.89,121.304z    M284.457,244.919c-3.557-1.454-7.439-2.313-11.523-2.313c-11.979,0-22.122,7.105-27.055,17.178l-35.775-7.137l52.05-72.883   c3.374,1.304,6.958,2.191,10.78,2.191c14.067,0,25.352-9.773,28.782-22.745h47.03L284.457,244.919z M485.212,454.886v30.326H0.001   V0h30.327v454.886H485.212z"/>
</g>
<g>
</g>
<g>
</g>
<g>
</g>
<g>
</g>
<g>
</g>
<g>
</g>
<g>
</g>
<g>
</g>
<g>
</g>
<g>
</g>
<g>
</g>
<g>
</g>
<g>
</g>
<g>
</g>
<g>
</g>
</svg>