<?xml version='1.0' encoding='iso-8859-1'?>
<!DOCTYPE svg PUBLIC '-//W3C//DTD SVG 1.1//EN' 'http://www.w3.org/Graphics/SVG/1.1/DTD/svg11.dtd'>
<svg version="1.1" xmlns="http://www.w3.org/2000/svg" viewBox="0 0 512 512" xmlns:xlink="http://www.w3.org/1999/xlink" enable-background="new 0 0 512 512">
  <g>
    <rect width="448" x="32" y="384" height="32"/>
    <path d="m441.211,324.828l-53.508-22.938c-3.359-1.445-6.273-2.758-8.898-3.945-13.258-5.992-22.016-9.945-42.805-9.945-4.609,0-8.992,1.984-12.031,5.453-16.414,18.719-29.485,26.547-67.969,26.547-42.055,0-55.477-8.422-66.773-25.008-2.984-4.375-7.945-6.992-13.242-6.992-20.773,0-29.531,3.953-42.781,9.945-2.633,1.188-5.547,2.5-8.906,3.945l-53.508,22.938c-13.1,5.612-23.479,15.322-30.242,27.172h430.904c-6.762-11.85-17.142-21.56-30.241-27.172z"/>
    <path d="M32,496c0,8.844,7.164,16,16,16h416c8.836,0,16-7.156,16-16v-48H32V496z"/>
    <path d="M368,16c0-8.836-7.164-16-16-16H160c-8.836,0-16,7.164-16,16v16h224V16z"/>
    <path d="m163.5,190.766c11.617,56.343 26.906,81.234 92.5,81.234 65.594,0 80.883-24.891 92.5-81.234 20.313-4.93 35.5-24.023 35.5-46.766 0-14.524-6.232-27.512-16-36.32v-43.68h-224v43.68c-9.768,8.809-16,21.796-16,36.32 0,22.742 15.188,41.836 35.5,46.766zm124.5-62.766c8.837,0 16,7.163 16,16 0,8.836-7.163,16-16,16s-16-7.164-16-16c0-8.837 7.163-16 16-16zm0,96c0,8.836-7.164,16-16,16h-32c-8.836,0-16-7.164-16-16s7.164-16 16-16h32c8.836,0 16,7.164 16,16zm-64-96c8.837,0 16,7.163 16,16 0,8.836-7.163,16-16,16s-16-7.164-16-16c0-8.837 7.163-16 16-16z"/>
  </g>
</svg>
