<?xml version="1.0" encoding="utf-8"?>
<!-- Generator: Adobe Illustrator 22.1.0, SVG Export Plug-In . SVG Version: 6.00 Build 0)  -->
<svg version="1.1" xmlns="http://www.w3.org/2000/svg" xmlns:xlink="http://www.w3.org/1999/xlink" x="0px" y="0px"
	 viewBox="0 0 1692 1658" style="enable-background:new 0 0 1692 1658;" xml:space="preserve">
<style type="text/css">
	.st0{display:none;}
	.st1{display:inline;}
	.st2{fill:#FFFFFF;}
</style>
<g id="Layer_2" class="st0">
	<g class="st1">
		<path class="st2" d="M1074,1333c-128,0-256,0-384,0c0-435,0-870,0-1305c128,0,256,0,384,0C1074,463,1074,898,1074,1333z
			 M919.8,768c0.1-0.7,0.2-1.3,0.2-1.8c0.3-5.3,0.6-10.7,0.8-16c0.5-11.2,1.1-22.3,1.6-33.5c0.7-15.2,1.5-30.3,2.2-45.5
			c0.5-11.2,1.1-22.3,1.6-33.5c0.7-15.2,1.5-30.5,2.2-45.7c0.5-11.2,1.1-22.3,1.6-33.5c0.7-14.8,1.5-29.5,2.2-44.3
			c0.6-11.5,1.1-23,1.6-34.5c0.8-15.6,1.5-31.1,2.3-46.7c0.5-10.9,1-21.7,1.6-32.6c0.7-15,1.5-30,2.2-45c0.5-11.3,1-22.5,1.6-33.8
			c0.9-17.9,1.8-35.7,2.7-53.6c0.6-12.7,1.2-25.4,1.8-38.1c0.1-1.6,0-3.2,0-4.9c-63,0-125.9,0-189,0c0,0.9,0,1.7,0,2.4
			c0.5,11.6,1.1,23.1,1.6,34.7c0.5,10.8,1,21.5,1.6,32.3c0.7,15.4,1.5,30.8,2.3,46.2c0.5,10.9,1,21.9,1.6,32.8
			c0.8,15.5,1.5,31,2.3,46.4c0.5,10.9,1,21.9,1.6,32.8c0.7,14.8,1.5,29.7,2.2,44.5c0.6,11.5,1.1,23,1.6,34.5
			c0.7,15.4,1.5,30.8,2.3,46.2c0.5,10.9,1,21.7,1.6,32.6c0.8,15.7,1.5,31.4,2.3,47.2c0.5,10.7,1,21.4,1.6,32.1
			c0.7,15.1,1.5,30.2,2.2,45.2c0.5,10.5,1,21.1,1.5,31.6c0,0.5,0.2,0.9,0.3,1.4C828.9,768,874.2,768,919.8,768z M850.3,1046.2
			c9.3,0.1,18.2-0.6,27-2.6c33.4-7.5,57.5-26.6,71.4-57.9c8.1-18.1,10.8-37.2,9.3-56.9c-0.9-12-3.1-23.6-7.4-34.8
			c-11.8-31-33.3-51.9-65.3-61.3c-24-7-48.2-6.5-72,1.4c-25.2,8.3-44.2,24.3-56.7,47.8c-7.8,14.7-11.7,30.5-12.7,47.1
			c-1.1,18.2,1.2,35.9,8,52.9c10.2,25.4,27.6,44.1,52.7,55.4C819.2,1043.7,834.6,1046.4,850.3,1046.2z"/>
		<path d="M919.8,768c-45.5,0-90.8,0-136.2,0c-0.1-0.5-0.3-0.9-0.3-1.4c-0.5-10.5-1-21.1-1.5-31.6c-0.7-15.1-1.5-30.2-2.2-45.2
			c-0.5-10.7-1-21.4-1.6-32.1c-0.8-15.7-1.5-31.4-2.3-47.2c-0.5-10.9-1-21.7-1.6-32.6c-0.7-15.4-1.5-30.8-2.3-46.2
			c-0.6-11.5-1.1-23-1.6-34.5c-0.7-14.8-1.5-29.7-2.2-44.5c-0.5-10.9-1-21.9-1.6-32.8c-0.8-15.5-1.5-31-2.3-46.4
			c-0.5-10.9-1-21.9-1.6-32.8c-0.7-15.4-1.5-30.8-2.3-46.2c-0.5-10.8-1-21.5-1.6-32.3c-0.6-11.6-1.1-23.1-1.6-34.7
			c0-0.8,0-1.6,0-2.4c63.1,0,126,0,189,0c0,1.7,0.1,3.3,0,4.9c-0.6,12.7-1.2,25.4-1.8,38.1c-0.9,17.9-1.8,35.7-2.7,53.6
			c-0.6,11.3-1.1,22.5-1.6,33.8c-0.7,15-1.5,30-2.2,45c-0.5,10.9-1,21.7-1.6,32.6c-0.8,15.6-1.5,31.1-2.3,46.7
			c-0.6,11.5-1.1,23-1.6,34.5c-0.7,14.8-1.5,29.5-2.2,44.3c-0.5,11.2-1.1,22.3-1.6,33.5c-0.7,15.2-1.5,30.5-2.2,45.7
			c-0.5,11.2-1.1,22.3-1.6,33.5c-0.7,15.2-1.5,30.3-2.2,45.5c-0.5,11.2-1.1,22.3-1.6,33.5c-0.3,5.3-0.5,10.7-0.8,16
			C920,766.7,919.9,767.2,919.8,768z"/>
		<path d="M850.3,1046.2c-15.7,0.2-31.1-2.5-45.7-9.1c-25.1-11.3-42.4-30-52.7-55.4c-6.8-17-9.1-34.7-8-52.9
			c1-16.6,4.9-32.4,12.7-47.1c12.5-23.5,31.5-39.4,56.7-47.8c23.8-7.9,48-8.4,72-1.4c32,9.4,53.5,30.3,65.3,61.3
			c4.3,11.2,6.5,22.9,7.4,34.8c1.4,19.7-1.3,38.8-9.3,56.9c-14,31.3-38,50.5-71.4,57.9C868.5,1045.6,859.6,1046.3,850.3,1046.2z"/>
	</g>
</g>
<g id="Layer_3">
	<g>
		<path d="M898.9,762c-45.5,0-90.8,0-136.2,0c-0.1-0.5-0.3-0.9-0.3-1.4c-0.5-10.5-1-21.1-1.5-31.6c-0.7-15.1-1.5-30.2-2.2-45.2
			c-0.5-10.7-1-21.4-1.6-32.1c-0.8-15.7-1.5-31.4-2.3-47.2c-0.5-10.9-1-21.7-1.6-32.6c-0.7-15.4-1.5-30.8-2.3-46.2
			c-0.6-11.5-1.1-23-1.6-34.5c-0.7-14.8-1.5-29.7-2.2-44.5c-0.5-10.9-1-21.9-1.6-32.8c-0.8-15.5-1.5-31-2.3-46.4
			c-0.5-10.9-1-21.9-1.6-32.8c-0.7-15.4-1.5-30.8-2.3-46.2c-0.5-10.8-1-21.5-1.6-32.3c-0.6-11.6-1.1-23.1-1.6-34.7
			c0-0.8,0-1.6,0-2.4c63.1,0,126,0,189,0c0,1.7,0.1,3.3,0,4.9c-0.6,12.7-1.2,25.4-1.8,38.1c-0.9,17.9-1.8,35.7-2.7,53.6
			c-0.6,11.3-1.1,22.5-1.6,33.8c-0.7,15-1.5,30-2.2,45c-0.5,10.9-1,21.7-1.6,32.6c-0.8,15.6-1.5,31.1-2.3,46.7
			c-0.6,11.5-1.1,23-1.6,34.5c-0.7,14.8-1.5,29.5-2.2,44.3c-0.5,11.2-1.1,22.3-1.6,33.5c-0.7,15.2-1.5,30.5-2.2,45.7
			c-0.5,11.2-1.1,22.3-1.6,33.5c-0.7,15.2-1.5,30.3-2.2,45.5c-0.5,11.2-1.1,22.3-1.6,33.5c-0.3,5.3-0.5,10.7-0.8,16
			C899.1,760.7,899,761.3,898.9,762z"/>
		<path d="M830,1064c-15.7,0.2-31.1-2.5-45.7-9.1c-25.1-11.3-42.4-30-52.7-55.4c-6.8-17-9.1-34.7-8-52.9c1-16.6,4.9-32.4,12.7-47.1
			c12.5-23.5,31.5-39.4,56.7-47.8c23.8-7.9,48-8.4,72-1.4c32,9.4,53.5,30.3,65.3,61.3c4.3,11.2,6.5,22.9,7.4,34.8
			c1.4,19.7-1.3,38.8-9.3,56.9c-14,31.3-38,50.5-71.4,57.9C848.2,1063.3,839.3,1064,830,1064z"/>
	</g>
</g>
<g id="Layer_1">
	<g id="comment">
		<g>
			<path d="M447.5,1651.6c-23.1-10.9-37.5-34.2-37.5-59.7V1282H158.8C71.1,1282,0,1209,0,1120.1l0-959.9C0,71.6,71.1,1,158.8,1
				l1374.8,0c86.8,0,158.3,70.7,158.3,159.2v959.9c0,88.9-71.5,161.9-158.3,161.9H956.9l-439.5,361.3c-12.1,9.9-26.9,14.7-42,14.7
				C465.8,1658,456.5,1655.9,447.5,1651.6z M1533.7,133H158.8c-14.4,0-26.8,12-26.8,27.2v959.9c0,15.3,12.7,29.9,26.8,29.9h316.6
				c36.5,0,66.6,28.8,66.6,65.3V1452l349.5-287.4c11.8-9.7,26.4-14.7,41.7-14.7h600.4c13.7,0,25.3-14.1,25.3-29.9V160.2
				C1559,144.5,1547.6,133,1533.7,133L1533.7,133z"/>
		</g>
	</g>
	<g id="Layer_1_1_">
	</g>
</g>
</svg>
