<?xml version="1.0" encoding="utf-8"?>
<!-- Generator: Adobe Illustrator 22.1.0, SVG Export Plug-In . SVG Version: 6.00 Build 0)  -->
<svg version="1.1" id="Layer_1" xmlns="http://www.w3.org/2000/svg" xmlns:xlink="http://www.w3.org/1999/xlink" x="0px" y="0px"
	 viewBox="0 0 444.1 361.6" style="enable-background:new 0 0 444.1 361.6;" xml:space="preserve">
<style type="text/css">
	.st0{fill:#FFFFFF;}
</style>
<g>
	<path d="M0,15.1c0.6-1.1,1.1-2.2,1.7-3.3C4.9,5,10.1,0.9,17.7,0.2c2-0.2,4-0.2,6.1-0.2c87.3,0,174.6,0,262,0.1
		c4,0,8.3,0.3,11.8,1.8c8.4,3.5,11.7,10.6,11.7,19.5c0,11.6,0,23.1,0,34.7c0,49.4,0,98.9,0,148.3c0,7.3-1.6,13.7-7.6,18.5
		c-4.5,3.5-9.6,4.2-15.1,4.2c-56.7-0.1-113.3,0-170-0.1c-4.4,0-7.6,1.2-10.9,4c-18.3,15.5-36.8,30.9-55.2,46.2
		c-2.4,2-4.9,4.1-7.6,5.7c-4.2,2.4-6.8,0.8-6.6-4c0.1-2.4,0.6-4.9,1.2-7.2c3.5-13.1,7-26.2,10.5-39.3c0.4-1.5,0.8-3,1.3-5.2
		c-7,0-13.5,0-20.1,0c-3,0-6.1,0-9.1,0c-9.9-0.2-16.1-4.8-19.4-14.3c-0.2-0.5-0.5-1-0.8-1.5C0,145.8,0,80.5,0,15.1z"/>
	<path d="M134.8,241.7c2.5,0,4.2,0,6,0c48.9,0,97.7,0,146.6,0c14.9,0,26.6-5.9,32.9-19.6c2.5-5.4,3.5-12,3.6-18
		c0.3-40.2,0.2-80.4,0.2-120.6c0-1.8,0-3.7,0-5.9c1.9,0,3.4,0,4.8,0c30.9,0,61.9,0,92.8,0c14.8,0,22.6,7.7,22.6,22.4
		c0,60.9,0,121.7,0,182.6c0,14.3-7.9,22.2-22.3,22.2c-16.3,0-32.7,0-49,0c-1.6,0-3.1,0-5.1,0c4,15.1,7.9,29.7,11.8,44.3
		c0.7,2.6,1.3,5.4,1.3,8.1c0.1,3.8-2.3,5.3-5.7,3.7c-2.3-1.1-4.4-2.7-6.4-4.4c-19.4-16.2-38.9-32.4-58.2-48.7
		c-2.6-2.2-5.1-3.2-8.5-3.2c-48,0.1-96,0.1-144,0.1c-15.5,0-23.1-7.6-23.1-23.2c0-11.6,0-23.1,0-34.7
		C134.8,245.3,134.8,243.8,134.8,241.7z"/>
	<path class="st0" d="M279.5,64.1H35.2c-5.5,0-10-4.5-10-10v0c0-5.5,4.5-10,10-10h244.3c5.5,0,10,4.5,10,10v0
		C289.5,59.6,285,64.1,279.5,64.1z"/>
	<path class="st0" d="M276.8,105.1H32.6c-5.5,0-10-4.5-10-10v0c0-5.5,4.5-10,10-10h244.3c5.5,0,10,4.5,10,10v0
		C286.8,100.6,282.3,105.1,276.8,105.1z"/>
	<path class="st0" d="M276.8,144.9H32.6c-5.5,0-10-4.5-10-10v0c0-5.5,4.5-10,10-10h244.3c5.5,0,10,4.5,10,10v0
		C286.8,140.4,282.3,144.9,276.8,144.9z"/>
	<path class="st0" d="M276.8,183.1H32.6c-5.5,0-10-4.5-10-10v0c0-5.5,4.5-10,10-10h244.3c5.5,0,10,4.5,10,10v0
		C286.8,178.6,282.3,183.1,276.8,183.1z"/>
</g>
</svg>
