<?xml version="1.0" encoding="utf-8"?>
<!-- Generator: Adobe Illustrator 22.1.0, SVG Export Plug-In . SVG Version: 6.00 Build 0)  -->
<svg version="1.1" id="Layer_1" xmlns="http://www.w3.org/2000/svg" xmlns:xlink="http://www.w3.org/1999/xlink" x="0px" y="0px"
	 viewBox="0 0 980 980" style="enable-background:new 0 0 980 980;" xml:space="preserve">
<path d="M370,821c-2.7,0-5.3,0-8,0c-1.3-0.4-2.5-0.7-3.8-1.1c-16.7-4.3-30.7-12.4-34.9-30.4c-12.1-51.2-23.4-102.5-35.2-153.7
	c-6.5-28.4-13.5-56.6-20.1-85c-0.9-4-2.9-5.7-6.9-6.4c-53.8-10-107.6-20.3-161.4-30.4c-26.5-5-53-10-79.5-14.9
	c-6.2-1.1-10.8-4.4-13.8-9.7C4,485.1,2.1,480.5,0,476c0-3,0-6,0-9c0.4-0.7,0.8-1.4,1.1-2.1c4.9-12,12.4-21.2,25.6-24.6
	c4.2-1.1,8.2-2.8,12.3-4.1c139.1-45,278.1-90.3,417.4-134.8c124.4-39.7,249.1-78.5,373.7-117.4c30.9-9.6,61.7-19.9,93.8-25.1
	c4.3,0,8.7,0,13,0c0.7,0.3,1.5,0.7,2.2,0.8c19.9,2.2,34.8,10.8,40.8,31.2c0,3.7,0,7.3,0,11c-2.2,8.8-4.2,17.8-6.7,26.5
	c-27.2,94.5-54.4,189-81.8,283.4c-11.2,38.7-22.9,77.2-34.3,115.8c-2.8,9.5-8.7,16.3-17,21.3c-11.7,7.1-24,7.7-37.1,4.7
	c-40.4-9.2-80.8-18.4-121.3-27.1c-26.7-5.7-53.6-10.4-80.3-15.8c-4.3-0.9-7.2,0.5-10.2,3.3c-21.2,20.5-42.5,40.9-63.7,61.4
	c-45.9,44.4-91.6,88.9-137.5,133.2C384.3,814.3,378.4,819.8,370,821z M929.4,235.6c-0.5-0.4-1-0.8-1.5-1.1
	C784.6,339.6,640.1,443.1,497.1,550.5c2.5,0.8,3.5,1.3,4.6,1.5c10.6,2,21.2,4.1,31.9,5.8c78.3,12.4,155.8,28.7,232.9,46.7
	c15.6,3.6,31.2,6.7,46.8,10.2c4.1,0.9,6.6,0,7.7-4.4c1-4.2,2.7-8.2,3.9-12.4c32.7-113.1,65.4-226.3,98-339.4
	C925.2,250.9,927.3,243.2,929.4,235.6z M875,210.8c-0.1-0.5-0.2-0.9-0.4-1.4c-2.3,0.6-4.7,1.2-7,1.9
	c-135.2,43.1-270.4,86-405.5,129.3c-104.5,33.5-208.9,67.5-313.3,101.4c-21.7,7-43.2,14.6-64.7,22c-3,1-5.8,2.5-8.6,3.8
	c0.1,0.5,0.2,0.9,0.4,1.4c15.7,2.7,31.5,5.3,47.2,8.3c51.5,9.7,103,19.7,154.5,29.3c2.8,0.5,6.3,0,8.9-1.4
	c89.6-46.6,178.8-94,268.7-140.1c94.9-48.6,190.5-95.9,287.8-139.6C853.7,220.9,864.3,215.8,875,210.8z M812.1,273.3
	c-0.2-0.3-0.4-0.7-0.6-1c-3,1.5-6.1,2.9-9.1,4.5c-77.6,40.8-155.4,81.3-232.8,122.5c-84.6,45-168.9,90.6-253.4,135.9
	c-8,4.3-8.1,4.4-6.5,11.3c14.2,63.8,28.3,127.6,42.6,191.5c2.7,12.1,5.8,24.2,9.1,37.7c1.3-3.8,2.1-6.1,2.8-8.5
	c6.6-23.2,13.3-46.4,19.9-69.6c12.7-44.6,25.4-89.2,38-133.9c1.8-6.5,5.3-11.5,10.8-15.5c47.1-34.3,94-68.9,141.3-103
	c76.9-55.6,154-110.9,231.1-166.4C807.5,277,809.8,275.1,812.1,273.3z M420.6,720.4c0.6,0.4,1.1,0.8,1.7,1.2
	c40.7-39.9,81.4-79.7,122.8-120.2c-2.1-0.9-2.7-1.2-3.3-1.3c-26.4-4.4-52.9-8.7-79.3-13.2c-4.2-0.7-6.3,0.5-7.5,4.8
	c-8.2,30.9-16.7,61.7-25,92.5C426.8,696.3,423.8,708.4,420.6,720.4z"/>
</svg>
