<?xml version="1.0" encoding="utf-8"?>
<!-- Generator: Adobe Illustrator 22.1.0, SVG Export Plug-In . SVG Version: 6.00 Build 0)  -->
<svg version="1.1" id="Layer_1" xmlns="http://www.w3.org/2000/svg" xmlns:xlink="http://www.w3.org/1999/xlink" x="0px" y="0px"
	 viewBox="0 0 506.2 393.9" style="enable-background:new 0 0 506.2 393.9;" xml:space="preserve">
<g>
	<path d="M39.2,245.9c2.9,0,4.8,0,6.8,0c39.7,0,79.3,0.1,119-0.1c4,0,6.8,1.2,9.5,4c9.6,9.9,19.4,19.7,29.4,29.3
		c1.7,1.6,4.5,2.9,6.8,2.9c28.3,0.2,56.7,0.2,85,0c2.2,0,4.9-1.1,6.5-2.7c10.3-10,20.2-20.3,30.6-30.2c1.9-1.8,5.1-3.2,7.7-3.2
		c40.2-0.2,80.3-0.1,120.5-0.1c1.8,0,3.5,0,6.1,0c-1.2-2-1.8-3.3-2.6-4.4c-15.6-22.6-31.3-45.2-46.8-67.8c-1.9-2.8-4-3.8-7.3-3.8
		c-13.8,0.2-27.7,0.1-41.5,0.1c-8.2,0-13.4-4.4-13.5-11.5c-0.1-7.2,5.1-12.1,13.4-12.1c19.3-0.1,38.7,0,58,0.2c1.7,0,4,1,4.9,2.4
		c19.1,27.5,38.6,54.7,56.9,82.7c12.2,18.6,18.4,39.2,17.7,61.9c-0.8,22.3-0.2,44.7-0.2,67c0,16.6-8.1,27.4-24.3,31.2
		c-5.9,1.4-12.2,2.1-18.3,2.1c-140.3,0.1-280.6,0.1-420.9-0.1c-7.8,0-16-1.4-23.4-3.9C6,385.4,0.2,376,0.2,362.4c0-24,0.6-48-0.2-72
		c-0.6-20.1,4.8-38.4,15.1-55c11.6-18.6,24.5-36.5,36.9-54.6c7.1-10.4,14.4-20.9,21.8-31.1c1.2-1.6,3.6-3.3,5.4-3.3
		c19.7-0.2,39.3-0.2,59-0.1c7.3,0.1,12.2,4.4,12.8,10.8c0.6,5.5-3.3,11-8.8,12.4c-1.7,0.4-3.6,0.4-5.5,0.4
		c-13.8,0-27.7-0.1-41.5,0.1c-2,0-4.7,1.1-5.7,2.6c-16.4,23.3-32.5,46.8-48.7,70.2C40.4,243.5,40.1,244.2,39.2,245.9z"/>
	<path d="M253.1,0c51.1,0,102.3,0,153.4,0c2.6,0,5.4,0.1,7.9,0.8c7.5,2,12.2,9,11.6,16.6c-0.6,7.8-6.6,13.9-14.5,14.7
		c-2,0.2-4,0.2-6,0.2c-101.3,0-202.6,0-303.8,0c-2.3,0-4.7,0-7-0.2c-8.4-0.8-14.4-7.4-14.5-15.6C80.2,8,86.3,1,94.7,0.1
		c1.8-0.2,3.7-0.1,5.5-0.1C151.2,0,202.2,0,253.1,0z"/>
	<path d="M253.2,114.9c-28.3,0-56.7,0.1-85,0c-12.4,0-20.3-11.5-15.6-22.3c2.9-6.6,8.2-9.8,15.4-9.8c14.7,0,29.3,0,44,0
		c41.2,0,82.3,0,123.5,0c2.8,0,5.7,0,8.4,0.8c7.5,2.2,12.2,9.8,11.1,17.4c-1.1,7.9-7.6,13.8-15.9,13.8c-26.2,0.1-52.3,0.1-78.5,0.1
		C258.2,115,255.7,115,253.2,114.9z"/>
	<path d="M252.7,206.8c-18.2,0-36.3,0.1-54.5,0c-10.8-0.1-18-7.6-17.2-17.6c0.6-7.3,5.8-13.1,13.1-14.3c2-0.3,4-0.5,6-0.5
		c35.5,0,71,0,106.4,0c10.7,0,17.5,4.9,18.8,13.4c1.7,10.6-5.7,19-17.1,19C289.7,206.9,271.2,206.8,252.7,206.8z"/>
</g>
</svg>
