<?xml version="1.0" encoding="utf-8"?>
<!-- Generator: Adobe Illustrator 22.1.0, SVG Export Plug-In . SVG Version: 6.00 Build 0)  -->
<svg version="1.1" id="Layer_1" xmlns="http://www.w3.org/2000/svg" xmlns:xlink="http://www.w3.org/1999/xlink" x="0px" y="0px"
	 viewBox="0 0 476 390.2" style="enable-background:new 0 0 476 390.2;" xml:space="preserve">
<style type="text/css">
	.st0{fill:#4D7FFF;}
</style>
<g>
	<path d="M104.1,295.6c0,22.6,0,44.7,0,66.9c0,14.6-10.1,25.6-25,27.6c-12,1.6-24.8-7.2-28.3-19.7c-1-3.5-1.1-7.2-1.1-10.9
		c-0.1-49.2-0.1-98.3,0-147.5c0-3.8-1.1-6.5-3.8-9.2c-12.3-12-24.3-24.3-36.5-36.3c-8.3-8.2-11.6-17.9-7.8-29.1
		c3.8-11.2,12-17.3,23.7-18.5c7.9-0.8,14.9,1.6,20.5,7.1c12.3,12,24.5,24.1,36.6,36.3c2.3,2.3,4.6,3.3,7.8,3.2
		c34.7-0.1,69.3,0.1,104-0.1c9.2,0,17.5-4,25-8.9c6.4-4.2,12.4-8.9,18.9-13.7c0.9,0.8,2.1,1.9,3.2,3c27.6,27.6,55.1,55.2,82.8,82.7
		c2.3,2.2,2.6,3.9,1.8,7.2c-2,8.3-4,16.9-4.1,25.4c-0.5,33.7-0.2,67.3-0.3,101c0,15.3-10.2,26.6-25.4,28.1
		c-12.9,1.3-25.6-8.4-28.6-22.2c-0.5-2.1-0.4-4.3-0.4-6.5c0-21.8,0-43.6,0-65.9C212.8,295.6,158.7,295.6,104.1,295.6z"/>
	<path d="M340.2,214.5c-29.2-29.2-58-58-87.2-87.1c21.2-21.9,39.8-47,66-64.2c3.3-2.2,6.7-4.7,10.4-5.8c6.8-2,8.3-6.7,9.8-12.9
		c2.5-10.2,6.3-20.2,10.2-30c1.5-3.7,4.6-7,7.5-9.8c6.2-6.2,12.9-6.3,18.7,0.2c4.1,4.6,7.9,10.1,10.1,15.8c3.6,9.4,5.6,19.4,8.5,29
		c0.5,1.6,1.4,3.7,2.7,4.2c23.6,9.1,34.9,27.4,39.2,51.2c0.1,0.5,0.2,0.9,0.4,1.4c4.5,0.6,8.9,0.9,13.3,1.9
		c15.7,3.6,24.4,13.6,26.1,31.1c1.7,16.8-5.3,43.8-30.4,53.4c-8.8,3.4-18.6,5-28,5.9c-14.2,1.4-28.6,1.2-42.9,2.2
		C361.5,202,349.9,206.6,340.2,214.5z"/>
	<path class="st0" d="M263.1,299.7c-2.7,0-4.7,0-6.7,0c-32.1,0-64.3-0.1-96.4,0.1c-4.5,0-6-1.1-6-5.9c0.2-42.1,0.2-84.3,0-126.4
		c0-4.5,1.1-6.3,5.8-6c7.3,0.4,14.7-0.4,22,0.2c17,1.3,31-5.7,44-15.4c2.5-1.9,4.8-4.1,7.4-5.9c3.9-2.9,7.8-2.6,11.2,0.8
		c28.4,28.4,56.8,56.8,85.2,85.1c2.8,2.8,3.3,5.5,1.9,9c-4.1,10-5.4,20.4-5.3,31.1c0.1,13.7-0.1,27.3,0.1,41
		c0.1,4.1-1.1,5.5-5.3,5.5c-17.5-0.2-35-0.2-52.5,0c-4.1,0-5.9-1.1-5.4-5.4C263.3,305.2,263.1,302.8,263.1,299.7z"/>
</g>
</svg>
