<?xml version="1.0" encoding="utf-8"?>
<!-- Generator: Adobe Illustrator 22.1.0, SVG Export Plug-In . SVG Version: 6.00 Build 0)  -->
<svg version="1.1" id="Layer_1" xmlns="http://www.w3.org/2000/svg" xmlns:xlink="http://www.w3.org/1999/xlink" x="0px" y="0px"
	 viewBox="0 0 1212 868" style="enable-background:new 0 0 1212 868;" xml:space="preserve">
<g>
	<path d="M499,0c11.1,2.1,22.4,3.5,33.2,6.5c71.6,19.2,125.3,84,130.9,157.9c4.2,55.4-13.2,103.5-52.5,142.4
		c-38.5,38.2-85.7,55.4-139.9,51.3c-82.8-6.3-151.1-69.8-163.5-151.3c-10.9-71.6,22.5-142.9,84.5-180.7
		c22.9-13.9,47.5-22.4,74.1-25.2c1.1-0.1,2.2-0.6,3.3-0.9C479,0,489,0,499,0z"/>
	<path d="M483.5,493.7c13.5-22.1,26.8-43.4,39.5-65.2c4.9-8.5,11.1-12.1,21-12c42.2,0.5,84.3,0.2,126.5,0.7
		c14,0.2,27.9,1.9,41.9,2.9c1.1,0.1,2.2,0.5,2.7,0.6c0,6.9-0.6,13.6,0.1,20.1c1.6,14.9,2.9,30,6.3,44.5c2.4,10.3,8.1,19.9,12.1,29.8
		c0.6,1.4,0.5,3.8-0.3,5c-8.7,12.3-17.8,24.3-26.6,36.6c-15,20.8-29.8,41.8-44.9,62.6c-12.8,17.7-25.8,35.3-38.7,53
		c-14.4,19.7-28.8,39.3-42.9,59.1c-6.6,9.2-9.4,19.9-10.1,31.1c-1.4,21,5,39,20.6,53.6c10.3,9.6,22.2,15.1,36,16.8
		c21.8,2.7,40.5-3.6,56.1-19.1c8.3,5.7,16.4,11.3,24.5,17.1c1.2,0.9,2.4,2.6,2.4,4c0.2,7.9,0.1,15.9,0.1,24.2
		c-154.3,0-308.2,0-462.5,0c0-71.6,0-142.8,0-214.5c-15.8,0-31.2,0-47.2,0c0,71.4,0,142.8,0,214.6c-51.3,0-102,0-153,0
		c-0.2-0.5-0.5-1.1-0.5-1.7c0.3-50.1,0.5-100.3,0.9-150.4c0.3-35.2-0.2-70.3,1.3-105.5c2.7-63.3,32.6-111,86-144.3
		c32-20,67.2-31.2,104.4-36.4c28.5-4,57.1-4,85.8-4.2c32.7-0.2,65.3,0.3,98,0.1c9-0.1,15.1,3.6,19.6,11.1
		c11.7,19.4,23.7,38.6,35.6,57.9C479.8,488.3,481.5,490.7,483.5,493.7z"/>
	<path d="M677.5,778.9c-3.1,4.3-6.1,8.3-9,12.3c-13.8,18.8-38.6,23-57.1,9.7c-18.4-13.2-22.3-38.3-8.7-57.2
		c53.1-73.5,106.2-146.9,159.5-220.3c2.9-4,2.6-6.4,0-10.3c-50.7-75.9-11.1-179.4,77.3-202.4c80-20.8,159.5,36.1,165.8,118.6
		c4.9,63.3-35.8,121.5-96.8,138.2c-24.3,6.7-48.7,6.6-73-0.5c-2.7-0.8-4.4-0.9-6.3,1.8c-22.2,31-44.6,61.9-67,92.8
		c-0.3,0.4-0.4,0.9-0.9,1.7c1.1,0.9,2.1,1.9,3.3,2.7c16.3,11.8,32.7,23.7,49,35.5c12.1,8.8,14.1,20.3,5.4,32.4
		c-18.5,25.7-37.1,51.3-55.7,77c-9.7,13.4-20.5,15.1-33.8,5.5c-15.8-11.4-31.6-22.9-47.4-34.3C680.8,781.1,679.3,780.1,677.5,778.9z
		 M821.8,439.5c0.4,29.1,23.4,51.6,52.2,51.2c27.5-0.4,50.3-23.9,50-51.5c-0.3-28.8-23.5-51.2-52.6-50.8
		C844.2,388.7,821.4,412.1,821.8,439.5z"/>
</g>
</svg>
