<?xml version="1.0" encoding="utf-8"?>
<!-- Generator: Adobe Illustrator 22.1.0, SVG Export Plug-In . SVG Version: 6.00 Build 0)  -->
<svg version="1.1" id="Capa_1" xmlns="http://www.w3.org/2000/svg" xmlns:xlink="http://www.w3.org/1999/xlink" x="0px" y="0px"
	 viewBox="0 0 512 512" style="enable-background:new 0 0 512 512;" xml:space="preserve">
<g>
	<path d="M32,256c10.3,0,20.5-5,26.7-14.3l6.9-10.3C68.9,245.4,81,256,96,256c17.7,0,32-14.3,32-32c0,17.7,14.3,32,32,32
		s32-14.3,32-32c0,17.7,14.3,32,32,32s32-14.3,32-32c0,17.7,14.3,32,32,32c17.7,0,32-14.3,32-32c0,17.7,14.3,32,32,32s32-14.3,32-32
		c0,17.7,14.3,32,32,32c15.1,0,27.1-10.6,30.5-24.6l6.9,10.3c6.2,9.3,16.3,14.3,26.7,14.3c6.1,0,12.3-1.8,17.7-5.4
		c14.7-9.8,18.7-29.7,8.9-44.4L448,128H320V96h32c17.7,0,32-14.3,32-32V32c0-17.7-14.3-32-32-32H160c-17.7,0-32,14.3-32,32v32
		c0,17.7,14.3,32,32,32h32v32H64L5.4,206.3c-9.8,14.7-5.8,34.6,8.9,44.4C19.7,254.3,25.9,256,32,256z M312,24h40v24h-32v16h-8V24z
		 M256,24h40v40h-40V24z M208,24h8v16h16V24h8v40h-8V48h-16v16h-8V24z M160,64v-8h24v-8h-24V24h32v8h-24v8h24v24H160z M224,96h64v32
		h-64L224,96L224,96z M512,512H0c0-26.5,21.5-48,48-48h416C490.5,464,512,485.5,512,512z M96,272H64v144v32h384v-32V272h-32H96z
		 M96,416V304h96v112H96z M224,416V304h192v112H224z M144,352c0,8.8-7.2,16-16,16s-16-7.2-16-16s7.2-16,16-16S144,343.2,144,352z
		 M344,40h-24v-8h24V40z M264,32h24v24h-24V32z"/>
</g>
</svg>
