<?xml version="1.0" encoding="utf-8"?>
<!-- Generator: Adobe Illustrator 22.1.0, SVG Export Plug-In . SVG Version: 6.00 Build 0)  -->
<svg version="1.1" id="Layer_1" xmlns="http://www.w3.org/2000/svg" xmlns:xlink="http://www.w3.org/1999/xlink" x="0px" y="0px"
	 viewBox="0 0 512 489.4" style="enable-background:new 0 0 512 489.4;" xml:space="preserve">
<g>
	<path d="M0,359.4c2.8-6.1,7.7-7.9,14.2-7.9c36.7,0.2,73.3,0,110,0.2c3.4,0,5.3-1,7.1-4c16.8-26.8,39.1-48.8,62.9-69.3
		c11.7-10.1,24.2-19.4,36.2-29.1c1.6-1.3,3.3-3,3.7-4.9c3.9-16.9,7.5-33.8,11.1-50.7c0.1-0.6,0.2-1.2,0.4-2.5
		c-8.3,3.1-16,6.1-23.8,8.8c-23.1,7.8-46.3,14.9-70.9,15.6c-8.5,0.3-14.8-4.1-16.9-11.3c-3-10.4,4.1-19.5,15.5-20.8
		c11-1.3,22.2-2.7,32.9-5.3c23.7-5.7,46.3-14.5,68.3-24.9c1.8-0.9,3.6-3.4,4.1-5.4c7.8-29.7,14.9-59.7,23.2-89.3
		c4.9-17.4,14.4-32.5,28.4-44.4c8.9-7.6,19-12.9,30.9-14C360.2-2,378.1,13,380.1,35.9c1.4,15.9-2.6,30.7-8.7,45.1
		c-17.1,39.9-43.9,70.8-83.5,89.7c-4.4,2.1-6.2,5-7.1,9.7c-2.5,13.5-5.6,27-8.6,41c8-4,15.3-7.9,22.8-11.3
		c11.7-5.4,23.7-10.1,36.7-10.6c23.1-0.9,36.7,11.5,38,34.7c0.1,1.5,0,3,1,5.2c2-2.2,4.1-4.5,6.1-6.7c11.8-12.6,25-22.9,41.5-28.6
		c8-2.8,16.3-3.8,24.6-2.1c16.4,3.5,27.5,17.5,29,36.3c1.5,18.5-2.7,36.1-9.4,53.2c-3.2,8.1-12.4,11.7-20.4,8.6
		c-8-3.1-11.6-11.5-9.4-20.1c2.7-10.4,5-21,7.3-31.5c0.4-1.6,0.1-3.3,0.1-5c-0.4-10.4-3.8-13-13.1-8.3c-8.2,4.2-16.6,9.1-22.8,15.7
		c-17.1,18.4-33.1,37.8-49.7,56.8c-5.2,6-10.4,12.1-16.2,17.7c-6.4,6.2-11.6,6.5-18.5,2.5c-7.1-4.1-9.8-9.9-7.9-18.1
		c0.9-4,2.7-7.9,4.5-11.6c8.1-17,16.1-34,19.9-52.6c0.9-4.5,0.9-9.1,1.4-15c-6.2,1.3-11.3,2-16.1,3.6c-20.8,6.8-39.2,18.1-57.2,30.2
		c-1.2,0.8-2.2,2.5-2.6,3.9c-7.3,27.3-14.4,54.7-21.6,82.1c-0.1,0.3,0.1,0.6,0.2,1.4c1.9,0,3.9,0,5.9,0c83,0,166,0,249,0
		c0.8,0,1.7,0.1,2.5,0c6.5-0.6,11.4,1.7,14.2,7.8c0,2,0,4,0,6c-3,5.9-7.8,7.7-14.3,7.7c-85.6-0.1-171.3-0.1-256.9-0.1
		c-9.9,0-6.9-1.1-10.7,7.6c-7.6,17.7-14.8,35.6-23.3,52.9c-7.3,15-17.3,28.4-30,39.6c-10.8,9.4-23.1,14.8-37.4,16
		c-20,1.7-35.6-9.1-40-28.3c-1-4.3-1.4-8.9-1.4-13.4c-0.2-18.8,5.1-36.5,11.5-53.9c2.5-6.7,5.2-13.2,8.2-20.5c-2.4,0-4.1,0-5.9,0
		c-32.5,0-65-0.1-97.5,0.1c-6.5,0-11.3-1.8-14.3-7.8C0,363.4,0,361.4,0,359.4z M199.1,373.1c-15.1,0-29-0.1-43,0.1
		c-1.4,0-3.5,1.9-4.1,3.3c-5.5,13.2-11.6,26.2-15.9,39.7c-3.3,10.3-4.9,21.3-6,32.2c-0.9,8.1,1.9,9.7,9.8,8.4
		c9.6-1.5,16.9-6.9,23-14C180.3,422.9,189.4,398.4,199.1,373.1z M291.6,130.5c1-0.1,1.4,0,1.6-0.1c1.1-0.7,2.2-1.4,3.3-2.2
		c22.9-15.5,35.7-38.5,46.5-62.9c2.6-5.8,3.9-12.3,5-18.7c0.9-4.8,1.8-10.9-3-13.8c-5.1-2.9-10.3,0.5-14.7,3.6
		c-9.2,6.4-15.6,15.2-19.2,25.6c-4.9,13.9-9,28.1-13.1,42.3C295.5,112.9,293.7,121.7,291.6,130.5z M167.2,351.6
		c12.4,0,23.7-0.1,34.9,0.1c3.3,0.1,4.6-1.2,5.4-4.2c4.3-15.5,8.7-31,13.1-46.5c0.3-0.9,0.1-2,0.2-3.8
		C201.3,313.9,183.4,331,167.2,351.6z"/>
	<path d="M0,228.4c6.5-9.4,12.6-9.9,20.7-1.8c7.2,7.2,14.3,14.4,21.9,22.1c7.8-7.8,15.3-15.5,23-23c1.8-1.8,4.2-3.5,6.6-4.2
		c4.6-1.4,9.3,0.8,11.6,4.8c2.4,4.1,1.9,9.2-1.6,12.9c-5.2,5.4-10.5,10.7-15.9,15.9c-2.7,2.7-5.6,5.2-8.9,8.3
		c8,7.9,15.5,15.3,22.9,22.9c1.9,2,3.7,4.4,4.6,6.9c1.5,4.5-0.8,9.2-4.7,11.6c-4.2,2.5-9,2.1-12.9-1.6c-7-6.7-13.8-13.6-20.5-20.5
		c-1.3-1.3-2.1-3-3.2-4.8c-8.2,8.3-15.3,15.3-22.4,22.4c-8.5,8.5-13.9,8.3-21.1-1c0-2.3,0-4.7,0-7c9-9.5,18-19.1,27.1-28.8
		c-9-9.4-18-18.8-27.1-28.2C0,233.1,0,230.8,0,228.4z"/>
</g>
</svg>
