<?xml version="1.0" encoding="utf-8"?>
<!-- Generator: Adobe Illustrator 22.1.0, SVG Export Plug-In . SVG Version: 6.00 Build 0)  -->
<svg version="1.1" id="Layer_1" xmlns="http://www.w3.org/2000/svg" xmlns:xlink="http://www.w3.org/1999/xlink" x="0px" y="0px"
	 viewBox="0 0 950.3 949.9" style="enable-background:new 0 0 950.3 949.9;" xml:space="preserve">
<g>
	<path d="M0,467.4c1.6-8.6,2.6-17.4,4.9-25.9c13.3-48.1,55.5-83.4,104.6-87.9c50.9-4.7,99,22.2,120.9,68c1.7,3.6,3.5,4.7,7.4,4.7
		c43.3-0.2,86.6-0.6,129.9,0.1c33.6,0.5,49.7-16.9,55.6-45.8c2.4-11.8,3-24.1,3.2-36.2c0.4-33.3-0.1-66.6,0.2-99.9
		c0.3-34.8,7.9-67.8,28-96.8c23.3-33.7,55.8-55,94.6-66.8c17.8-5.4,36-8,54.6-8c36.3,0,72.6,0,108.9,0.1c3.4,0,5.2-0.8,6.8-4.1
		c23.2-48,73-74.7,126.1-67.8c50.1,6.5,91.6,45.6,102,96.5c13.8,67.5-33.8,134.3-102.2,143.3c-53.1,7-102.9-19.8-126-67.9
		c-1.4-3-2.9-4.2-6.3-4.1c-36.8,0.1-73.6,0-110.4,0.1c-14.1,0.1-27.8,2.9-40.6,9.1c-22.7,11.1-34.5,30-37.7,54.6
		c-0.8,5.9-1,11.9-1,17.9c-0.1,33.6,0,67.3-0.1,100.9c-0.1,24.3-3.5,48.1-11.2,71.2c-0.3,0.8-0.5,1.6-0.7,2.4
		c-0.1,0.3,0.1,0.6,0.3,1.4c1.7,0,3.5,0,5.3,0c64.9,0,129.9,0,194.8,0.1c4.3,0,6.3-1.3,8.2-5.1c21.1-43.6,67.9-73.7,122.1-67.3
		c53.8,6.4,94.9,44.6,105.4,96.2c14,68.4-32,134.3-101,144.9c-52.2,8-104-19.6-127.1-67.8c-1.3-2.7-2.4-4.1-5.7-4.1
		c-66.3,0.1-132.5,0.1-198.8,0.1c-1.1,0-2.3,0.2-3.3,0.3c2.5,10.3,6,20.3,7.3,30.6c2.2,17,3.8,34.1,4.2,51.1
		c0.6,32.5,0.1,64.9,0.2,97.4c0.1,18.2,3.6,35.5,15.1,50.2c14.3,18.1,34,26.3,56.2,27.1c29.9,1.1,59.9,0.4,89.9,0.5
		c8.8,0,17.7-0.3,26.5,0.1c4.6,0.2,6.8-1.3,9-5.5c23.8-44.7,61.3-68.2,111.9-67.5c67.5,1,120.5,58.7,117.6,126.2
		c-2.6,61-51.1,111-111.8,115.3c-1.6,0.1-3.3,0.5-4.9,0.8c-3,0-6,0-9,0c-1.5-0.3-2.9-0.7-4.4-0.8c-45.8-4.4-79-27.4-99.9-68.1
		c-2-3.8-4-4.8-7.9-4.8c-36,0.1-71.9,0-107.9,0.1c-23.4,0.1-46.1-3.8-67.8-12.4c-36.6-14.4-67-36.5-87.1-71.1
		c-15.8-27.3-22.3-57.2-22.5-88.4c-0.3-36,0.4-71.9-0.4-107.9c-0.3-12.5-2.3-25.3-5.9-37.2c-7.4-24.8-24-36.1-49.8-36.1
		c-44.3,0-88.6,0.1-132.8-0.1c-3.9,0-5.7,1.3-7.5,4.7c-20.2,39.2-52,62.4-96.1,67.6c-60.3,7-116.9-33.1-130.5-92
		c-1.6-6.9-2.5-14-3.8-21C0,477.4,0,472.4,0,467.4z M828.7,404.5c-38.8,0.1-69.7,31.2-69.7,70.4c0,39.1,31,70.4,69.7,70.4
		c38.9,0,70.2-31.6,70.1-70.7C898.7,435.6,867.4,404.4,828.7,404.5z M51.5,474.8c0.1,39,31.1,70.4,69.8,70.4
		c38.9,0,70-31.6,69.9-70.9c-0.1-39-31.2-70-70.1-70C82.3,404.5,51.5,435.7,51.5,474.8z M759,121c0,38.7,31,69.8,69.7,69.8
		c38.6,0,69.9-31.1,70.1-69.6C899,82.8,867.2,51,828.7,51C790.2,51,759,82.4,759,121z M828.7,898.4c38.5,0.1,69.9-31.1,70.1-69.6
		c0.2-38.5-31-69.8-69.6-70.1c-38.5-0.3-70,30.8-70.2,69.4C758.8,867,789.9,898.4,828.7,898.4z"/>
</g>
</svg>
