<svg id="Layer_3_copy" data-name="Layer 3 copy" xmlns="http://www.w3.org/2000/svg" xmlns:xlink="http://www.w3.org/1999/xlink" viewBox="0 0 236.71 236.64"><defs><style>.cls-1{fill:url(#linear-gradient);}.cls-2{fill:url(#linear-gradient-2);}.cls-3{fill:url(#linear-gradient-3);}.cls-4{fill:url(#linear-gradient-4);}.cls-5{fill:#020202;}</style><linearGradient id="linear-gradient" x1="40.41" y1="14.89" x2="40.41" y2="184.89" gradientTransform="matrix(1, 0, 0, -1, 0.02, 239.37)" gradientUnits="userSpaceOnUse"><stop offset="0" stop-color="#022859"/><stop offset="1" stop-color="#377ab7"/></linearGradient><linearGradient id="linear-gradient-2" x1="93.49" y1="14.89" x2="93.49" y2="164.89" gradientTransform="matrix(1, 0, 0, -1, 0.02, 239.37)" gradientUnits="userSpaceOnUse"><stop offset="0" stop-color="#8c0303"/><stop offset="1" stop-color="#ed1c24"/></linearGradient><linearGradient id="linear-gradient-3" x1="148.93" y1="14.89" x2="148.93" y2="214.89" xlink:href="#linear-gradient"/><linearGradient id="linear-gradient-4" x1="202.16" y1="14.89" x2="202.16" y2="114.89" xlink:href="#linear-gradient-2"/></defs><title>trial-data-icon</title><g id="Layer_7" data-name="Layer 7"><rect class="cls-1" x="22.93" y="54.48" width="35" height="170"/><rect class="cls-2" x="76.01" y="74.48" width="35" height="150"/><rect class="cls-3" x="131.45" y="24.48" width="35" height="200"/><rect class="cls-4" x="184.68" y="124.48" width="35" height="100"/></g><g id="Layer_6" data-name="Layer 6"><path class="cls-5" d="M64.13,21.67l64.8,39.52a10.35,10.35,0,0,0,14.22-3.47c.13-.21.25-.42.36-.64a11.68,11.68,0,0,0-3.93-15.43L74.83,2.12A10.36,10.36,0,0,0,60.61,5.65c-.12.19-.23.39-.33.59A11.62,11.62,0,0,0,64.13,21.67Z" transform="translate(0.02 -0.63)"/><path class="cls-5" d="M5.35,129.26l64.79,39.52a10.35,10.35,0,0,0,14.22-3.47c.13-.22.25-.43.36-.65a11.67,11.67,0,0,0-3.93-15.43L16,109.71a10.41,10.41,0,0,0-14.29,3.53c-.12.2-.23.39-.33.59A11.67,11.67,0,0,0,5.35,129.26Z" transform="translate(0.02 -0.63)"/><path class="cls-5" d="M228.66,161.11,110.28,95.42l-3.07,5.63L123.58,71,58.78,31.47,21.39,100l64.8,39.52L99.54,115l113.07,75.5c7.67,4.68,17.47,1.89,21.92-6.2S236.33,165.8,228.66,161.11Z" transform="translate(0.02 -0.63)"/><polygon class="cls-5" points="118.3 207.11 14.84 207.11 14.84 221.88 0.07 221.88 0.07 236.64 133.12 236.64 133.12 221.88 118.3 221.88 118.3 207.11"/></g></svg>