<?xml version="1.0" encoding="utf-8"?>
<!-- Generator: Adobe Illustrator 22.0.1, SVG Export Plug-In . SVG Version: 6.00 Build 0)  -->
<svg version="1.1" id="Layer_1" xmlns="http://www.w3.org/2000/svg" xmlns:xlink="http://www.w3.org/1999/xlink" x="0px" y="0px"
	 viewBox="0 0 512 512" style="enable-background:new 0 0 512 512;" xml:space="preserve">
<style type="text/css">
	.st0{fill:#020201;}
</style>
<path class="st0" d="M454.4,392.6c-5.4-16.3-15.3-32.8-29.8-42.4c-28-18.6-60.6-28.5-92.1-39.1c-7.6-2.7-15.3-5.6-22.3-9.7
	c-6.2-3.7-8.5-11.2-10-17.9c-0.6-3.5-1-7.1-1.2-10.7c22.9-31.3,38-82.3,38-124.1c0-65.3-36.9-83.5-82.4-83.5
	c-45.5,0-82.4,18.2-82.4,83.5c0,43.3,16.3,96.5,40.5,127.4c-0.2,2.4-0.5,4.9-0.9,7.3c-1.4,6.6-3.8,14.1-10,17.7
	c-7,4.1-14.7,6.8-22.3,9.4c-31.5,10.6-64.1,20-92.1,38.5c-14.5,9.6-24.4,27.2-29.8,43.5c-5.6,16.9-7.9,37.9-7.5,54.9h206h206
	C462.3,430.5,460,409.5,454.4,392.6z"/>
</svg>
