<?xml version="1.0" encoding="utf-8"?>
<!-- Generator: Adobe Illustrator 22.1.0, SVG Export Plug-In . SVG Version: 6.00 Build 0)  -->
<svg version="1.1" id="Layer_1" xmlns="http://www.w3.org/2000/svg" xmlns:xlink="http://www.w3.org/1999/xlink" x="0px" y="0px"
	 viewBox="0 0 210.6 280.3" style="enable-background:new 0 0 210.6 280.3;" xml:space="preserve">
<g>
	<path d="M8.5,280.3c-6.4-2.2-8.5-6.7-8.5-13.3c0.2-30.7,0.1-61.5,0-92.2c0-3.9,1-7.3,3.1-10.5c11.5-17.9,22.8-35.8,34.6-54.5
		c-2-1.8-4.2-3.5-6.2-5.5c-5.1-5.1-5.1-11.1-0.1-16.2C59.6,60,87.7,31.9,115.8,3.8C121-1.3,127-1.2,132.2,4
		c15.6,15.6,31.2,31.2,46.8,46.8c5.2,5.2,5.2,11.1,0,16.4c-7.1,7.1-14.2,14.2-21.3,21.3c-0.7,0.7-1.4,1.4-2.5,2.6
		c6.6,0.3,9,5,11.8,9.4c13.4,21.2,26.8,42.3,40.3,63.5c2.2,3.5,3.3,7.1,3.3,11.3c-0.1,30.6-0.2,61.1,0,91.7c0,6.5-2.1,11.1-8.3,13.4
		C137.7,280.3,73.1,280.3,8.5,280.3z M21.3,258.9c56.2,0,112,0,168,0c0-25.4,0-50.6,0-75.9c-56.1,0-112,0-168,0
		C21.3,208.5,21.3,233.6,21.3,258.9z M97.5,149c1.5,0,2.4,0,3.4,0c16.5,0,33,0,49.5,0c0.8,0,1.6-0.1,2.5,0c2.1,0.2,3.4,1.3,3.5,3.5
		c0,2.2-1.4,3.3-3.4,3.5c-0.8,0.1-1.6,0-2.5,0c-30.1,0-60.2,0-90.3,0c-4.2,0-5.9-1.1-5.9-3.6C54.3,150,56,149,60,149
		c5.1,0,10.3,0,15,0c-7.5-7.5-15-15.1-22.6-22.8c-7.3,11.5-14.8,23.3-22.4,35.3c50.4,0,100.3,0,150.3,0c-0.2-0.5-0.2-0.7-0.4-1
		c-9.9-15.6-19.8-31.3-29.8-46.9c-0.5-0.7-1.7-1.3-2.6-1.3c-3.6-0.1-7.3,0-10.9-0.1c-1.9-0.1-3.2,0.5-4.5,1.8
		c-10.8,11-21.8,21.8-32.7,32.7C98.9,147.4,98.4,148,97.5,149z"/>
</g>
</svg>
